# Blender v2.64 (sub 0) OBJ File: ''
# www.blender.org
mtllib G5S1.mtl
o Mesh.003_Curve.020_Curve.007
v 3.738773 2.496107 -7.119928
v 0.569344 2.496107 0.842231
v 3.738787 2.496106 4.061174
v 0.409592 2.496107 1.160449
v 0.211562 2.496107 1.453557
v -0.021451 2.496107 1.718265
v -0.286159 2.496107 1.951280
v -0.579267 2.496106 2.149309
v -0.897485 2.496106 2.309063
v -1.237520 2.496106 2.427249
v -1.596080 2.496106 2.500574
v -1.969875 2.496106 2.525748
v -4.922630 2.496106 4.061185
v -2.343672 2.496106 2.500575
v -2.702233 2.496106 2.427251
v -3.042269 2.496106 2.309066
v -3.360487 2.496106 2.149313
v -3.653595 2.496107 1.951285
v -3.918303 2.496107 1.718270
v -4.151318 2.496107 1.453563
v -4.349349 2.496107 1.160455
v -4.509101 2.496107 0.842238
v -4.627287 2.496107 0.502203
v -4.700613 2.496107 0.143641
v -4.725786 2.496107 -0.230154
v -4.922645 2.496107 -7.119917
v 0.687529 2.496107 0.502196
v 0.760853 2.496107 0.143634
v 0.786026 2.496107 -0.230161
v 0.760852 2.496107 -0.603956
v -4.700613 2.496107 -0.603949
v 0.687527 2.496107 -0.962517
v -4.627289 2.496107 -0.962510
v 0.569342 2.496107 -1.302552
v -4.509104 2.496107 -1.302545
v 0.409588 2.496107 -1.620770
v -4.349352 2.496107 -1.620764
v 0.211558 2.496107 -1.913878
v -4.151322 2.496107 -1.913873
v -0.021456 2.496107 -2.178585
v -3.918308 2.496107 -2.178580
v -0.286165 2.496107 -2.411599
v -3.653601 2.496107 -2.411595
v -0.579273 2.496107 -2.609628
v -3.360493 2.496107 -2.609625
v -0.897491 2.496107 -2.769381
v -3.042275 2.496107 -2.769378
v -1.237526 2.496107 -2.887566
v -2.702239 2.496107 -2.887564
v -1.596087 2.496107 -2.960890
v -2.343678 2.496107 -2.960889
v -1.969882 2.496107 -2.986063
v 0.569344 2.296107 0.842231
v 3.738773 2.296107 -7.119928
v 3.738787 2.296106 4.061174
v 0.409592 2.296107 1.160449
v 0.211562 2.296107 1.453557
v -0.021451 2.296107 1.718265
v -0.286159 2.296107 1.951280
v -0.579267 2.296107 2.149309
v -0.897485 2.296107 2.309063
v -1.237520 2.296107 2.427249
v -1.596080 2.296107 2.500574
v -1.969875 2.296107 2.525748
v -4.922630 2.296106 4.061185
v -2.343672 2.296107 2.500575
v -2.702233 2.296107 2.427251
v -3.042269 2.296107 2.309066
v -3.360487 2.296107 2.149313
v -3.653595 2.296107 1.951285
v -3.918303 2.296107 1.718270
v -4.151318 2.296107 1.453563
v -4.349349 2.296107 1.160455
v -4.509101 2.296107 0.842238
v -4.627287 2.296107 0.502203
v -4.700613 2.296107 0.143641
v -4.725786 2.296107 -0.230154
v -4.922645 2.296107 -7.119917
v 0.687529 2.296107 0.502196
v 0.760853 2.296107 0.143634
v 0.786026 2.296107 -0.230161
v 0.760852 2.296107 -0.603956
v -4.700613 2.296107 -0.603949
v 0.687527 2.296107 -0.962517
v -4.627289 2.296107 -0.962510
v 0.569342 2.296107 -1.302552
v -4.509104 2.296107 -1.302545
v 0.409588 2.296107 -1.620770
v -4.349352 2.296107 -1.620764
v 0.211558 2.296107 -1.913878
v -4.151322 2.296107 -1.913873
v -0.021456 2.296107 -2.178585
v -3.918308 2.296107 -2.178580
v -0.286165 2.296107 -2.411599
v -3.653601 2.296107 -2.411595
v -0.579273 2.296107 -2.609628
v -3.360493 2.296107 -2.609625
v -0.897491 2.296107 -2.769381
v -3.042275 2.296107 -2.769378
v -1.237526 2.296107 -2.887566
v -2.702239 2.296107 -2.887564
v -1.596087 2.296107 -2.960890
v -2.343678 2.296107 -2.960889
v -1.969882 2.296107 -2.986063
v -2.343678 2.496107 -2.960889
v -2.702239 2.496107 -2.887564
v -2.702239 2.296107 -2.887564
v -2.343678 2.296107 -2.960889
v -3.042275 2.496107 -2.769378
v -3.042275 2.296107 -2.769378
v -3.360493 2.496107 -2.609625
v -3.360493 2.296107 -2.609625
v -3.653601 2.496107 -2.411595
v -3.653601 2.296107 -2.411595
v -3.918308 2.496107 -2.178580
v -3.918308 2.296107 -2.178580
v -4.151322 2.496107 -1.913873
v -4.151322 2.296107 -1.913873
v -4.349352 2.496107 -1.620764
v -4.349352 2.296107 -1.620764
v -4.509104 2.496107 -1.302545
v -4.509104 2.296107 -1.302545
v -4.627289 2.496107 -0.962510
v -4.627289 2.296107 -0.962510
v -4.700613 2.496107 -0.603949
v -4.700613 2.296107 -0.603949
v -4.725786 2.496107 -0.230154
v -4.725786 2.296107 -0.230154
v -4.700613 2.496107 0.143641
v -4.700613 2.296107 0.143641
v -4.627287 2.496107 0.502203
v -4.627287 2.296107 0.502203
v -4.509101 2.496107 0.842238
v -4.509101 2.296107 0.842238
v -4.349349 2.496107 1.160455
v -4.349349 2.296107 1.160455
v -4.151318 2.496107 1.453563
v -4.151318 2.296107 1.453563
v -3.918303 2.496107 1.718270
v -3.918303 2.296107 1.718270
v -3.653595 2.496107 1.951285
v -3.653595 2.296107 1.951285
v -3.360487 2.496106 2.149313
v -3.360487 2.296107 2.149313
v -3.042269 2.496106 2.309066
v -3.042269 2.296107 2.309066
v -2.702233 2.496106 2.427251
v -2.702233 2.296107 2.427251
v -2.343672 2.496106 2.500575
v -2.343672 2.296107 2.500575
v -1.969875 2.496106 2.525748
v -1.969875 2.296107 2.525748
v -1.596080 2.496106 2.500574
v -1.596080 2.296107 2.500574
v -1.237520 2.496106 2.427249
v -1.237520 2.296107 2.427249
v -0.897485 2.496106 2.309063
v -0.897485 2.296107 2.309063
v -0.579267 2.496106 2.149309
v -0.579267 2.296107 2.149309
v -0.286159 2.496107 1.951280
v -0.286159 2.296107 1.951280
v -0.021451 2.496107 1.718265
v -0.021451 2.296107 1.718265
v 0.211562 2.496107 1.453557
v 0.211562 2.296107 1.453557
v 0.409592 2.496107 1.160449
v 0.409592 2.296107 1.160449
v 0.569344 2.496107 0.842231
v 0.569344 2.296107 0.842231
v 0.687529 2.496107 0.502196
v 0.687529 2.296107 0.502196
v 0.760853 2.496107 0.143634
v 0.760853 2.296107 0.143634
v 0.786026 2.496107 -0.230161
v 0.786026 2.296107 -0.230161
v 0.760852 2.496107 -0.603956
v 0.760852 2.296107 -0.603956
v 0.687527 2.496107 -0.962517
v 0.687527 2.296107 -0.962517
v 0.569342 2.496107 -1.302552
v 0.569342 2.296107 -1.302552
v 0.409588 2.496107 -1.620770
v 0.409588 2.296107 -1.620770
v 0.211558 2.496107 -1.913878
v 0.211558 2.296107 -1.913878
v -0.021456 2.496107 -2.178585
v -0.021456 2.296107 -2.178585
v -0.286165 2.496107 -2.411599
v -0.286165 2.296107 -2.411599
v -0.579273 2.496107 -2.609628
v -0.579273 2.296107 -2.609628
v -0.897491 2.496107 -2.769381
v -0.897491 2.296107 -2.769381
v -1.237526 2.496107 -2.887566
v -1.237526 2.296107 -2.887566
v -1.596087 2.496107 -2.960890
v -1.596087 2.296107 -2.960890
v -1.969882 2.496107 -2.986063
v -1.969882 2.296107 -2.986063
v 3.738773 2.496107 -7.119928
v 3.738787 2.496106 4.061174
v 3.738787 2.296106 4.061174
v 3.738773 2.296107 -7.119928
v -4.922630 2.496106 4.061185
v -4.922630 2.296106 4.061185
v -4.922645 2.496107 -7.119917
v -4.922645 2.296107 -7.119917
vn 0.000000 1.000000 0.000000
vn 0.000001 1.000000 -0.000000
vn -0.000002 1.000000 0.000004
vn 0.000003 1.000000 0.000002
vn -0.000001 1.000000 0.000000
vn -0.000002 1.000000 0.000000
vn -0.000004 1.000000 0.000000
vn -0.000000 -1.000000 -0.000000
vn -0.000001 -1.000000 0.000000
vn -0.000000 -1.000000 -0.000001
vn 0.000001 -1.000000 0.000000
vn 0.000003 -1.000000 -0.000000
vn 0.134068 0.000000 0.990966
vn 0.264901 0.000000 0.964263
vn 0.389294 0.000000 0.921079
vn 0.505264 0.000000 0.862941
vn 0.611530 0.000000 0.791192
vn 0.707083 0.000000 0.707083
vn 0.791192 0.000000 0.611499
vn 0.862941 0.000000 0.505264
vn 0.921079 0.000000 0.389294
vn 0.964263 0.000000 0.264901
vn 0.990966 0.000000 0.134068
vn 1.000000 0.000000 0.000000
vn 0.990966 0.000000 -0.134068
vn 0.964263 0.000000 -0.264901
vn 0.921079 0.000000 -0.389294
vn 0.862941 0.000000 -0.505264
vn 0.791192 0.000000 -0.611530
vn 0.707083 0.000000 -0.707083
vn 0.611499 0.000000 -0.791223
vn 0.505264 0.000000 -0.862941
vn 0.389294 0.000000 -0.921079
vn 0.264901 0.000000 -0.964263
vn 0.134068 0.000000 -0.990966
vn 0.000000 0.000000 -1.000000
vn -0.134068 0.000000 -0.990966
vn -0.264901 0.000000 -0.964263
vn -0.389294 0.000000 -0.921079
vn -0.505264 0.000000 -0.862941
vn -0.611499 0.000000 -0.791192
vn -0.707083 0.000000 -0.707083
vn -0.791223 0.000000 -0.611499
vn -0.862941 0.000000 -0.505264
vn -0.921079 0.000000 -0.389294
vn -0.964263 0.000000 -0.264901
vn -0.990966 0.000000 -0.134068
vn -1.000000 0.000000 0.000000
vn -0.990966 0.000000 0.134068
vn -0.964263 0.000000 0.264901
vn -0.921079 0.000000 0.389294
vn -0.862941 0.000000 0.505264
vn -0.791192 0.000000 0.611499
vn -0.707083 0.000000 0.707083
vn -0.611499 0.000000 0.791223
vn -0.505264 0.000000 0.862941
vn -0.389294 0.000000 0.921079
vn -0.264901 0.000000 0.964263
vn -0.134068 0.000000 0.990966
vn 0.000000 0.000000 1.000000
usemtl Material.024
s off
f 1//1 2//1 3//1
f 2//1 4//1 3//1
f 4//1 5//1 3//1
f 5//2 6//2 3//2
f 6//1 7//1 3//1
f 7//3 8//3 3//3
f 8//1 9//1 3//1
f 9//1 10//1 3//1
f 10//1 11//1 3//1
f 11//1 12//1 3//1
f 12//1 13//1 3//1
f 12//1 14//1 13//1
f 14//1 15//1 13//1
f 15//1 16//1 13//1
f 16//1 17//1 13//1
f 17//4 18//4 13//4
f 18//1 19//1 13//1
f 19//5 20//5 13//5
f 20//1 21//1 13//1
f 21//1 22//1 13//1
f 22//5 23//5 13//5
f 23//5 24//5 13//5
f 24//6 25//6 13//6
f 25//7 26//7 13//7
f 1//2 27//2 2//2
f 1//1 28//1 27//1
f 1//1 29//1 28//1
f 1//1 30//1 29//1
f 31//5 26//5 25//5
f 1//1 32//1 30//1
f 33//1 26//1 31//1
f 1//1 34//1 32//1
f 35//1 26//1 33//1
f 1//5 36//5 34//5
f 37//2 26//2 35//2
f 1//1 38//1 36//1
f 39//1 26//1 37//1
f 1//1 40//1 38//1
f 41//1 26//1 39//1
f 1//1 42//1 40//1
f 43//1 26//1 41//1
f 1//1 44//1 42//1
f 45//1 26//1 43//1
f 1//1 46//1 44//1
f 47//1 26//1 45//1
f 1//1 48//1 46//1
f 49//1 26//1 47//1
f 1//1 50//1 48//1
f 51//1 26//1 49//1
f 1//1 52//1 50//1
f 26//1 51//1 52//1
f 1//1 26//1 52//1
f 53//8 54//8 55//8
f 56//8 53//8 55//8
f 57//8 56//8 55//8
f 58//9 57//9 55//9
f 59//8 58//8 55//8
f 60//8 59//8 55//8
f 61//8 60//8 55//8
f 62//8 61//8 55//8
f 63//8 62//8 55//8
f 64//8 63//8 55//8
f 65//10 64//10 55//10
f 66//10 64//10 65//10
f 67//8 66//8 65//8
f 68//8 67//8 65//8
f 69//8 68//8 65//8
f 70//8 69//8 65//8
f 71//8 70//8 65//8
f 72//11 71//11 65//11
f 73//8 72//8 65//8
f 74//8 73//8 65//8
f 75//8 74//8 65//8
f 76//11 75//11 65//11
f 77//11 76//11 65//11
f 78//12 77//12 65//12
f 79//9 54//9 53//9
f 80//8 54//8 79//8
f 81//8 54//8 80//8
f 82//8 54//8 81//8
f 78//11 83//11 77//11
f 84//8 54//8 82//8
f 78//8 85//8 83//8
f 86//8 54//8 84//8
f 78//8 87//8 85//8
f 88//11 54//11 86//11
f 78//9 89//9 87//9
f 90//8 54//8 88//8
f 78//8 91//8 89//8
f 92//8 54//8 90//8
f 78//8 93//8 91//8
f 94//8 54//8 92//8
f 78//8 95//8 93//8
f 96//8 54//8 94//8
f 78//8 97//8 95//8
f 98//8 54//8 96//8
f 78//8 99//8 97//8
f 100//8 54//8 98//8
f 78//8 101//8 99//8
f 102//8 54//8 100//8
f 78//8 103//8 101//8
f 104//8 54//8 102//8
f 78//8 104//8 103//8
f 78//8 54//8 104//8
s 1
f 105//13 106//14 107//14 108//13
f 106//14 109//15 110//15 107//14
f 109//15 111//16 112//16 110//15
f 111//16 113//17 114//17 112//16
f 113//17 115//18 116//18 114//17
f 115//18 117//19 118//19 116//18
f 117//19 119//20 120//20 118//19
f 119//20 121//21 122//21 120//20
f 121//21 123//22 124//22 122//21
f 123//22 125//23 126//23 124//22
f 125//23 127//24 128//24 126//23
f 127//24 129//25 130//25 128//24
f 129//25 131//26 132//26 130//25
f 131//26 133//27 134//27 132//26
f 133//27 135//28 136//28 134//27
f 135//28 137//29 138//29 136//28
f 137//29 139//30 140//30 138//29
f 139//30 141//31 142//31 140//30
f 141//31 143//32 144//32 142//31
f 143//32 145//33 146//33 144//32
f 145//33 147//34 148//34 146//33
f 147//34 149//35 150//35 148//34
f 149//35 151//36 152//36 150//35
f 151//36 153//37 154//37 152//36
f 153//37 155//38 156//38 154//37
f 155//38 157//39 158//39 156//38
f 157//39 159//40 160//40 158//39
f 159//40 161//41 162//41 160//40
f 161//41 163//42 164//42 162//41
f 163//42 165//43 166//43 164//42
f 165//43 167//44 168//44 166//43
f 167//44 169//45 170//45 168//44
f 169//45 171//46 172//46 170//45
f 171//46 173//47 174//47 172//46
f 173//47 175//48 176//48 174//47
f 175//48 177//49 178//49 176//48
f 177//49 179//50 180//50 178//49
f 179//50 181//51 182//51 180//50
f 181//51 183//52 184//52 182//51
f 183//52 185//53 186//53 184//52
f 185//53 187//54 188//54 186//53
f 187//54 189//55 190//55 188//54
f 189//55 191//56 192//56 190//55
f 191//56 193//57 194//57 192//56
f 193//57 195//58 196//58 194//57
f 195//58 197//59 198//59 196//58
f 197//59 199//60 200//60 198//59
f 199//60 105//13 108//13 200//60
f 201//30 202//18 203//18 204//30
f 202//18 205//54 206//54 203//18
f 205//54 207//42 208//42 206//54
f 207//42 201//30 204//30 208//42
