<?xml version="1.0" encoding="UTF-8" standalone="no"?>
<!-- Creator: CorelDRAW -->

<svg
   xmlns:dc="http://purl.org/dc/elements/1.1/"
   xmlns:cc="http://creativecommons.org/ns#"
   xmlns:rdf="http://www.w3.org/1999/02/22-rdf-syntax-ns#"
   xmlns:svg="http://www.w3.org/2000/svg"
   xmlns="http://www.w3.org/2000/svg"
   xmlns:sodipodi="http://sodipodi.sourceforge.net/DTD/sodipodi-0.dtd"
   xmlns:inkscape="http://www.inkscape.org/namespaces/inkscape"
   xml:space="preserve"
   width="60cm"
   height="30cm"
   shape-rendering="geometricPrecision"
   text-rendering="geometricPrecision"
   image-rendering="optimizeQuality"
   fill-rule="evenodd"
   clip-rule="evenodd"
   viewBox="0 0 600 300"
   id="svg2"
   version="1.1"
   inkscape:version="0.48.1 "
   sodipodi:docname="BoxBottom.svg"><metadata
   id="metadata179"><rdf:RDF><cc:Work
       rdf:about=""><dc:format>image/svg+xml</dc:format><dc:type
         rdf:resource="http://purl.org/dc/dcmitype/StillImage" /></cc:Work></rdf:RDF></metadata><defs
   id="defs177" /><sodipodi:namedview
   pagecolor="#ffffff"
   bordercolor="#666666"
   borderopacity="1"
   objecttolerance="10"
   gridtolerance="10"
   guidetolerance="10"
   inkscape:pageopacity="0"
   inkscape:pageshadow="2"
   inkscape:window-width="1366"
   inkscape:window-height="716"
   id="namedview175"
   showgrid="false"
   inkscape:zoom="0.77695847"
   inkscape:cx="1230.3124"
   inkscape:cy="179.73767"
   inkscape:window-x="-8"
   inkscape:window-y="-8"
   inkscape:window-maximized="1"
   inkscape:current-layer="Layer_x0020_1"><inkscape:grid
     type="xygrid"
     id="grid3861" /></sodipodi:namedview>
 <g
   id="Layer_x0020_1">
  <metadata
   id="CorelCorpID_0Corel-Layer" />
  <g
   id="_55013376">
   <path
   id="_55015264"
   d="M343.506 101.972c0,-0.2761 0.2239,-0.5 0.5,-0.5 0.2761,0 0.5,0.2239 0.5,0.5l4 0c0,-0.2761 0.2239,-0.5 0.5,-0.5 0.2761,0 0.5,0.2239 0.5,0.5 0,0.2761 -0.2239,0.5 -0.5,0.5l0 9c0.2761,0 0.5,0.2239 0.5,0.5 0,0.2761 -0.2239,0.5 -0.5,0.5 -0.2761,0 -0.5,-0.2239 -0.5,-0.5l-4 0c0,0.2761 -0.2239,0.5 -0.5,0.5 -0.2761,0 -0.5,-0.2239 -0.5,-0.5 0,-0.2761 0.2239,-0.5 0.5,-0.5l0 -9c-0.2761,0 -0.5,-0.2239 -0.5,-0.5z"
   stroke-width="0.0762"
   stroke="#1F1A17"
   fill="none" />
   <path
   id="_54311080"
   d="M343.506 121.972c0,-0.2761 0.2239,-0.5 0.5,-0.5 0.2761,0 0.5,0.2239 0.5,0.5l4 0c0,-0.2761 0.2239,-0.5 0.5,-0.5 0.2761,0 0.5,0.2239 0.5,0.5 0,0.2761 -0.2239,0.5 -0.5,0.5l0 9c0.2761,0 0.5,0.2239 0.5,0.5 0,0.2761 -0.2239,0.5 -0.5,0.5 -0.2761,0 -0.5,-0.2239 -0.5,-0.5l-4 0c0,0.2761 -0.2239,0.5 -0.5,0.5 -0.2761,0 -0.5,-0.2239 -0.5,-0.5 0,-0.2761 0.2239,-0.5 0.5,-0.5l0 -9c-0.2761,0 -0.5,-0.2239 -0.5,-0.5z"
   stroke-width="0.0762"
   stroke="#1F1A17"
   fill="none" />
   <path
   id="_65086688"
   d="m 340.47249,143.472 c 0.2761,0 0.5,0.2239 0.5,0.5 0,0.2761 -0.2239,0.5 -0.5,0.5 l 0,4 c 0.2761,0 0.5,0.2239 0.5,0.5 0,0.2761 -0.2239,0.5 -0.5,0.5 -0.2761,0 -0.5,-0.2239 -0.5,-0.5 l -9,0 c 0,0.2761 -0.2239,0.5 -0.5,0.5 -0.2761,0 -0.5,-0.2239 -0.5,-0.5 0,-0.2761 0.2239,-0.5 0.5,-0.5 l 0,-4 c -0.2761,0 -0.5,-0.2239 -0.5,-0.5 0,-0.2761 0.2239,-0.5 0.5,-0.5 0.2761,0 0.5,0.2239 0.5,0.5 l 9,0 c 0,-0.2761 0.2239,-0.5 0.5,-0.5 z"
   inkscape:connector-curvature="0"
   style="fill:none;stroke:#1f1a17;stroke-width:0.0762"
   sodipodi:nodetypes="ssccssccssccssccs" />
   <path
   id="_55151392"
   d="m 303.5392,143.472 c 0.2761,0 0.5,0.2239 0.5,0.5 0,0.2761 -0.2239,0.5 -0.5,0.5 l 0,4 c 0.2761,0 0.5,0.2239 0.5,0.5 0,0.2761 -0.2239,0.5 -0.5,0.5 -0.2761,0 -0.5,-0.2239 -0.5,-0.5 l -9,0 c 0,0.2761 -0.2239,0.5 -0.5,0.5 -0.2761,0 -0.5,-0.2239 -0.5,-0.5 0,-0.2761 0.2239,-0.5 0.5,-0.5 l 0,-4 c -0.2761,0 -0.5,-0.2239 -0.5,-0.5 0,-0.2761 0.2239,-0.5 0.5,-0.5 0.2761,0 0.5,0.2239 0.5,0.5 l 9,0 c 0,-0.2761 0.2239,-0.5 0.5,-0.5 z"
   inkscape:connector-curvature="0"
   style="fill:none;stroke:#1f1a17;stroke-width:0.0762"
   sodipodi:nodetypes="ssccssccssccssccs" />
   <path
   id="_65122104"
   d="M284.506 101.972c0,-0.2761 0.2239,-0.5 0.5,-0.5 0.2761,0 0.5,0.2239 0.5,0.5l4 0c0,-0.2761 0.2239,-0.5 0.5,-0.5 0.2761,0 0.5,0.2239 0.5,0.5 0,0.2761 -0.2239,0.5 -0.5,0.5l0 9c0.2761,0 0.5,0.2239 0.5,0.5 0,0.2761 -0.2239,0.5 -0.5,0.5 -0.2761,0 -0.5,-0.2239 -0.5,-0.5l-4 0c0,0.2761 -0.2239,0.5 -0.5,0.5 -0.2761,0 -0.5,-0.2239 -0.5,-0.5 0,-0.2761 0.2239,-0.5 0.5,-0.5l0 -9c-0.2761,0 -0.5,-0.2239 -0.5,-0.5z"
   stroke-width="0.0762"
   stroke="#1F1A17"
   fill="none" />
   <path
   id="_29808376"
   d="M284.506 121.972c0,-0.2761 0.2239,-0.5 0.5,-0.5 0.2761,0 0.5,0.2239 0.5,0.5l4 0c0,-0.2761 0.2239,-0.5 0.5,-0.5 0.2761,0 0.5,0.2239 0.5,0.5 0,0.2761 -0.2239,0.5 -0.5,0.5l0 9c0.2761,0 0.5,0.2239 0.5,0.5 0,0.2761 -0.2239,0.5 -0.5,0.5 -0.2761,0 -0.5,-0.2239 -0.5,-0.5l-4 0c0,0.2761 -0.2239,0.5 -0.5,0.5 -0.2761,0 -0.5,-0.2239 -0.5,-0.5 0,-0.2761 0.2239,-0.5 0.5,-0.5l0 -9c-0.2761,0 -0.5,-0.2239 -0.5,-0.5z"
   stroke-width="0.0762"
   stroke="#1F1A17"
   fill="none" />
   <path
   id="_29814640"
   d="M302.006 90.4722c-0.2761,0 -0.5,-0.2239 -0.5,-0.5 0,-0.2761 0.2239,-0.5 0.5,-0.5l0 -4c-0.2761,0 -0.5,-0.2239 -0.5,-0.5 0,-0.2761 0.2239,-0.5 0.5,-0.5 0.2761,0 0.5,0.2239 0.5,0.5l9 0c0,-0.2761 0.2239,-0.5 0.5,-0.5 0.2761,0 0.5,0.2239 0.5,0.5 0,0.2761 -0.2239,0.5 -0.5,0.5l0 4c0.2761,0 0.5,0.2239 0.5,0.5 0,0.2761 -0.2239,0.5 -0.5,0.5 -0.2761,0 -0.5,-0.2239 -0.5,-0.5l-9 0c0,0.2761 -0.2239,0.5 -0.5,0.5z"
   stroke-width="0.0762"
   stroke="#1F1A17"
   fill="none" />
   <path
   id="_54017928"
   d="M322.006 90.4722c-0.2761,0 -0.5,-0.2239 -0.5,-0.5 0,-0.2761 0.2239,-0.5 0.5,-0.5l0 -4c-0.2761,0 -0.5,-0.2239 -0.5,-0.5 0,-0.2761 0.2239,-0.5 0.5,-0.5 0.2761,0 0.5,0.2239 0.5,0.5l9 0c0,-0.2761 0.2239,-0.5 0.5,-0.5 0.2761,0 0.5,0.2239 0.5,0.5 0,0.2761 -0.2239,0.5 -0.5,0.5l0 4c0.2761,0 0.5,0.2239 0.5,0.5 0,0.2761 -0.2239,0.5 -0.5,0.5 -0.2761,0 -0.5,-0.2239 -0.5,-0.5l-9 0c0,0.2761 -0.2239,0.5 -0.5,0.5z"
   stroke-width="0.0762"
   stroke="#1F1A17"
   fill="none" />
  </g>
  <path
   d="M133.5 242c0,-0.2761 0.2239,-0.5 0.5,-0.5 0.2761,0 0.5,0.2239 0.5,0.5l4 0c0,-0.2761 0.2239,-0.5 0.5,-0.5 0.2761,0 0.5,0.2239 0.5,0.5 0,0.2761 -0.2239,0.5 -0.5,0.5l0 9c0.2761,0 0.5,0.2239 0.5,0.5 0,0.2761 -0.2239,0.5 -0.5,0.5 -0.2761,0 -0.5,-0.2239 -0.5,-0.5l-4 0c0,0.2761 -0.2239,0.5 -0.5,0.5 -0.2761,0 -0.5,-0.2239 -0.5,-0.5 0,-0.2761 0.2239,-0.5 0.5,-0.5l0 -9c-0.2761,0 -0.5,-0.2239 -0.5,-0.5z"
   id="path15"
   stroke-width="0.0762"
   stroke="#1F1A17"
   fill="none" />
  <path
   d="M133.5 262c0,-0.2761 0.2239,-0.5 0.5,-0.5 0.2761,0 0.5,0.2239 0.5,0.5l4 0c0,-0.2761 0.2239,-0.5 0.5,-0.5 0.2761,0 0.5,0.2239 0.5,0.5 0,0.2761 -0.2239,0.5 -0.5,0.5l0 9c0.2761,0 0.5,0.2239 0.5,0.5 0,0.2761 -0.2239,0.5 -0.5,0.5 -0.2761,0 -0.5,-0.2239 -0.5,-0.5l-4 0c0,0.2761 -0.2239,0.5 -0.5,0.5 -0.2761,0 -0.5,-0.2239 -0.5,-0.5 0,-0.2761 0.2239,-0.5 0.5,-0.5l0 -9c-0.2761,0 -0.5,-0.2239 -0.5,-0.5z"
   id="path17"
   stroke-width="0.0762"
   stroke="#1F1A17"
   fill="none" />
  <path
   d="M74.5 242c0,-0.2761 0.2239,-0.5 0.5,-0.5 0.2761,0 0.5,0.2239 0.5,0.5l4 0c0,-0.2761 0.2239,-0.5 0.5,-0.5 0.2761,0 0.5,0.2239 0.5,0.5 0,0.2761 -0.2239,0.5 -0.5,0.5l0 9c0.2761,0 0.5,0.2239 0.5,0.5 0,0.2761 -0.2239,0.5 -0.5,0.5 -0.2761,0 -0.5,-0.2239 -0.5,-0.5l-4 0c0,0.2761 -0.2239,0.5 -0.5,0.5 -0.2761,0 -0.5,-0.2239 -0.5,-0.5 0,-0.2761 0.2239,-0.5 0.5,-0.5l0 -9c-0.2761,0 -0.5,-0.2239 -0.5,-0.5z"
   id="path19"
   stroke-width="0.0762"
   stroke="#1F1A17"
   fill="none" />
  <path
   d="M74.5 262c0,-0.2761 0.2239,-0.5 0.5,-0.5 0.2761,0 0.5,0.2239 0.5,0.5l4 0c0,-0.2761 0.2239,-0.5 0.5,-0.5 0.2761,0 0.5,0.2239 0.5,0.5 0,0.2761 -0.2239,0.5 -0.5,0.5l0 9c0.2761,0 0.5,0.2239 0.5,0.5 0,0.2761 -0.2239,0.5 -0.5,0.5 -0.2761,0 -0.5,-0.2239 -0.5,-0.5l-4 0c0,0.2761 -0.2239,0.5 -0.5,0.5 -0.2761,0 -0.5,-0.2239 -0.5,-0.5 0,-0.2761 0.2239,-0.5 0.5,-0.5l0 -9c-0.2761,0 -0.5,-0.2239 -0.5,-0.5z"
   id="path21"
   stroke-width="0.0762"
   stroke="#1F1A17"
   fill="none" />
  <path
   d="m 133.5,126.53336 c 0,-0.2761 0.2239,-0.5 0.5,-0.5 0.2761,0 0.5,0.2239 0.5,0.5 l 4,0 c 0,-0.2761 0.2239,-0.5 0.5,-0.5 0.2761,0 0.5,0.2239 0.5,0.5 0,0.2761 -0.2239,0.5 -0.5,0.5 l 0,9 c 0.2761,0 0.5,0.2239 0.5,0.5 0,0.2761 -0.2239,0.5 -0.5,0.5 -0.2761,0 -0.5,-0.2239 -0.5,-0.5 l -4,0 c 0,0.2761 -0.2239,0.5 -0.5,0.5 -0.2761,0 -0.5,-0.2239 -0.5,-0.5 0,-0.2761 0.2239,-0.5 0.5,-0.5 l 0,-9 c -0.2761,0 -0.5,-0.2239 -0.5,-0.5 z"
   id="path23"
   inkscape:connector-curvature="0"
   style="fill:none;stroke:#1f1a17;stroke-width:0.0762"
   sodipodi:nodetypes="ssccssccssccssccs" />
  <path
   d="m 133.5,163.46666 c 0,-0.2761 0.2239,-0.5 0.5,-0.5 0.2761,0 0.5,0.2239 0.5,0.5 l 4,0 c 0,-0.2761 0.2239,-0.5 0.5,-0.5 0.2761,0 0.5,0.2239 0.5,0.5 0,0.2761 -0.2239,0.5 -0.5,0.5 l 0,9 c 0.2761,0 0.5,0.2239 0.5,0.5 0,0.2761 -0.2239,0.5 -0.5,0.5 -0.2761,0 -0.5,-0.2239 -0.5,-0.5 l -4,0 c 0,0.2761 -0.2239,0.5 -0.5,0.5 -0.2761,0 -0.5,-0.2239 -0.5,-0.5 0,-0.2761 0.2239,-0.5 0.5,-0.5 l 0,-9 c -0.2761,0 -0.5,-0.2239 -0.5,-0.5 z"
   id="path25"
   inkscape:connector-curvature="0"
   style="fill:none;stroke:#1f1a17;stroke-width:0.0762"
   sodipodi:nodetypes="ssccssccssccssccs" />
  <path
   d="M74.5 135c0,-0.2761 0.2239,-0.5 0.5,-0.5 0.2761,0 0.5,0.2239 0.5,0.5l4 0c0,-0.2761 0.2239,-0.5 0.5,-0.5 0.2761,0 0.5,0.2239 0.5,0.5 0,0.2761 -0.2239,0.5 -0.5,0.5l0 9c0.2761,0 0.5,0.2239 0.5,0.5 0,0.2761 -0.2239,0.5 -0.5,0.5 -0.2761,0 -0.5,-0.2239 -0.5,-0.5l-4 0c0,0.2761 -0.2239,0.5 -0.5,0.5 -0.2761,0 -0.5,-0.2239 -0.5,-0.5 0,-0.2761 0.2239,-0.5 0.5,-0.5l0 -9c-0.2761,0 -0.5,-0.2239 -0.5,-0.5z"
   id="path27"
   stroke-width="0.0762"
   stroke="#1F1A17"
   fill="none" />
  <path
   d="M74.5 155c0,-0.2761 0.2239,-0.5 0.5,-0.5 0.2761,0 0.5,0.2239 0.5,0.5l4 0c0,-0.2761 0.2239,-0.5 0.5,-0.5 0.2761,0 0.5,0.2239 0.5,0.5 0,0.2761 -0.2239,0.5 -0.5,0.5l0 9c0.2761,0 0.5,0.2239 0.5,0.5 0,0.2761 -0.2239,0.5 -0.5,0.5 -0.2761,0 -0.5,-0.2239 -0.5,-0.5l-4 0c0,0.2761 -0.2239,0.5 -0.5,0.5 -0.2761,0 -0.5,-0.2239 -0.5,-0.5 0,-0.2761 0.2239,-0.5 0.5,-0.5l0 -9c-0.2761,0 -0.5,-0.2239 -0.5,-0.5z"
   id="path29"
   stroke-width="0.0762"
   stroke="#1F1A17"
   fill="none" />
  <path
   d="M139.5 58c0,0.2761 -0.2239,0.5 -0.5,0.5 -0.2761,0 -0.5,-0.2239 -0.5,-0.5l-4 0c0,0.2761 -0.2239,0.5 -0.5,0.5 -0.2761,0 -0.5,-0.2239 -0.5,-0.5 0,-0.2761 0.2239,-0.5 0.5,-0.5l0 -9c-0.2761,0 -0.5,-0.2239 -0.5,-0.5 0,-0.2761 0.2239,-0.5 0.5,-0.5 0.2761,0 0.5,0.2239 0.5,0.5l4 0c0,-0.2761 0.2239,-0.5 0.5,-0.5 0.2761,0 0.5,0.2239 0.5,0.5 0,0.2761 -0.2239,0.5 -0.5,0.5l0 9c0.2761,0 0.5,0.2239 0.5,0.5z"
   id="path31"
   stroke-width="0.0762"
   stroke="#1F1A17"
   fill="none" />
  <path
   d="M139.5 38c0,0.2761 -0.2239,0.5 -0.5,0.5 -0.2761,0 -0.5,-0.2239 -0.5,-0.5l-4 0c0,0.2761 -0.2239,0.5 -0.5,0.5 -0.2761,0 -0.5,-0.2239 -0.5,-0.5 0,-0.2761 0.2239,-0.5 0.5,-0.5l0 -9c-0.2761,0 -0.5,-0.2239 -0.5,-0.5 0,-0.2761 0.2239,-0.5 0.5,-0.5 0.2761,0 0.5,0.2239 0.5,0.5l4 0c0,-0.2761 0.2239,-0.5 0.5,-0.5 0.2761,0 0.5,0.2239 0.5,0.5 0,0.2761 -0.2239,0.5 -0.5,0.5l0 9c0.2761,0 0.5,0.2239 0.5,0.5z"
   id="path33"
   stroke-width="0.0762"
   stroke="#1F1A17"
   fill="none" />
  <path
   d="M80.5 58c0,0.2761 -0.2239,0.5 -0.5,0.5 -0.2761,0 -0.5,-0.2239 -0.5,-0.5l-4 0c0,0.2761 -0.2239,0.5 -0.5,0.5 -0.2761,0 -0.5,-0.2239 -0.5,-0.5 0,-0.2761 0.2239,-0.5 0.5,-0.5l0 -9c-0.2761,0 -0.5,-0.2239 -0.5,-0.5 0,-0.2761 0.2239,-0.5 0.5,-0.5 0.2761,0 0.5,0.2239 0.5,0.5l4 0c0,-0.2761 0.2239,-0.5 0.5,-0.5 0.2761,0 0.5,0.2239 0.5,0.5 0,0.2761 -0.2239,0.5 -0.5,0.5l0 9c0.2761,0 0.5,0.2239 0.5,0.5z"
   id="path35"
   stroke-width="0.0762"
   stroke="#1F1A17"
   fill="none" />
  <path
   d="M80.5 38c0,0.2761 -0.2239,0.5 -0.5,0.5 -0.2761,0 -0.5,-0.2239 -0.5,-0.5l-4 0c0,0.2761 -0.2239,0.5 -0.5,0.5 -0.2761,0 -0.5,-0.2239 -0.5,-0.5 0,-0.2761 0.2239,-0.5 0.5,-0.5l0 -9c-0.2761,0 -0.5,-0.2239 -0.5,-0.5 0,-0.2761 0.2239,-0.5 0.5,-0.5 0.2761,0 0.5,0.2239 0.5,0.5l4 0c0,-0.2761 0.2239,-0.5 0.5,-0.5 0.2761,0 0.5,0.2239 0.5,0.5 0,0.2761 -0.2239,0.5 -0.5,0.5l0 9c0.2761,0 0.5,0.2239 0.5,0.5z"
   id="path37"
   stroke-width="0.0762"
   stroke="#1F1A17"
   fill="none" />
  <path
   style="fill:none;stroke:#1f1a17;stroke-width:0.0762"
   d="m 400,0 0,299.99972 -400,0 L 0,0 z"
   id="polygon39"
   inkscape:connector-curvature="0"
   sodipodi:nodetypes="ccccc" />
  <path
   d="M8.5 65c0,0.2761 -0.2239,0.5 -0.5,0.5 -0.2761,0 -0.5,-0.2239 -0.5,-0.5l-4 0c0,0.2761 -0.2239,0.5 -0.5,0.5 -0.2761,0 -0.5,-0.2239 -0.5,-0.5 0,-0.2761 0.2239,-0.5 0.5,-0.5l0 -9c-0.2761,0 -0.5,-0.2239 -0.5,-0.5 0,-0.2761 0.2239,-0.5 0.5,-0.5 0.2761,0 0.5,0.2239 0.5,0.5l4 0c0,-0.2761 0.2239,-0.5 0.5,-0.5 0.2761,0 0.5,0.2239 0.5,0.5 0,0.2761 -0.2239,0.5 -0.5,0.5l0 9c0.2761,0 0.5,0.2239 0.5,0.5z"
   id="path41"
   stroke-width="0.0762"
   stroke="#1F1A17"
   fill="none" />
  <path
   d="M8.5 25c0,0.2761 -0.2239,0.5 -0.5,0.5 -0.2761,0 -0.5,-0.2239 -0.5,-0.5l-4 0c0,0.2761 -0.2239,0.5 -0.5,0.5 -0.2761,0 -0.5,-0.2239 -0.5,-0.5 0,-0.2761 0.2239,-0.5 0.5,-0.5l0 -9c-0.2761,0 -0.5,-0.2239 -0.5,-0.5 0,-0.2761 0.2239,-0.5 0.5,-0.5 0.2761,0 0.5,0.2239 0.5,0.5l4 0c0,-0.2761 0.2239,-0.5 0.5,-0.5 0.2761,0 0.5,0.2239 0.5,0.5 0,0.2761 -0.2239,0.5 -0.5,0.5l0 9c0.2761,0 0.5,0.2239 0.5,0.5z"
   id="path43"
   stroke-width="0.0762"
   stroke="#1F1A17"
   fill="none" />
  <path
   d="M8.5 85c0,0.2761 -0.2239,0.5 -0.5,0.5 -0.2761,0 -0.5,-0.2239 -0.5,-0.5l-4 0c0,0.2761 -0.2239,0.5 -0.5,0.5 -0.2761,0 -0.5,-0.2239 -0.5,-0.5 0,-0.2761 0.2239,-0.5 0.5,-0.5l0 -9c-0.2761,0 -0.5,-0.2239 -0.5,-0.5 0,-0.2761 0.2239,-0.5 0.5,-0.5 0.2761,0 0.5,0.2239 0.5,0.5l4 0c0,-0.2761 0.2239,-0.5 0.5,-0.5 0.2761,0 0.5,0.2239 0.5,0.5 0,0.2761 -0.2239,0.5 -0.5,0.5l0 9c0.2761,0 0.5,0.2239 0.5,0.5z"
   id="path45"
   stroke-width="0.0762"
   stroke="#1F1A17"
   fill="none" />
  <path
   d="M8.5 45c0,0.2761 -0.2239,0.5 -0.5,0.5 -0.2761,0 -0.5,-0.2239 -0.5,-0.5l-4 0c0,0.2761 -0.2239,0.5 -0.5,0.5 -0.2761,0 -0.5,-0.2239 -0.5,-0.5 0,-0.2761 0.2239,-0.5 0.5,-0.5l0 -9c-0.2761,0 -0.5,-0.2239 -0.5,-0.5 0,-0.2761 0.2239,-0.5 0.5,-0.5 0.2761,0 0.5,0.2239 0.5,0.5l4 0c0,-0.2761 0.2239,-0.5 0.5,-0.5 0.2761,0 0.5,0.2239 0.5,0.5 0,0.2761 -0.2239,0.5 -0.5,0.5l0 9c0.2761,0 0.5,0.2239 0.5,0.5z"
   id="path47"
   stroke-width="0.0762"
   stroke="#1F1A17"
   fill="none" />
  <path
   d="M8.5 105c0,0.2761 -0.2239,0.5 -0.5,0.5 -0.2761,0 -0.5,-0.2239 -0.5,-0.5l-4 0c0,0.2761 -0.2239,0.5 -0.5,0.5 -0.2761,0 -0.5,-0.2239 -0.5,-0.5 0,-0.2761 0.2239,-0.5 0.5,-0.5l0 -9c-0.2761,0 -0.5,-0.2239 -0.5,-0.5 0,-0.2761 0.2239,-0.5 0.5,-0.5 0.2761,0 0.5,0.2239 0.5,0.5l4 0c0,-0.2761 0.2239,-0.5 0.5,-0.5 0.2761,0 0.5,0.2239 0.5,0.5 0,0.2761 -0.2239,0.5 -0.5,0.5l0 9c0.2761,0 0.5,0.2239 0.5,0.5z"
   id="path49"
   stroke-width="0.0762"
   stroke="#1F1A17"
   fill="none" />
  <path
   d="M8.5 125c0,0.2761 -0.2239,0.5 -0.5,0.5 -0.2761,0 -0.5,-0.2239 -0.5,-0.5l-4 0c0,0.2761 -0.2239,0.5 -0.5,0.5 -0.2761,0 -0.5,-0.2239 -0.5,-0.5 0,-0.2761 0.2239,-0.5 0.5,-0.5l0 -9c-0.2761,0 -0.5,-0.2239 -0.5,-0.5 0,-0.2761 0.2239,-0.5 0.5,-0.5 0.2761,0 0.5,0.2239 0.5,0.5l4 0c0,-0.2761 0.2239,-0.5 0.5,-0.5 0.2761,0 0.5,0.2239 0.5,0.5 0,0.2761 -0.2239,0.5 -0.5,0.5l0 9c0.2761,0 0.5,0.2239 0.5,0.5z"
   id="path51"
   stroke-width="0.0762"
   stroke="#1F1A17"
   fill="none" />
  <path
   d="M8.5 145c0,0.2761 -0.2239,0.5 -0.5,0.5 -0.2761,0 -0.5,-0.2239 -0.5,-0.5l-4 0c0,0.2761 -0.2239,0.5 -0.5,0.5 -0.2761,0 -0.5,-0.2239 -0.5,-0.5 0,-0.2761 0.2239,-0.5 0.5,-0.5l0 -9c-0.2761,0 -0.5,-0.2239 -0.5,-0.5 0,-0.2761 0.2239,-0.5 0.5,-0.5 0.2761,0 0.5,0.2239 0.5,0.5l4 0c0,-0.2761 0.2239,-0.5 0.5,-0.5 0.2761,0 0.5,0.2239 0.5,0.5 0,0.2761 -0.2239,0.5 -0.5,0.5l0 9c0.2761,0 0.5,0.2239 0.5,0.5z"
   id="path53"
   stroke-width="0.0762"
   stroke="#1F1A17"
   fill="none" />
  <path
   d="M8.5 205c0,0.2761 -0.2239,0.5 -0.5,0.5 -0.2761,0 -0.5,-0.2239 -0.5,-0.5l-4 0c0,0.2761 -0.2239,0.5 -0.5,0.5 -0.2761,0 -0.5,-0.2239 -0.5,-0.5 0,-0.2761 0.2239,-0.5 0.5,-0.5l0 -9c-0.2761,0 -0.5,-0.2239 -0.5,-0.5 0,-0.2761 0.2239,-0.5 0.5,-0.5 0.2761,0 0.5,0.2239 0.5,0.5l4 0c0,-0.2761 0.2239,-0.5 0.5,-0.5 0.2761,0 0.5,0.2239 0.5,0.5 0,0.2761 -0.2239,0.5 -0.5,0.5l0 9c0.2761,0 0.5,0.2239 0.5,0.5z"
   id="path55"
   stroke-width="0.0762"
   stroke="#1F1A17"
   fill="none" />
  <path
   d="M8.5 165c0,0.2761 -0.2239,0.5 -0.5,0.5 -0.2761,0 -0.5,-0.2239 -0.5,-0.5l-4 0c0,0.2761 -0.2239,0.5 -0.5,0.5 -0.2761,0 -0.5,-0.2239 -0.5,-0.5 0,-0.2761 0.2239,-0.5 0.5,-0.5l0 -9c-0.2761,0 -0.5,-0.2239 -0.5,-0.5 0,-0.2761 0.2239,-0.5 0.5,-0.5 0.2761,0 0.5,0.2239 0.5,0.5l4 0c0,-0.2761 0.2239,-0.5 0.5,-0.5 0.2761,0 0.5,0.2239 0.5,0.5 0,0.2761 -0.2239,0.5 -0.5,0.5l0 9c0.2761,0 0.5,0.2239 0.5,0.5z"
   id="path57"
   stroke-width="0.0762"
   stroke="#1F1A17"
   fill="none" />
  <path
   d="M8.5 225c0,0.2761 -0.2239,0.5 -0.5,0.5 -0.2761,0 -0.5,-0.2239 -0.5,-0.5l-4 0c0,0.2761 -0.2239,0.5 -0.5,0.5 -0.2761,0 -0.5,-0.2239 -0.5,-0.5 0,-0.2761 0.2239,-0.5 0.5,-0.5l0 -9c-0.2761,0 -0.5,-0.2239 -0.5,-0.5 0,-0.2761 0.2239,-0.5 0.5,-0.5 0.2761,0 0.5,0.2239 0.5,0.5l4 0c0,-0.2761 0.2239,-0.5 0.5,-0.5 0.2761,0 0.5,0.2239 0.5,0.5 0,0.2761 -0.2239,0.5 -0.5,0.5l0 9c0.2761,0 0.5,0.2239 0.5,0.5z"
   id="path59"
   stroke-width="0.0762"
   stroke="#1F1A17"
   fill="none" />
  <path
   d="M8.5 185c0,0.2761 -0.2239,0.5 -0.5,0.5 -0.2761,0 -0.5,-0.2239 -0.5,-0.5l-4 0c0,0.2761 -0.2239,0.5 -0.5,0.5 -0.2761,0 -0.5,-0.2239 -0.5,-0.5 0,-0.2761 0.2239,-0.5 0.5,-0.5l0 -9c-0.2761,0 -0.5,-0.2239 -0.5,-0.5 0,-0.2761 0.2239,-0.5 0.5,-0.5 0.2761,0 0.5,0.2239 0.5,0.5l4 0c0,-0.2761 0.2239,-0.5 0.5,-0.5 0.2761,0 0.5,0.2239 0.5,0.5 0,0.2761 -0.2239,0.5 -0.5,0.5l0 9c0.2761,0 0.5,0.2239 0.5,0.5z"
   id="path61"
   stroke-width="0.0762"
   stroke="#1F1A17"
   fill="none" />
  <path
   d="M8.5 245c0,0.2761 -0.2239,0.5 -0.5,0.5 -0.2761,0 -0.5,-0.2239 -0.5,-0.5l-4 0c0,0.2761 -0.2239,0.5 -0.5,0.5 -0.2761,0 -0.5,-0.2239 -0.5,-0.5 0,-0.2761 0.2239,-0.5 0.5,-0.5l0 -9c-0.2761,0 -0.5,-0.2239 -0.5,-0.5 0,-0.2761 0.2239,-0.5 0.5,-0.5 0.2761,0 0.5,0.2239 0.5,0.5l4 0c0,-0.2761 0.2239,-0.5 0.5,-0.5 0.2761,0 0.5,0.2239 0.5,0.5 0,0.2761 -0.2239,0.5 -0.5,0.5l0 9c0.2761,0 0.5,0.2239 0.5,0.5z"
   id="path63"
   stroke-width="0.0762"
   stroke="#1F1A17"
   fill="none" />
  <path
   d="M8.5 265c0,0.2761 -0.2239,0.5 -0.5,0.5 -0.2761,0 -0.5,-0.2239 -0.5,-0.5l-4 0c0,0.2761 -0.2239,0.5 -0.5,0.5 -0.2761,0 -0.5,-0.2239 -0.5,-0.5 0,-0.2761 0.2239,-0.5 0.5,-0.5l0 -9c-0.2761,0 -0.5,-0.2239 -0.5,-0.5 0,-0.2761 0.2239,-0.5 0.5,-0.5 0.2761,0 0.5,0.2239 0.5,0.5l4 0c0,-0.2761 0.2239,-0.5 0.5,-0.5 0.2761,0 0.5,0.2239 0.5,0.5 0,0.2761 -0.2239,0.5 -0.5,0.5l0 9c0.2761,0 0.5,0.2239 0.5,0.5z"
   id="path65"
   stroke-width="0.0762"
   stroke="#1F1A17"
   fill="none" />
  <path
   d="M8.5 285c0,0.2761 -0.2239,0.5 -0.5,0.5 -0.2761,0 -0.5,-0.2239 -0.5,-0.5l-4 0c0,0.2761 -0.2239,0.5 -0.5,0.5 -0.2761,0 -0.5,-0.2239 -0.5,-0.5 0,-0.2761 0.2239,-0.5 0.5,-0.5l0 -9c-0.2761,0 -0.5,-0.2239 -0.5,-0.5 0,-0.2761 0.2239,-0.5 0.5,-0.5 0.2761,0 0.5,0.2239 0.5,0.5l4 0c0,-0.2761 0.2239,-0.5 0.5,-0.5 0.2761,0 0.5,0.2239 0.5,0.5 0,0.2761 -0.2239,0.5 -0.5,0.5l0 9c0.2761,0 0.5,0.2239 0.5,0.5z"
   id="path67"
   stroke-width="0.0762"
   stroke="#1F1A17"
   fill="none" />
  <path
   d="M397.5 65c0,0.2761 -0.2239,0.5 -0.5,0.5 -0.2761,0 -0.5,-0.2239 -0.5,-0.5l-4 0c0,0.2761 -0.2239,0.5 -0.5,0.5 -0.2761,0 -0.5,-0.2239 -0.5,-0.5 0,-0.2761 0.2239,-0.5 0.5,-0.5l0 -9c-0.2761,0 -0.5,-0.2239 -0.5,-0.5 0,-0.2761 0.2239,-0.5 0.5,-0.5 0.2761,0 0.5,0.2239 0.5,0.5l4 0c0,-0.2761 0.2239,-0.5 0.5,-0.5 0.2761,0 0.5,0.2239 0.5,0.5 0,0.2761 -0.2239,0.5 -0.5,0.5l0 9c0.2761,0 0.5,0.2239 0.5,0.5z"
   id="path69"
   stroke-width="0.0762"
   stroke="#1F1A17"
   fill="none" />
  <path
   d="M397.5 25c0,0.2761 -0.2239,0.5 -0.5,0.5 -0.2761,0 -0.5,-0.2239 -0.5,-0.5l-4 0c0,0.2761 -0.2239,0.5 -0.5,0.5 -0.2761,0 -0.5,-0.2239 -0.5,-0.5 0,-0.2761 0.2239,-0.5 0.5,-0.5l0 -9c-0.2761,0 -0.5,-0.2239 -0.5,-0.5 0,-0.2761 0.2239,-0.5 0.5,-0.5 0.2761,0 0.5,0.2239 0.5,0.5l4 0c0,-0.2761 0.2239,-0.5 0.5,-0.5 0.2761,0 0.5,0.2239 0.5,0.5 0,0.2761 -0.2239,0.5 -0.5,0.5l0 9c0.2761,0 0.5,0.2239 0.5,0.5z"
   id="path71"
   stroke-width="0.0762"
   stroke="#1F1A17"
   fill="none" />
  <path
   d="M397.5 85c0,0.2761 -0.2239,0.5 -0.5,0.5 -0.2761,0 -0.5,-0.2239 -0.5,-0.5l-4 0c0,0.2761 -0.2239,0.5 -0.5,0.5 -0.2761,0 -0.5,-0.2239 -0.5,-0.5 0,-0.2761 0.2239,-0.5 0.5,-0.5l0 -9c-0.2761,0 -0.5,-0.2239 -0.5,-0.5 0,-0.2761 0.2239,-0.5 0.5,-0.5 0.2761,0 0.5,0.2239 0.5,0.5l4 0c0,-0.2761 0.2239,-0.5 0.5,-0.5 0.2761,0 0.5,0.2239 0.5,0.5 0,0.2761 -0.2239,0.5 -0.5,0.5l0 9c0.2761,0 0.5,0.2239 0.5,0.5z"
   id="path73"
   stroke-width="0.0762"
   stroke="#1F1A17"
   fill="none" />
  <path
   d="M397.5 45c0,0.2761 -0.2239,0.5 -0.5,0.5 -0.2761,0 -0.5,-0.2239 -0.5,-0.5l-4 0c0,0.2761 -0.2239,0.5 -0.5,0.5 -0.2761,0 -0.5,-0.2239 -0.5,-0.5 0,-0.2761 0.2239,-0.5 0.5,-0.5l0 -9c-0.2761,0 -0.5,-0.2239 -0.5,-0.5 0,-0.2761 0.2239,-0.5 0.5,-0.5 0.2761,0 0.5,0.2239 0.5,0.5l4 0c0,-0.2761 0.2239,-0.5 0.5,-0.5 0.2761,0 0.5,0.2239 0.5,0.5 0,0.2761 -0.2239,0.5 -0.5,0.5l0 9c0.2761,0 0.5,0.2239 0.5,0.5z"
   id="path75"
   stroke-width="0.0762"
   stroke="#1F1A17"
   fill="none" />
  <path
   d="M397.5 105c0,0.2761 -0.2239,0.5 -0.5,0.5 -0.2761,0 -0.5,-0.2239 -0.5,-0.5l-4 0c0,0.2761 -0.2239,0.5 -0.5,0.5 -0.2761,0 -0.5,-0.2239 -0.5,-0.5 0,-0.2761 0.2239,-0.5 0.5,-0.5l0 -9c-0.2761,0 -0.5,-0.2239 -0.5,-0.5 0,-0.2761 0.2239,-0.5 0.5,-0.5 0.2761,0 0.5,0.2239 0.5,0.5l4 0c0,-0.2761 0.2239,-0.5 0.5,-0.5 0.2761,0 0.5,0.2239 0.5,0.5 0,0.2761 -0.2239,0.5 -0.5,0.5l0 9c0.2761,0 0.5,0.2239 0.5,0.5z"
   id="path77"
   stroke-width="0.0762"
   stroke="#1F1A17"
   fill="none" />
  <path
   d="M397.5 125c0,0.2761 -0.2239,0.5 -0.5,0.5 -0.2761,0 -0.5,-0.2239 -0.5,-0.5l-4 0c0,0.2761 -0.2239,0.5 -0.5,0.5 -0.2761,0 -0.5,-0.2239 -0.5,-0.5 0,-0.2761 0.2239,-0.5 0.5,-0.5l0 -9c-0.2761,0 -0.5,-0.2239 -0.5,-0.5 0,-0.2761 0.2239,-0.5 0.5,-0.5 0.2761,0 0.5,0.2239 0.5,0.5l4 0c0,-0.2761 0.2239,-0.5 0.5,-0.5 0.2761,0 0.5,0.2239 0.5,0.5 0,0.2761 -0.2239,0.5 -0.5,0.5l0 9c0.2761,0 0.5,0.2239 0.5,0.5z"
   id="path79"
   stroke-width="0.0762"
   stroke="#1F1A17"
   fill="none" />
  <path
   d="M397.5 145c0,0.2761 -0.2239,0.5 -0.5,0.5 -0.2761,0 -0.5,-0.2239 -0.5,-0.5l-4 0c0,0.2761 -0.2239,0.5 -0.5,0.5 -0.2761,0 -0.5,-0.2239 -0.5,-0.5 0,-0.2761 0.2239,-0.5 0.5,-0.5l0 -9c-0.2761,0 -0.5,-0.2239 -0.5,-0.5 0,-0.2761 0.2239,-0.5 0.5,-0.5 0.2761,0 0.5,0.2239 0.5,0.5l4 0c0,-0.2761 0.2239,-0.5 0.5,-0.5 0.2761,0 0.5,0.2239 0.5,0.5 0,0.2761 -0.2239,0.5 -0.5,0.5l0 9c0.2761,0 0.5,0.2239 0.5,0.5z"
   id="path81"
   stroke-width="0.0762"
   stroke="#1F1A17"
   fill="none" />
  <path
   d="M397.5 205c0,0.2761 -0.2239,0.5 -0.5,0.5 -0.2761,0 -0.5,-0.2239 -0.5,-0.5l-4 0c0,0.2761 -0.2239,0.5 -0.5,0.5 -0.2761,0 -0.5,-0.2239 -0.5,-0.5 0,-0.2761 0.2239,-0.5 0.5,-0.5l0 -9c-0.2761,0 -0.5,-0.2239 -0.5,-0.5 0,-0.2761 0.2239,-0.5 0.5,-0.5 0.2761,0 0.5,0.2239 0.5,0.5l4 0c0,-0.2761 0.2239,-0.5 0.5,-0.5 0.2761,0 0.5,0.2239 0.5,0.5 0,0.2761 -0.2239,0.5 -0.5,0.5l0 9c0.2761,0 0.5,0.2239 0.5,0.5z"
   id="path83"
   stroke-width="0.0762"
   stroke="#1F1A17"
   fill="none" />
  <path
   d="M397.5 165c0,0.2761 -0.2239,0.5 -0.5,0.5 -0.2761,0 -0.5,-0.2239 -0.5,-0.5l-4 0c0,0.2761 -0.2239,0.5 -0.5,0.5 -0.2761,0 -0.5,-0.2239 -0.5,-0.5 0,-0.2761 0.2239,-0.5 0.5,-0.5l0 -9c-0.2761,0 -0.5,-0.2239 -0.5,-0.5 0,-0.2761 0.2239,-0.5 0.5,-0.5 0.2761,0 0.5,0.2239 0.5,0.5l4 0c0,-0.2761 0.2239,-0.5 0.5,-0.5 0.2761,0 0.5,0.2239 0.5,0.5 0,0.2761 -0.2239,0.5 -0.5,0.5l0 9c0.2761,0 0.5,0.2239 0.5,0.5z"
   id="path85"
   stroke-width="0.0762"
   stroke="#1F1A17"
   fill="none" />
  <path
   d="M397.5 225c0,0.2761 -0.2239,0.5 -0.5,0.5 -0.2761,0 -0.5,-0.2239 -0.5,-0.5l-4 0c0,0.2761 -0.2239,0.5 -0.5,0.5 -0.2761,0 -0.5,-0.2239 -0.5,-0.5 0,-0.2761 0.2239,-0.5 0.5,-0.5l0 -9c-0.2761,0 -0.5,-0.2239 -0.5,-0.5 0,-0.2761 0.2239,-0.5 0.5,-0.5 0.2761,0 0.5,0.2239 0.5,0.5l4 0c0,-0.2761 0.2239,-0.5 0.5,-0.5 0.2761,0 0.5,0.2239 0.5,0.5 0,0.2761 -0.2239,0.5 -0.5,0.5l0 9c0.2761,0 0.5,0.2239 0.5,0.5z"
   id="path87"
   stroke-width="0.0762"
   stroke="#1F1A17"
   fill="none" />
  <path
   d="M397.5 185c0,0.2761 -0.2239,0.5 -0.5,0.5 -0.2761,0 -0.5,-0.2239 -0.5,-0.5l-4 0c0,0.2761 -0.2239,0.5 -0.5,0.5 -0.2761,0 -0.5,-0.2239 -0.5,-0.5 0,-0.2761 0.2239,-0.5 0.5,-0.5l0 -9c-0.2761,0 -0.5,-0.2239 -0.5,-0.5 0,-0.2761 0.2239,-0.5 0.5,-0.5 0.2761,0 0.5,0.2239 0.5,0.5l4 0c0,-0.2761 0.2239,-0.5 0.5,-0.5 0.2761,0 0.5,0.2239 0.5,0.5 0,0.2761 -0.2239,0.5 -0.5,0.5l0 9c0.2761,0 0.5,0.2239 0.5,0.5z"
   id="path89"
   stroke-width="0.0762"
   stroke="#1F1A17"
   fill="none" />
  <path
   d="M397.5 245c0,0.2761 -0.2239,0.5 -0.5,0.5 -0.2761,0 -0.5,-0.2239 -0.5,-0.5l-4 0c0,0.2761 -0.2239,0.5 -0.5,0.5 -0.2761,0 -0.5,-0.2239 -0.5,-0.5 0,-0.2761 0.2239,-0.5 0.5,-0.5l0 -9c-0.2761,0 -0.5,-0.2239 -0.5,-0.5 0,-0.2761 0.2239,-0.5 0.5,-0.5 0.2761,0 0.5,0.2239 0.5,0.5l4 0c0,-0.2761 0.2239,-0.5 0.5,-0.5 0.2761,0 0.5,0.2239 0.5,0.5 0,0.2761 -0.2239,0.5 -0.5,0.5l0 9c0.2761,0 0.5,0.2239 0.5,0.5z"
   id="path91"
   stroke-width="0.0762"
   stroke="#1F1A17"
   fill="none" />
  <path
   d="M397.5 265c0,0.2761 -0.2239,0.5 -0.5,0.5 -0.2761,0 -0.5,-0.2239 -0.5,-0.5l-4 0c0,0.2761 -0.2239,0.5 -0.5,0.5 -0.2761,0 -0.5,-0.2239 -0.5,-0.5 0,-0.2761 0.2239,-0.5 0.5,-0.5l0 -9c-0.2761,0 -0.5,-0.2239 -0.5,-0.5 0,-0.2761 0.2239,-0.5 0.5,-0.5 0.2761,0 0.5,0.2239 0.5,0.5l4 0c0,-0.2761 0.2239,-0.5 0.5,-0.5 0.2761,0 0.5,0.2239 0.5,0.5 0,0.2761 -0.2239,0.5 -0.5,0.5l0 9c0.2761,0 0.5,0.2239 0.5,0.5z"
   id="path93"
   stroke-width="0.0762"
   stroke="#1F1A17"
   fill="none" />
  <path
   d="M397.5 285c0,0.2761 -0.2239,0.5 -0.5,0.5 -0.2761,0 -0.5,-0.2239 -0.5,-0.5l-4 0c0,0.2761 -0.2239,0.5 -0.5,0.5 -0.2761,0 -0.5,-0.2239 -0.5,-0.5 0,-0.2761 0.2239,-0.5 0.5,-0.5l0 -9c-0.2761,0 -0.5,-0.2239 -0.5,-0.5 0,-0.2761 0.2239,-0.5 0.5,-0.5 0.2761,0 0.5,0.2239 0.5,0.5l4 0c0,-0.2761 0.2239,-0.5 0.5,-0.5 0.2761,0 0.5,0.2239 0.5,0.5 0,0.2761 -0.2239,0.5 -0.5,0.5l0 9c0.2761,0 0.5,0.2239 0.5,0.5z"
   id="path95"
   stroke-width="0.0762"
   stroke="#1F1A17"
   fill="none" />
  <path
   d="M332 8.5c-0.2761,0 -0.5,-0.2239 -0.5,-0.5 0,-0.2761 0.2239,-0.5 0.5,-0.5l0 -4c-0.2761,0 -0.5,-0.2239 -0.5,-0.5 0,-0.2761 0.2239,-0.5 0.5,-0.5 0.2761,0 0.5,0.2239 0.5,0.5l9 0c0,-0.2761 0.2239,-0.5 0.5,-0.5 0.2761,0 0.5,0.2239 0.5,0.5 0,0.2761 -0.2239,0.5 -0.5,0.5l0 4c0.2761,0 0.5,0.2239 0.5,0.5 0,0.2761 -0.2239,0.5 -0.5,0.5 -0.2761,0 -0.5,-0.2239 -0.5,-0.5l-9 0c0,0.2761 -0.2239,0.5 -0.5,0.5z"
   id="path97"
   stroke-width="0.0762"
   stroke="#1F1A17"
   fill="none" />
  <path
   d="M372 8.5c-0.2761,0 -0.5,-0.2239 -0.5,-0.5 0,-0.2761 0.2239,-0.5 0.5,-0.5l0 -4c-0.2761,0 -0.5,-0.2239 -0.5,-0.5 0,-0.2761 0.2239,-0.5 0.5,-0.5 0.2761,0 0.5,0.2239 0.5,0.5l9 0c0,-0.2761 0.2239,-0.5 0.5,-0.5 0.2761,0 0.5,0.2239 0.5,0.5 0,0.2761 -0.2239,0.5 -0.5,0.5l0 4c0.2761,0 0.5,0.2239 0.5,0.5 0,0.2761 -0.2239,0.5 -0.5,0.5 -0.2761,0 -0.5,-0.2239 -0.5,-0.5l-9 0c0,0.2761 -0.2239,0.5 -0.5,0.5z"
   id="path99"
   stroke-width="0.0762"
   stroke="#1F1A17"
   fill="none" />
  <path
   d="M312 8.5c-0.2761,0 -0.5,-0.2239 -0.5,-0.5 0,-0.2761 0.2239,-0.5 0.5,-0.5l0 -4c-0.2761,0 -0.5,-0.2239 -0.5,-0.5 0,-0.2761 0.2239,-0.5 0.5,-0.5 0.2761,0 0.5,0.2239 0.5,0.5l9 0c0,-0.2761 0.2239,-0.5 0.5,-0.5 0.2761,0 0.5,0.2239 0.5,0.5 0,0.2761 -0.2239,0.5 -0.5,0.5l0 4c0.2761,0 0.5,0.2239 0.5,0.5 0,0.2761 -0.2239,0.5 -0.5,0.5 -0.2761,0 -0.5,-0.2239 -0.5,-0.5l-9 0c0,0.2761 -0.2239,0.5 -0.5,0.5z"
   id="path101"
   stroke-width="0.0762"
   stroke="#1F1A17"
   fill="none" />
  <path
   d="M352 8.5c-0.2761,0 -0.5,-0.2239 -0.5,-0.5 0,-0.2761 0.2239,-0.5 0.5,-0.5l0 -4c-0.2761,0 -0.5,-0.2239 -0.5,-0.5 0,-0.2761 0.2239,-0.5 0.5,-0.5 0.2761,0 0.5,0.2239 0.5,0.5l9 0c0,-0.2761 0.2239,-0.5 0.5,-0.5 0.2761,0 0.5,0.2239 0.5,0.5 0,0.2761 -0.2239,0.5 -0.5,0.5l0 4c0.2761,0 0.5,0.2239 0.5,0.5 0,0.2761 -0.2239,0.5 -0.5,0.5 -0.2761,0 -0.5,-0.2239 -0.5,-0.5l-9 0c0,0.2761 -0.2239,0.5 -0.5,0.5z"
   id="path103"
   stroke-width="0.0762"
   stroke="#1F1A17"
   fill="none" />
  <path
   d="M292 8.5c-0.2761,0 -0.5,-0.2239 -0.5,-0.5 0,-0.2761 0.2239,-0.5 0.5,-0.5l0 -4c-0.2761,0 -0.5,-0.2239 -0.5,-0.5 0,-0.2761 0.2239,-0.5 0.5,-0.5 0.2761,0 0.5,0.2239 0.5,0.5l9 0c0,-0.2761 0.2239,-0.5 0.5,-0.5 0.2761,0 0.5,0.2239 0.5,0.5 0,0.2761 -0.2239,0.5 -0.5,0.5l0 4c0.2761,0 0.5,0.2239 0.5,0.5 0,0.2761 -0.2239,0.5 -0.5,0.5 -0.2761,0 -0.5,-0.2239 -0.5,-0.5l-9 0c0,0.2761 -0.2239,0.5 -0.5,0.5z"
   id="path105"
   stroke-width="0.0762"
   stroke="#1F1A17"
   fill="none" />
  <path
   d="M272 8.5c-0.2761,0 -0.5,-0.2239 -0.5,-0.5 0,-0.2761 0.2239,-0.5 0.5,-0.5l0 -4c-0.2761,0 -0.5,-0.2239 -0.5,-0.5 0,-0.2761 0.2239,-0.5 0.5,-0.5 0.2761,0 0.5,0.2239 0.5,0.5l9 0c0,-0.2761 0.2239,-0.5 0.5,-0.5 0.2761,0 0.5,0.2239 0.5,0.5 0,0.2761 -0.2239,0.5 -0.5,0.5l0 4c0.2761,0 0.5,0.2239 0.5,0.5 0,0.2761 -0.2239,0.5 -0.5,0.5 -0.2761,0 -0.5,-0.2239 -0.5,-0.5l-9 0c0,0.2761 -0.2239,0.5 -0.5,0.5z"
   id="path107"
   stroke-width="0.0762"
   stroke="#1F1A17"
   fill="none" />
  <path
   d="M252 8.5c-0.2761,0 -0.5,-0.2239 -0.5,-0.5 0,-0.2761 0.2239,-0.5 0.5,-0.5l0 -4c-0.2761,0 -0.5,-0.2239 -0.5,-0.5 0,-0.2761 0.2239,-0.5 0.5,-0.5 0.2761,0 0.5,0.2239 0.5,0.5l9 0c0,-0.2761 0.2239,-0.5 0.5,-0.5 0.2761,0 0.5,0.2239 0.5,0.5 0,0.2761 -0.2239,0.5 -0.5,0.5l0 4c0.2761,0 0.5,0.2239 0.5,0.5 0,0.2761 -0.2239,0.5 -0.5,0.5 -0.2761,0 -0.5,-0.2239 -0.5,-0.5l-9 0c0,0.2761 -0.2239,0.5 -0.5,0.5z"
   id="path109"
   stroke-width="0.0762"
   stroke="#1F1A17"
   fill="none" />
  
  <path
   d="M232 8.5c-0.2761,0 -0.5,-0.2239 -0.5,-0.5 0,-0.2761 0.2239,-0.5 0.5,-0.5l0 -4c-0.2761,0 -0.5,-0.2239 -0.5,-0.5 0,-0.2761 0.2239,-0.5 0.5,-0.5 0.2761,0 0.5,0.2239 0.5,0.5l9 0c0,-0.2761 0.2239,-0.5 0.5,-0.5 0.2761,0 0.5,0.2239 0.5,0.5 0,0.2761 -0.2239,0.5 -0.5,0.5l0 4c0.2761,0 0.5,0.2239 0.5,0.5 0,0.2761 -0.2239,0.5 -0.5,0.5 -0.2761,0 -0.5,-0.2239 -0.5,-0.5l-9 0c0,0.2761 -0.2239,0.5 -0.5,0.5z"
   id="path113"
   stroke-width="0.0762"
   stroke="#1F1A17"
   fill="none" />
  
  
  <path
   d="M152 8.5c-0.2761,0 -0.5,-0.2239 -0.5,-0.5 0,-0.2761 0.2239,-0.5 0.5,-0.5l0 -4c-0.2761,0 -0.5,-0.2239 -0.5,-0.5 0,-0.2761 0.2239,-0.5 0.5,-0.5 0.2761,0 0.5,0.2239 0.5,0.5l9 0c0,-0.2761 0.2239,-0.5 0.5,-0.5 0.2761,0 0.5,0.2239 0.5,0.5 0,0.2761 -0.2239,0.5 -0.5,0.5l0 4c0.2761,0 0.5,0.2239 0.5,0.5 0,0.2761 -0.2239,0.5 -0.5,0.5 -0.2761,0 -0.5,-0.2239 -0.5,-0.5l-9 0c0,0.2761 -0.2239,0.5 -0.5,0.5z"
   id="path119"
   stroke-width="0.0762"
   stroke="#1F1A17"
   fill="none" />
  <path
   d="M132 8.5c-0.2761,0 -0.5,-0.2239 -0.5,-0.5 0,-0.2761 0.2239,-0.5 0.5,-0.5l0 -4c-0.2761,0 -0.5,-0.2239 -0.5,-0.5 0,-0.2761 0.2239,-0.5 0.5,-0.5 0.2761,0 0.5,0.2239 0.5,0.5l9 0c0,-0.2761 0.2239,-0.5 0.5,-0.5 0.2761,0 0.5,0.2239 0.5,0.5 0,0.2761 -0.2239,0.5 -0.5,0.5l0 4c0.2761,0 0.5,0.2239 0.5,0.5 0,0.2761 -0.2239,0.5 -0.5,0.5 -0.2761,0 -0.5,-0.2239 -0.5,-0.5l-9 0c0,0.2761 -0.2239,0.5 -0.5,0.5z"
   id="path121"
   stroke-width="0.0762"
   stroke="#1F1A17"
   fill="none" />
  <path
   d="M112 8.5c-0.2761,0 -0.5,-0.2239 -0.5,-0.5 0,-0.2761 0.2239,-0.5 0.5,-0.5l0 -4c-0.2761,0 -0.5,-0.2239 -0.5,-0.5 0,-0.2761 0.2239,-0.5 0.5,-0.5 0.2761,0 0.5,0.2239 0.5,0.5l9 0c0,-0.2761 0.2239,-0.5 0.5,-0.5 0.2761,0 0.5,0.2239 0.5,0.5 0,0.2761 -0.2239,0.5 -0.5,0.5l0 4c0.2761,0 0.5,0.2239 0.5,0.5 0,0.2761 -0.2239,0.5 -0.5,0.5 -0.2761,0 -0.5,-0.2239 -0.5,-0.5l-9 0c0,0.2761 -0.2239,0.5 -0.5,0.5z"
   id="path123"
   stroke-width="0.0762"
   stroke="#1F1A17"
   fill="none" />
  <path
   d="M72 8.5c-0.2761,0 -0.5,-0.2239 -0.5,-0.5 0,-0.2761 0.2239,-0.5 0.5,-0.5l0 -4c-0.2761,0 -0.5,-0.2239 -0.5,-0.5 0,-0.2761 0.2239,-0.5 0.5,-0.5 0.2761,0 0.5,0.2239 0.5,0.5l9 0c0,-0.2761 0.2239,-0.5 0.5,-0.5 0.2761,0 0.5,0.2239 0.5,0.5 0,0.2761 -0.2239,0.5 -0.5,0.5l0 4c0.2761,0 0.5,0.2239 0.5,0.5 0,0.2761 -0.2239,0.5 -0.5,0.5 -0.2761,0 -0.5,-0.2239 -0.5,-0.5l-9 0c0,0.2761 -0.2239,0.5 -0.5,0.5z"
   id="path125"
   stroke-width="0.0762"
   stroke="#1F1A17"
   fill="none" />
  <path
   d="M52 8.5c-0.2761,0 -0.5,-0.2239 -0.5,-0.5 0,-0.2761 0.2239,-0.5 0.5,-0.5l0 -4c-0.2761,0 -0.5,-0.2239 -0.5,-0.5 0,-0.2761 0.2239,-0.5 0.5,-0.5 0.2761,0 0.5,0.2239 0.5,0.5l9 0c0,-0.2761 0.2239,-0.5 0.5,-0.5 0.2761,0 0.5,0.2239 0.5,0.5 0,0.2761 -0.2239,0.5 -0.5,0.5l0 4c0.2761,0 0.5,0.2239 0.5,0.5 0,0.2761 -0.2239,0.5 -0.5,0.5 -0.2761,0 -0.5,-0.2239 -0.5,-0.5l-9 0c0,0.2761 -0.2239,0.5 -0.5,0.5z"
   id="path127"
   stroke-width="0.0762"
   stroke="#1F1A17"
   fill="none" />
  <path
   d="M92 8.5c-0.2761,0 -0.5,-0.2239 -0.5,-0.5 0,-0.2761 0.2239,-0.5 0.5,-0.5l0 -4c-0.2761,0 -0.5,-0.2239 -0.5,-0.5 0,-0.2761 0.2239,-0.5 0.5,-0.5 0.2761,0 0.5,0.2239 0.5,0.5l9 0c0,-0.2761 0.2239,-0.5 0.5,-0.5 0.2761,0 0.5,0.2239 0.5,0.5 0,0.2761 -0.2239,0.5 -0.5,0.5l0 4c0.2761,0 0.5,0.2239 0.5,0.5 0,0.2761 -0.2239,0.5 -0.5,0.5 -0.2761,0 -0.5,-0.2239 -0.5,-0.5l-9 0c0,0.2761 -0.2239,0.5 -0.5,0.5z"
   id="path129"
   stroke-width="0.0762"
   stroke="#1F1A17"
   fill="none" />
  <path
   d="M32 8.5c-0.2761,0 -0.5,-0.2239 -0.5,-0.5 0,-0.2761 0.2239,-0.5 0.5,-0.5l0 -4c-0.2761,0 -0.5,-0.2239 -0.5,-0.5 0,-0.2761 0.2239,-0.5 0.5,-0.5 0.2761,0 0.5,0.2239 0.5,0.5l9 0c0,-0.2761 0.2239,-0.5 0.5,-0.5 0.2761,0 0.5,0.2239 0.5,0.5 0,0.2761 -0.2239,0.5 -0.5,0.5l0 4c0.2761,0 0.5,0.2239 0.5,0.5 0,0.2761 -0.2239,0.5 -0.5,0.5 -0.2761,0 -0.5,-0.2239 -0.5,-0.5l-9 0c0,0.2761 -0.2239,0.5 -0.5,0.5z"
   id="path131"
   stroke-width="0.0762"
   stroke="#1F1A17"
   fill="none" />
  <path
   d="M12 8.5c-0.2761,0 -0.5,-0.2239 -0.5,-0.5 0,-0.2761 0.2239,-0.5 0.5,-0.5l0 -4c-0.2761,0 -0.5,-0.2239 -0.5,-0.5 0,-0.2761 0.2239,-0.5 0.5,-0.5 0.2761,0 0.5,0.2239 0.5,0.5l9 0c0,-0.2761 0.2239,-0.5 0.5,-0.5 0.2761,0 0.5,0.2239 0.5,0.5 0,0.2761 -0.2239,0.5 -0.5,0.5l0 4c0.2761,0 0.5,0.2239 0.5,0.5 0,0.2761 -0.2239,0.5 -0.5,0.5 -0.2761,0 -0.5,-0.2239 -0.5,-0.5l-9 0c0,0.2761 -0.2239,0.5 -0.5,0.5z"
   id="path133"
   stroke-width="0.0762"
   stroke="#1F1A17"
   fill="none" />
  <path
   d="M372 297.5c-0.2761,0 -0.5,-0.2239 -0.5,-0.5 0,-0.2761 0.2239,-0.5 0.5,-0.5l0 -4c-0.2761,0 -0.5,-0.2239 -0.5,-0.5 0,-0.2761 0.2239,-0.5 0.5,-0.5 0.2761,0 0.5,0.2239 0.5,0.5l9 0c0,-0.2761 0.2239,-0.5 0.5,-0.5 0.2761,0 0.5,0.2239 0.5,0.5 0,0.2761 -0.2239,0.5 -0.5,0.5l0 4c0.2761,0 0.5,0.2239 0.5,0.5 0,0.2761 -0.2239,0.5 -0.5,0.5 -0.2761,0 -0.5,-0.2239 -0.5,-0.5l-9 0c0,0.2761 -0.2239,0.5 -0.5,0.5z"
   id="path135"
   stroke-width="0.0762"
   stroke="#1F1A17"
   fill="none" />
  <path
   d="M292 297.5c-0.2761,0 -0.5,-0.2239 -0.5,-0.5 0,-0.2761 0.2239,-0.5 0.5,-0.5l0 -4c-0.2761,0 -0.5,-0.2239 -0.5,-0.5 0,-0.2761 0.2239,-0.5 0.5,-0.5 0.2761,0 0.5,0.2239 0.5,0.5l9 0c0,-0.2761 0.2239,-0.5 0.5,-0.5 0.2761,0 0.5,0.2239 0.5,0.5 0,0.2761 -0.2239,0.5 -0.5,0.5l0 4c0.2761,0 0.5,0.2239 0.5,0.5 0,0.2761 -0.2239,0.5 -0.5,0.5 -0.2761,0 -0.5,-0.2239 -0.5,-0.5l-9 0c0,0.2761 -0.2239,0.5 -0.5,0.5z"
   id="path137"
   stroke-width="0.0762"
   stroke="#1F1A17"
   fill="none" />
  <path
   d="M272 297.5c-0.2761,0 -0.5,-0.2239 -0.5,-0.5 0,-0.2761 0.2239,-0.5 0.5,-0.5l0 -4c-0.2761,0 -0.5,-0.2239 -0.5,-0.5 0,-0.2761 0.2239,-0.5 0.5,-0.5 0.2761,0 0.5,0.2239 0.5,0.5l9 0c0,-0.2761 0.2239,-0.5 0.5,-0.5 0.2761,0 0.5,0.2239 0.5,0.5 0,0.2761 -0.2239,0.5 -0.5,0.5l0 4c0.2761,0 0.5,0.2239 0.5,0.5 0,0.2761 -0.2239,0.5 -0.5,0.5 -0.2761,0 -0.5,-0.2239 -0.5,-0.5l-9 0c0,0.2761 -0.2239,0.5 -0.5,0.5z"
   id="path139"
   stroke-width="0.0762"
   stroke="#1F1A17"
   fill="none" />
  <path
   d="M252 297.5c-0.2761,0 -0.5,-0.2239 -0.5,-0.5 0,-0.2761 0.2239,-0.5 0.5,-0.5l0 -4c-0.2761,0 -0.5,-0.2239 -0.5,-0.5 0,-0.2761 0.2239,-0.5 0.5,-0.5 0.2761,0 0.5,0.2239 0.5,0.5l9 0c0,-0.2761 0.2239,-0.5 0.5,-0.5 0.2761,0 0.5,0.2239 0.5,0.5 0,0.2761 -0.2239,0.5 -0.5,0.5l0 4c0.2761,0 0.5,0.2239 0.5,0.5 0,0.2761 -0.2239,0.5 -0.5,0.5 -0.2761,0 -0.5,-0.2239 -0.5,-0.5l-9 0c0,0.2761 -0.2239,0.5 -0.5,0.5z"
   id="path141"
   stroke-width="0.0762"
   stroke="#1F1A17"
   fill="none" />
  <path
   d="M192 297.5c-0.2761,0 -0.5,-0.2239 -0.5,-0.5 0,-0.2761 0.2239,-0.5 0.5,-0.5l0 -4c-0.2761,0 -0.5,-0.2239 -0.5,-0.5 0,-0.2761 0.2239,-0.5 0.5,-0.5 0.2761,0 0.5,0.2239 0.5,0.5l9 0c0,-0.2761 0.2239,-0.5 0.5,-0.5 0.2761,0 0.5,0.2239 0.5,0.5 0,0.2761 -0.2239,0.5 -0.5,0.5l0 4c0.2761,0 0.5,0.2239 0.5,0.5 0,0.2761 -0.2239,0.5 -0.5,0.5 -0.2761,0 -0.5,-0.2239 -0.5,-0.5l-9 0c0,0.2761 -0.2239,0.5 -0.5,0.5z"
   id="path143"
   stroke-width="0.0762"
   stroke="#1F1A17"
   fill="none" />
  <path
   d="M232 297.5c-0.2761,0 -0.5,-0.2239 -0.5,-0.5 0,-0.2761 0.2239,-0.5 0.5,-0.5l0 -4c-0.2761,0 -0.5,-0.2239 -0.5,-0.5 0,-0.2761 0.2239,-0.5 0.5,-0.5 0.2761,0 0.5,0.2239 0.5,0.5l9 0c0,-0.2761 0.2239,-0.5 0.5,-0.5 0.2761,0 0.5,0.2239 0.5,0.5 0,0.2761 -0.2239,0.5 -0.5,0.5l0 4c0.2761,0 0.5,0.2239 0.5,0.5 0,0.2761 -0.2239,0.5 -0.5,0.5 -0.2761,0 -0.5,-0.2239 -0.5,-0.5l-9 0c0,0.2761 -0.2239,0.5 -0.5,0.5z"
   id="path145"
   stroke-width="0.0762"
   stroke="#1F1A17"
   fill="none" />
  <path
   d="M172 297.5c-0.2761,0 -0.5,-0.2239 -0.5,-0.5 0,-0.2761 0.2239,-0.5 0.5,-0.5l0 -4c-0.2761,0 -0.5,-0.2239 -0.5,-0.5 0,-0.2761 0.2239,-0.5 0.5,-0.5 0.2761,0 0.5,0.2239 0.5,0.5l9 0c0,-0.2761 0.2239,-0.5 0.5,-0.5 0.2761,0 0.5,0.2239 0.5,0.5 0,0.2761 -0.2239,0.5 -0.5,0.5l0 4c0.2761,0 0.5,0.2239 0.5,0.5 0,0.2761 -0.2239,0.5 -0.5,0.5 -0.2761,0 -0.5,-0.2239 -0.5,-0.5l-9 0c0,0.2761 -0.2239,0.5 -0.5,0.5z"
   id="path147"
   stroke-width="0.0762"
   stroke="#1F1A17"
   fill="none" />
  <path
   d="M212 297.5c-0.2761,0 -0.5,-0.2239 -0.5,-0.5 0,-0.2761 0.2239,-0.5 0.5,-0.5l0 -4c-0.2761,0 -0.5,-0.2239 -0.5,-0.5 0,-0.2761 0.2239,-0.5 0.5,-0.5 0.2761,0 0.5,0.2239 0.5,0.5l9 0c0,-0.2761 0.2239,-0.5 0.5,-0.5 0.2761,0 0.5,0.2239 0.5,0.5 0,0.2761 -0.2239,0.5 -0.5,0.5l0 4c0.2761,0 0.5,0.2239 0.5,0.5 0,0.2761 -0.2239,0.5 -0.5,0.5 -0.2761,0 -0.5,-0.2239 -0.5,-0.5l-9 0c0,0.2761 -0.2239,0.5 -0.5,0.5z"
   id="path149"
   stroke-width="0.0762"
   stroke="#1F1A17"
   fill="none" />
  <path
   d="M152 297.5c-0.2761,0 -0.5,-0.2239 -0.5,-0.5 0,-0.2761 0.2239,-0.5 0.5,-0.5l0 -4c-0.2761,0 -0.5,-0.2239 -0.5,-0.5 0,-0.2761 0.2239,-0.5 0.5,-0.5 0.2761,0 0.5,0.2239 0.5,0.5l9 0c0,-0.2761 0.2239,-0.5 0.5,-0.5 0.2761,0 0.5,0.2239 0.5,0.5 0,0.2761 -0.2239,0.5 -0.5,0.5l0 4c0.2761,0 0.5,0.2239 0.5,0.5 0,0.2761 -0.2239,0.5 -0.5,0.5 -0.2761,0 -0.5,-0.2239 -0.5,-0.5l-9 0c0,0.2761 -0.2239,0.5 -0.5,0.5z"
   id="path151"
   stroke-width="0.0762"
   stroke="#1F1A17"
   fill="none" />
  <path
   d="M132 297.5c-0.2761,0 -0.5,-0.2239 -0.5,-0.5 0,-0.2761 0.2239,-0.5 0.5,-0.5l0 -4c-0.2761,0 -0.5,-0.2239 -0.5,-0.5 0,-0.2761 0.2239,-0.5 0.5,-0.5 0.2761,0 0.5,0.2239 0.5,0.5l9 0c0,-0.2761 0.2239,-0.5 0.5,-0.5 0.2761,0 0.5,0.2239 0.5,0.5 0,0.2761 -0.2239,0.5 -0.5,0.5l0 4c0.2761,0 0.5,0.2239 0.5,0.5 0,0.2761 -0.2239,0.5 -0.5,0.5 -0.2761,0 -0.5,-0.2239 -0.5,-0.5l-9 0c0,0.2761 -0.2239,0.5 -0.5,0.5z"
   id="path153"
   stroke-width="0.0762"
   stroke="#1F1A17"
   fill="none" />
  <path
   d="M112 297.5c-0.2761,0 -0.5,-0.2239 -0.5,-0.5 0,-0.2761 0.2239,-0.5 0.5,-0.5l0 -4c-0.2761,0 -0.5,-0.2239 -0.5,-0.5 0,-0.2761 0.2239,-0.5 0.5,-0.5 0.2761,0 0.5,0.2239 0.5,0.5l9 0c0,-0.2761 0.2239,-0.5 0.5,-0.5 0.2761,0 0.5,0.2239 0.5,0.5 0,0.2761 -0.2239,0.5 -0.5,0.5l0 4c0.2761,0 0.5,0.2239 0.5,0.5 0,0.2761 -0.2239,0.5 -0.5,0.5 -0.2761,0 -0.5,-0.2239 -0.5,-0.5l-9 0c0,0.2761 -0.2239,0.5 -0.5,0.5z"
   id="path155"
   stroke-width="0.0762"
   stroke="#1F1A17"
   fill="none" />
  <path
   d="M72 297.5c-0.2761,0 -0.5,-0.2239 -0.5,-0.5 0,-0.2761 0.2239,-0.5 0.5,-0.5l0 -4c-0.2761,0 -0.5,-0.2239 -0.5,-0.5 0,-0.2761 0.2239,-0.5 0.5,-0.5 0.2761,0 0.5,0.2239 0.5,0.5l9 0c0,-0.2761 0.2239,-0.5 0.5,-0.5 0.2761,0 0.5,0.2239 0.5,0.5 0,0.2761 -0.2239,0.5 -0.5,0.5l0 4c0.2761,0 0.5,0.2239 0.5,0.5 0,0.2761 -0.2239,0.5 -0.5,0.5 -0.2761,0 -0.5,-0.2239 -0.5,-0.5l-9 0c0,0.2761 -0.2239,0.5 -0.5,0.5z"
   id="path157"
   stroke-width="0.0762"
   stroke="#1F1A17"
   fill="none" />
  <path
   d="M52 297.5c-0.2761,0 -0.5,-0.2239 -0.5,-0.5 0,-0.2761 0.2239,-0.5 0.5,-0.5l0 -4c-0.2761,0 -0.5,-0.2239 -0.5,-0.5 0,-0.2761 0.2239,-0.5 0.5,-0.5 0.2761,0 0.5,0.2239 0.5,0.5l9 0c0,-0.2761 0.2239,-0.5 0.5,-0.5 0.2761,0 0.5,0.2239 0.5,0.5 0,0.2761 -0.2239,0.5 -0.5,0.5l0 4c0.2761,0 0.5,0.2239 0.5,0.5 0,0.2761 -0.2239,0.5 -0.5,0.5 -0.2761,0 -0.5,-0.2239 -0.5,-0.5l-9 0c0,0.2761 -0.2239,0.5 -0.5,0.5z"
   id="path159"
   stroke-width="0.0762"
   stroke="#1F1A17"
   fill="none" />
  <path
   d="M92 297.5c-0.2761,0 -0.5,-0.2239 -0.5,-0.5 0,-0.2761 0.2239,-0.5 0.5,-0.5l0 -4c-0.2761,0 -0.5,-0.2239 -0.5,-0.5 0,-0.2761 0.2239,-0.5 0.5,-0.5 0.2761,0 0.5,0.2239 0.5,0.5l9 0c0,-0.2761 0.2239,-0.5 0.5,-0.5 0.2761,0 0.5,0.2239 0.5,0.5 0,0.2761 -0.2239,0.5 -0.5,0.5l0 4c0.2761,0 0.5,0.2239 0.5,0.5 0,0.2761 -0.2239,0.5 -0.5,0.5 -0.2761,0 -0.5,-0.2239 -0.5,-0.5l-9 0c0,0.2761 -0.2239,0.5 -0.5,0.5z"
   id="path161"
   stroke-width="0.0762"
   stroke="#1F1A17"
   fill="none" />
  <path
   d="M32 297.5c-0.2761,0 -0.5,-0.2239 -0.5,-0.5 0,-0.2761 0.2239,-0.5 0.5,-0.5l0 -4c-0.2761,0 -0.5,-0.2239 -0.5,-0.5 0,-0.2761 0.2239,-0.5 0.5,-0.5 0.2761,0 0.5,0.2239 0.5,0.5l9 0c0,-0.2761 0.2239,-0.5 0.5,-0.5 0.2761,0 0.5,0.2239 0.5,0.5 0,0.2761 -0.2239,0.5 -0.5,0.5l0 4c0.2761,0 0.5,0.2239 0.5,0.5 0,0.2761 -0.2239,0.5 -0.5,0.5 -0.2761,0 -0.5,-0.2239 -0.5,-0.5l-9 0c0,0.2761 -0.2239,0.5 -0.5,0.5z"
   id="path163"
   stroke-width="0.0762"
   stroke="#1F1A17"
   fill="none" />
  <path
   d="M12 297.5c-0.2761,0 -0.5,-0.2239 -0.5,-0.5 0,-0.2761 0.2239,-0.5 0.5,-0.5l0 -4c-0.2761,0 -0.5,-0.2239 -0.5,-0.5 0,-0.2761 0.2239,-0.5 0.5,-0.5 0.2761,0 0.5,0.2239 0.5,0.5l9 0c0,-0.2761 0.2239,-0.5 0.5,-0.5 0.2761,0 0.5,0.2239 0.5,0.5 0,0.2761 -0.2239,0.5 -0.5,0.5l0 4c0.2761,0 0.5,0.2239 0.5,0.5 0,0.2761 -0.2239,0.5 -0.5,0.5 -0.2761,0 -0.5,-0.2239 -0.5,-0.5l-9 0c0,0.2761 -0.2239,0.5 -0.5,0.5z"
   id="path165"
   stroke-width="0.0762"
   stroke="#1F1A17"
   fill="none" />
  
  <circle
   cx="359.7"
   cy="277.968"
   r="1.5"
   id="circle169"
   stroke-width="0.0762"
   stroke="#1F1A17"
   fill="none" />
  <ellipse
   cx="354.5"
   cy="225.6"
   rx="1.49995"
   ry="1.5"
   id="ellipse171"
   stroke-width="0.0762"
   stroke="#1F1A17"
   fill="none" />
  <circle
   cx="326.5"
   cy="225.6"
   r="1.5"
   id="circle173"
   stroke-width="0.0762"
   stroke="#1F1A17"
   fill="none" />
 <path
   style="fill:none;stroke:#000000;stroke-width:1px;stroke-linecap:butt;stroke-linejoin:miter;stroke-opacity:1"
   d="m 1294.6115,1027.9531 0,-237.07973 -20.9322,-5.00531 -128.7785,0 -8.1909,8.19064 -20.4772,0 -9.556,7.73582 0.2275,226.15858 z"
   id="path3068"
   inkscape:connector-curvature="0"
   transform="scale(0.28222224,0.28222224)"
   sodipodi:nodetypes="ccccccccc" /><text
   xml:space="preserve"
   style="font-size:20.3200016px;font-style:normal;font-variant:normal;font-weight:bold;font-stretch:normal;line-height:125%;letter-spacing:0px;word-spacing:0px;fill:#000000;fill-opacity:1;stroke:none;font-family:Arial;-inkscape-font-specification:Sans Bold"
   x="240.3373"
   y="-331.59912"
   id="text3070"
   sodipodi:linespacing="125%"
   transform="matrix(0,1,-1,0,0,0)"><tspan
     sodipodi:role="line"
     id="tspan3072"
     x="240.3373"
     y="-331.59912">MC</tspan></text>



<rect
   style="fill:none;stroke:#000000;stroke-width:0.57;stroke-miterlimit:4;stroke-opacity:1;stroke-dasharray:none;stroke-dashoffset:0"
   id="rect3091"
   width="232.4158"
   height="232.07448"
   x="1007.0213"
   y="298.51144"
   transform="scale(0.28222224,0.28222224)" /></g>
</svg>