<?xml version="1.0" encoding="UTF-8" standalone="no"?>
<!-- Creator: CorelDRAW -->

<svg
   xmlns:dc="http://purl.org/dc/elements/1.1/"
   xmlns:cc="http://creativecommons.org/ns#"
   xmlns:rdf="http://www.w3.org/1999/02/22-rdf-syntax-ns#"
   xmlns:svg="http://www.w3.org/2000/svg"
   xmlns="http://www.w3.org/2000/svg"
   xmlns:sodipodi="http://sodipodi.sourceforge.net/DTD/sodipodi-0.dtd"
   xmlns:inkscape="http://www.inkscape.org/namespaces/inkscape"
   xml:space="preserve"
   width="60cm"
   height="30cm"
   shape-rendering="geometricPrecision"
   text-rendering="geometricPrecision"
   image-rendering="optimizeQuality"
   fill-rule="evenodd"
   clip-rule="evenodd"
   viewBox="0 0 600 300"
   id="svg2"
   version="1.1"
   inkscape:version="0.48.2 r9819"
   sodipodi:docname="BoxBackMiddle.svg"><metadata
   id="metadata62"><rdf:RDF><cc:Work
       rdf:about=""><dc:format>image/svg+xml</dc:format><dc:type
         rdf:resource="http://purl.org/dc/dcmitype/StillImage" /></cc:Work></rdf:RDF></metadata><defs
   id="defs60" /><sodipodi:namedview
   pagecolor="#ffffff"
   bordercolor="#666666"
   borderopacity="1"
   objecttolerance="10"
   gridtolerance="10"
   guidetolerance="10"
   inkscape:pageopacity="0"
   inkscape:pageshadow="2"
   inkscape:window-width="1920"
   inkscape:window-height="1058"
   id="namedview58"
   showgrid="false"
   inkscape:zoom="0.40976578"
   inkscape:cx="284.03477"
   inkscape:cy="379.11063"
   inkscape:window-x="-8"
   inkscape:window-y="-8"
   inkscape:window-maximized="1"
   inkscape:current-layer="svg2" />
 <g
   id="Layer_x0020_1">
  <metadata
   id="CorelCorpID_0Corel-Layer" />
  <circle
   fill="none"
   stroke="#1F1A17"
   stroke-width="0.0762"
   transform="matrix(2.64845E-014 1 -1 2.64845E-014 295.5 255.967)"
   r="1.5"
   id="circle6" />
  <path
   fill="none"
   stroke="#1F1A17"
   stroke-width="0.0762"
   d="M292.5 240.967c0,-0.2761 0.2239,-0.5 0.5,-0.5 0.2761,0 0.5,0.2239 0.5,0.5l4 0c0,-0.2761 0.2239,-0.5 0.5,-0.5 0.2761,0 0.5,0.2239 0.5,0.5 0,0.2761 -0.2239,0.5 -0.5,0.5l0 9c0.2761,0 0.5,0.2239 0.5,0.5 0,0.2761 -0.2239,0.5 -0.5,0.5 -0.2761,0 -0.5,-0.2239 -0.5,-0.5l-4 0c0,0.2761 -0.2239,0.5 -0.5,0.5 -0.2761,0 -0.5,-0.2239 -0.5,-0.5 0,-0.2761 0.2239,-0.5 0.5,-0.5l0 -9c-0.2761,0 -0.5,-0.2239 -0.5,-0.5z"
   id="path8" />
  <path
   fill="none"
   stroke="#1F1A17"
   stroke-width="0.0762"
   d="M292.5 260.967c0,-0.2761 0.2239,-0.5 0.5,-0.5 0.2761,0 0.5,0.2239 0.5,0.5l4 0c0,-0.2761 0.2239,-0.5 0.5,-0.5 0.2761,0 0.5,0.2239 0.5,0.5 0,0.2761 -0.2239,0.5 -0.5,0.5l0 9c0.2761,0 0.5,0.2239 0.5,0.5 0,0.2761 -0.2239,0.5 -0.5,0.5 -0.2761,0 -0.5,-0.2239 -0.5,-0.5l-4 0c0,0.2761 -0.2239,0.5 -0.5,0.5 -0.2761,0 -0.5,-0.2239 -0.5,-0.5 0,-0.2761 0.2239,-0.5 0.5,-0.5l0 -9c-0.2761,0 -0.5,-0.2239 -0.5,-0.5z"
   id="path10" />
  <circle
   fill="none"
   stroke="#1F1A17"
   stroke-width="0.0762"
   transform="matrix(2.64845E-014 1 -1 2.64845E-014 295.5 142.403)"
   r="1.5"
   id="circle12" />
  <path
   fill="none"
   stroke="#1F1A17"
   stroke-width="0.0762"
   d="M292.5 127.403c0,-0.2761 0.2239,-0.5 0.5,-0.5 0.2761,0 0.5,0.2239 0.5,0.5l4 0c0,-0.2761 0.2239,-0.5 0.5,-0.5 0.2761,0 0.5,0.2239 0.5,0.5 0,0.2761 -0.2239,0.5 -0.5,0.5l0 9c0.2761,0 0.5,0.2239 0.5,0.5 0,0.2761 -0.2239,0.5 -0.5,0.5 -0.2761,0 -0.5,-0.2239 -0.5,-0.5l-4 0c0,0.2761 -0.2239,0.5 -0.5,0.5 -0.2761,0 -0.5,-0.2239 -0.5,-0.5 0,-0.2761 0.2239,-0.5 0.5,-0.5l0 -9c-0.2761,0 -0.5,-0.2239 -0.5,-0.5z"
   id="path14" />
  <path
   fill="none"
   stroke="#1F1A17"
   stroke-width="0.0762"
   d="M292.5 147.403c0,-0.2761 0.2239,-0.5 0.5,-0.5 0.2761,0 0.5,0.2239 0.5,0.5l4 0c0,-0.2761 0.2239,-0.5 0.5,-0.5 0.2761,0 0.5,0.2239 0.5,0.5 0,0.2761 -0.2239,0.5 -0.5,0.5l0 9c0.2761,0 0.5,0.2239 0.5,0.5 0,0.2761 -0.2239,0.5 -0.5,0.5 -0.2761,0 -0.5,-0.2239 -0.5,-0.5l-4 0c0,0.2761 -0.2239,0.5 -0.5,0.5 -0.2761,0 -0.5,-0.2239 -0.5,-0.5 0,-0.2761 0.2239,-0.5 0.5,-0.5l0 -9c-0.2761,0 -0.5,-0.2239 -0.5,-0.5z"
   id="path16" />
  <circle
   fill="none"
   stroke="#1F1A17"
   stroke-width="0.0762"
   transform="matrix(2.64845E-014 1 -1 2.64845E-014 295.5 28.9667)"
   r="1.5"
   id="circle18" />
  <path
   fill="none"
   stroke="#1F1A17"
   stroke-width="0.0762"
   d="M292.5 13.9667c0,-0.2761 0.2239,-0.5 0.5,-0.5 0.2761,0 0.5,0.2239 0.5,0.5l4 0c0,-0.2761 0.2239,-0.5 0.5,-0.5 0.2761,0 0.5,0.2239 0.5,0.5 0,0.2761 -0.2239,0.5 -0.5,0.5l0 9c0.2761,0 0.5,0.2239 0.5,0.5 0,0.2761 -0.2239,0.5 -0.5,0.5 -0.2761,0 -0.5,-0.2239 -0.5,-0.5l-4 0c0,0.2761 -0.2239,0.5 -0.5,0.5 -0.2761,0 -0.5,-0.2239 -0.5,-0.5 0,-0.2761 0.2239,-0.5 0.5,-0.5l0 -9c-0.2761,0 -0.5,-0.2239 -0.5,-0.5z"
   id="path20" />
  <path
   fill="none"
   stroke="#1F1A17"
   stroke-width="0.0762"
   d="M292.5 33.9667c0,-0.2761 0.2239,-0.5 0.5,-0.5 0.2761,0 0.5,0.2239 0.5,0.5l4 0c0,-0.2761 0.2239,-0.5 0.5,-0.5 0.2761,0 0.5,0.2239 0.5,0.5 0,0.2761 -0.2239,0.5 -0.5,0.5l0 9c0.2761,0 0.5,0.2239 0.5,0.5 0,0.2761 -0.2239,0.5 -0.5,0.5 -0.2761,0 -0.5,-0.2239 -0.5,-0.5l-4 0c0,0.2761 -0.2239,0.5 -0.5,0.5 -0.2761,0 -0.5,-0.2239 -0.5,-0.5 0,-0.2761 0.2239,-0.5 0.5,-0.5l0 -9c-0.2761,0 -0.5,-0.2239 -0.5,-0.5z"
   id="path22" />
  <circle
   fill="none"
   stroke="#1F1A17"
   stroke-width="0.0762"
   transform="matrix(2.64845E-014 1 -1 2.64845E-014 6.5 255.967)"
   r="1.5"
   id="circle24" />
  <path
   fill="none"
   stroke="#1F1A17"
   stroke-width="0.0762"
   d="M3.5 240.967c0,-0.2761 0.2239,-0.5 0.5,-0.5 0.2761,0 0.5,0.2239 0.5,0.5l4 0c0,-0.2761 0.2239,-0.5 0.5,-0.5 0.2761,0 0.5,0.2239 0.5,0.5 0,0.2761 -0.2239,0.5 -0.5,0.5l0 9c0.2761,0 0.5,0.2239 0.5,0.5 0,0.2761 -0.2239,0.5 -0.5,0.5 -0.2761,0 -0.5,-0.2239 -0.5,-0.5l-4 0c0,0.2761 -0.2239,0.5 -0.5,0.5 -0.2761,0 -0.5,-0.2239 -0.5,-0.5 0,-0.2761 0.2239,-0.5 0.5,-0.5l0 -9c-0.2761,0 -0.5,-0.2239 -0.5,-0.5z"
   id="path26" />
  <path
   fill="none"
   stroke="#1F1A17"
   stroke-width="0.0762"
   d="M3.5 260.967c0,-0.2761 0.2239,-0.5 0.5,-0.5 0.2761,0 0.5,0.2239 0.5,0.5l4 0c0,-0.2761 0.2239,-0.5 0.5,-0.5 0.2761,0 0.5,0.2239 0.5,0.5 0,0.2761 -0.2239,0.5 -0.5,0.5l0 9c0.2761,0 0.5,0.2239 0.5,0.5 0,0.2761 -0.2239,0.5 -0.5,0.5 -0.2761,0 -0.5,-0.2239 -0.5,-0.5l-4 0c0,0.2761 -0.2239,0.5 -0.5,0.5 -0.2761,0 -0.5,-0.2239 -0.5,-0.5 0,-0.2761 0.2239,-0.5 0.5,-0.5l0 -9c-0.2761,0 -0.5,-0.2239 -0.5,-0.5z"
   id="path28" />
  <circle
   fill="none"
   stroke="#1F1A17"
   stroke-width="0.0762"
   transform="matrix(2.64845E-014 1 -1 2.64845E-014 6.5 142.403)"
   r="1.5"
   id="circle30" />
  <path
   fill="none"
   stroke="#1F1A17"
   stroke-width="0.0762"
   d="M3.5 127.403c0,-0.2761 0.2239,-0.5 0.5,-0.5 0.2761,0 0.5,0.2239 0.5,0.5l4 0c0,-0.2761 0.2239,-0.5 0.5,-0.5 0.2761,0 0.5,0.2239 0.5,0.5 0,0.2761 -0.2239,0.5 -0.5,0.5l0 9c0.2761,0 0.5,0.2239 0.5,0.5 0,0.2761 -0.2239,0.5 -0.5,0.5 -0.2761,0 -0.5,-0.2239 -0.5,-0.5l-4 0c0,0.2761 -0.2239,0.5 -0.5,0.5 -0.2761,0 -0.5,-0.2239 -0.5,-0.5 0,-0.2761 0.2239,-0.5 0.5,-0.5l0 -9c-0.2761,0 -0.5,-0.2239 -0.5,-0.5z"
   id="path32" />
  <path
   fill="none"
   stroke="#1F1A17"
   stroke-width="0.0762"
   d="M3.5 147.403c0,-0.2761 0.2239,-0.5 0.5,-0.5 0.2761,0 0.5,0.2239 0.5,0.5l4 0c0,-0.2761 0.2239,-0.5 0.5,-0.5 0.2761,0 0.5,0.2239 0.5,0.5 0,0.2761 -0.2239,0.5 -0.5,0.5l0 9c0.2761,0 0.5,0.2239 0.5,0.5 0,0.2761 -0.2239,0.5 -0.5,0.5 -0.2761,0 -0.5,-0.2239 -0.5,-0.5l-4 0c0,0.2761 -0.2239,0.5 -0.5,0.5 -0.2761,0 -0.5,-0.2239 -0.5,-0.5 0,-0.2761 0.2239,-0.5 0.5,-0.5l0 -9c-0.2761,0 -0.5,-0.2239 -0.5,-0.5z"
   id="path34" />
  <circle
   fill="none"
   stroke="#1F1A17"
   stroke-width="0.0762"
   transform="matrix(2.64845E-014 1 -1 2.64845E-014 6.5 28.9667)"
   r="1.5"
   id="circle36" />
  <path
   fill="none"
   stroke="#1F1A17"
   stroke-width="0.0762"
   d="M3.5 13.9667c0,-0.2761 0.2239,-0.5 0.5,-0.5 0.2761,0 0.5,0.2239 0.5,0.5l4 0c0,-0.2761 0.2239,-0.5 0.5,-0.5 0.2761,0 0.5,0.2239 0.5,0.5 0,0.2761 -0.2239,0.5 -0.5,0.5l0 9c0.2761,0 0.5,0.2239 0.5,0.5 0,0.2761 -0.2239,0.5 -0.5,0.5 -0.2761,0 -0.5,-0.2239 -0.5,-0.5l-4 0c0,0.2761 -0.2239,0.5 -0.5,0.5 -0.2761,0 -0.5,-0.2239 -0.5,-0.5 0,-0.2761 0.2239,-0.5 0.5,-0.5l0 -9c-0.2761,0 -0.5,-0.2239 -0.5,-0.5z"
   id="path38" />
  <path
   fill="none"
   stroke="#1F1A17"
   stroke-width="0.0762"
   d="M3.5 33.9667c0,-0.2761 0.2239,-0.5 0.5,-0.5 0.2761,0 0.5,0.2239 0.5,0.5l4 0c0,-0.2761 0.2239,-0.5 0.5,-0.5 0.2761,0 0.5,0.2239 0.5,0.5 0,0.2761 -0.2239,0.5 -0.5,0.5l0 9c0.2761,0 0.5,0.2239 0.5,0.5 0,0.2761 -0.2239,0.5 -0.5,0.5 -0.2761,0 -0.5,-0.2239 -0.5,-0.5l-4 0c0,0.2761 -0.2239,0.5 -0.5,0.5 -0.2761,0 -0.5,-0.2239 -0.5,-0.5 0,-0.2761 0.2239,-0.5 0.5,-0.5l0 -9c-0.2761,0 -0.5,-0.2239 -0.5,-0.5z"
   id="path40" />
  <path
   fill="none"
   stroke="#1F1A17"
   stroke-width="0.0762"
   d="M1 0.9667l300 0 0 283.033 0 3 -10 0 -0.3204 0 -4.1796 0c0,-0.2761 -0.2239,-0.5 -0.5,-0.5 -0.2761,0 -0.5,0.2239 -0.5,0.5 0,0.2761 0.2239,0.5 0.5,0.5l0 3.5 -10 0 0 -3.5c0.2761,0 0.5,-0.2239 0.5,-0.5 0,-0.2761 -0.2239,-0.5 -0.5,-0.5 -0.2761,0 -0.5,0.2239 -0.5,0.5l-4.5 0 -0.3204 0 -4.1796 0c0,-0.2761 -0.2239,-0.5 -0.5,-0.5 -0.2761,0 -0.5,0.2239 -0.5,0.5 0,0.2761 0.2239,0.5 0.5,0.5l0 3.5 -10 0 0 -3.5c0.2761,0 0.5,-0.2239 0.5,-0.5 0,-0.2761 -0.2239,-0.5 -0.5,-0.5 -0.2761,0 -0.5,0.2239 -0.5,0.5l-4.5 0 -0.3204 0 -4.1796 0c0,-0.2761 -0.2239,-0.5 -0.5,-0.5 -0.2761,0 -0.5,0.2239 -0.5,0.5 0,0.2761 0.2239,0.5 0.5,0.5l0 3.5 -10 0 0 -3.5c0.2761,0 0.5,-0.2239 0.5,-0.5 0,-0.2761 -0.2239,-0.5 -0.5,-0.5 -0.2761,0 -0.5,0.2239 -0.5,0.5l-4.5 0 -0.3204 0 -4.1796 0c0,-0.2761 -0.2239,-0.5 -0.5,-0.5 -0.2761,0 -0.5,0.2239 -0.5,0.5 0,0.2761 0.2239,0.5 0.5,0.5l0 3.5 -10 0 0 -3.5c0.2761,0 0.5,-0.2239 0.5,-0.5 0,-0.2761 -0.2239,-0.5 -0.5,-0.5 -0.2761,0 -0.5,0.2239 -0.5,0.5l-4.5 0 -0.3204 0 -4.1796 0c0,-0.2761 -0.2239,-0.5 -0.5,-0.5 -0.2761,0 -0.5,0.2239 -0.5,0.5 0,0.2761 0.2239,0.5 0.5,0.5l0 3.5 -10 0 0 -3.5c0.2761,0 0.5,-0.2239 0.5,-0.5 0,-0.2761 -0.2239,-0.5 -0.5,-0.5 -0.2761,0 -0.5,0.2239 -0.5,0.5l-4.5 0 -0.3204 0 -4.1796 0c0,-0.2761 -0.2239,-0.5 -0.5,-0.5 -0.2761,0 -0.5,0.2239 -0.5,0.5 0,0.2761 0.2239,0.5 0.5,0.5l0 3.5 -10 0 0 -3.5c0.2761,0 0.5,-0.2239 0.5,-0.5 0,-0.2761 -0.2239,-0.5 -0.5,-0.5 -0.2761,0 -0.5,0.2239 -0.5,0.5l-4.5 0 -0.3204 0 -4.1796 0c0,-0.2761 -0.2239,-0.5 -0.5,-0.5 -0.2761,0 -0.5,0.2239 -0.5,0.5 0,0.2761 0.2239,0.5 0.5,0.5l0 3.5 -10 0 0 -3.5c0.2761,0 0.5,-0.2239 0.5,-0.5 0,-0.2761 -0.2239,-0.5 -0.5,-0.5 -0.2761,0 -0.5,0.2239 -0.5,0.5l-4.5 0 -0.3204 0 -4.1796 0c0,-0.2761 -0.2239,-0.5 -0.5,-0.5 -0.2761,0 -0.5,0.2239 -0.5,0.5 0,0.2761 0.2239,0.5 0.5,0.5l0 3.5 -10 0 0 -3.5c0.2761,0 0.5,-0.2239 0.5,-0.5 0,-0.2761 -0.2239,-0.5 -0.5,-0.5 -0.2761,0 -0.5,0.2239 -0.5,0.5l-4.5 0 -0.3204 0 -4.1796 0c0,-0.2761 -0.2239,-0.5 -0.5,-0.5 -0.2761,0 -0.5,0.2239 -0.5,0.5 0,0.2761 0.2239,0.5 0.5,0.5l0 3.5 -10 0 0 -3.5c0.2761,0 0.5,-0.2239 0.5,-0.5 0,-0.2761 -0.2239,-0.5 -0.5,-0.5 -0.2761,0 -0.5,0.2239 -0.5,0.5l-4.5 0 -0.3204 0 -4.1796 0c0,-0.2761 -0.2239,-0.5 -0.5,-0.5 -0.2761,0 -0.5,0.2239 -0.5,0.5 0,0.2761 0.2239,0.5 0.5,0.5l0 3.5 -10 0 0 -3.5c0.2761,0 0.5,-0.2239 0.5,-0.5 0,-0.2761 -0.2239,-0.5 -0.5,-0.5 -0.2761,0 -0.5,0.2239 -0.5,0.5l-4.5 0 -0.3204 0 -4.1796 0c0,-0.2761 -0.2239,-0.5 -0.5,-0.5 -0.2761,0 -0.5,0.2239 -0.5,0.5 0,0.2761 0.2239,0.5 0.5,0.5l0 3.5 -10 0 0 -3.5c0.2761,0 0.5,-0.2239 0.5,-0.5 0,-0.2761 -0.2239,-0.5 -0.5,-0.5 -0.2761,0 -0.5,0.2239 -0.5,0.5l-4.5 0 -0.3204 0 -4.1796 0c0,-0.2761 -0.2239,-0.5 -0.5,-0.5 -0.2761,0 -0.5,0.2239 -0.5,0.5 0,0.2761 0.2239,0.5 0.5,0.5l0 3.5 -10 0 0 -3.5c0.2761,0 0.5,-0.2239 0.5,-0.5 0,-0.2761 -0.2239,-0.5 -0.5,-0.5 -0.2761,0 -0.5,0.2239 -0.5,0.5l-4.5 0 -0.3204 0 -4.1796 0c0,-0.2761 -0.2239,-0.5 -0.5,-0.5 -0.2761,0 -0.5,0.2239 -0.5,0.5 0,0.2761 0.2239,0.5 0.5,0.5l0 3.5 -10 0 0 -3.5c0.2761,0 0.5,-0.2239 0.5,-0.5 0,-0.2761 -0.2239,-0.5 -0.5,-0.5 -0.2761,0 -0.5,0.2239 -0.5,0.5l-4.5 0 -0.3204 0 -4.1796 0c0,-0.2761 -0.2239,-0.5 -0.5,-0.5 -0.2761,0 -0.5,0.2239 -0.5,0.5 0,0.2761 0.2239,0.5 0.5,0.5l0 3.5 -10 0 0 -3.5c0.2761,0 0.5,-0.2239 0.5,-0.5 0,-0.2761 -0.2239,-0.5 -0.5,-0.5 -0.2761,0 -0.5,0.2239 -0.5,0.5l-4.5 0 -10 0 0 -3 0 -283.033z"
   id="path42" />
  <rect
   fill="none"
   stroke="#1F1A17"
   stroke-width="0.0762"
   x="302"
   y="1"
   width="220"
   height="284"
   id="rect44" />
  <circle
   fill="none"
   stroke="#1F1A17"
   stroke-width="0.0762"
   cx="447"
   cy="110"
   r="70"
   id="circle46" />
  <circle
   fill="none"
   stroke="#1F1A17"
   stroke-width="0.0762"
   cx="447.01"
   cy="110.063"
   r="69"
   id="circle48" />
  <circle
   fill="none"
   stroke="#1F1A17"
   stroke-width="0.0762"
   cx="436.544"
   cy="99.5017"
   r="1.5"
   id="circle50" />
  <circle
   fill="none"
   stroke="#1F1A17"
   stroke-width="0.0762"
   cx="457.544"
   cy="99.5017"
   r="1.5"
   id="circle52" />
  <circle
   fill="none"
   stroke="#1F1A17"
   stroke-width="0.0762"
   cx="457.544"
   cy="120.502"
   r="1.5"
   id="circle54" />
  <circle
   fill="none"
   stroke="#1F1A17"
   stroke-width="0.0762"
   cx="436.544"
   cy="120.502"
   r="1.5"
   id="circle56" />
 </g>
<path
   inkscape:connector-curvature="0"
   d="m 430.51192,172.99931 32.80833,0 0,-32.45556 -32.80833,0 0,32.45556 z"
   style="fill:#231f20;fill-opacity:1;fill-rule:nonzero;stroke:none"
   id="path12" /><g
   id="g24"
   transform="matrix(0.3527778,0,0,-0.3527778,434.74518,144.42442)"><path
     inkscape:connector-curvature="0"
     d="m 0,0 11,0 0,-12 23,0 0,-11 -34,0 0,23 z"
     style="fill:#ffffff;fill-opacity:1;fill-rule:nonzero;stroke:none"
     id="path26-1" /></g><path
   inkscape:connector-curvature="0"
   d="m 450.97303,144.42431 8.11389,0 0,4.23333 -8.11389,0 0,-4.23333 z"
   style="fill:#ffffff;fill-opacity:1;fill-rule:nonzero;stroke:none"
   id="path28-7" /><path
   inkscape:connector-curvature="0"
   d="m 450.97303,152.5382 4.23333,0 0,4.23333 -4.23333,0 0,-4.23333 z"
   style="fill:#ffffff;fill-opacity:1;fill-rule:nonzero;stroke:none"
   id="path64" /><g
   id="g74"
   transform="matrix(0.3527778,0,0,-0.3527778,434.74518,156.77164)"><path
     inkscape:connector-curvature="0"
     d="m 0,0 34,0 0,-12 12,0 0,-11 -23,0 0,-12 -12,0 0,23 -11,0 0,12 z"
     style="fill:#ffffff;fill-opacity:1;fill-rule:nonzero;stroke:none"
     id="path76" /></g><path
   inkscape:connector-curvature="0"
   d="m 455.20636,161.00487 3.88056,0 0,3.88055 -3.88056,0 0,-3.88055 z"
   style="fill:#ffffff;fill-opacity:1;fill-rule:nonzero;stroke:none"
   id="path86" /><path
   inkscape:connector-curvature="0"
   d="m 71.06586,277.65832 32.80833,0 0,-32.45556 -32.80833,0 0,32.45556 z"
   style="fill:#231f20;fill-opacity:1;fill-rule:nonzero;stroke:none"
   id="path14-4" /><g
   id="g30"
   transform="matrix(0.3527778,0,0,-0.3527778,75.299123,249.08342)"><path
     inkscape:connector-curvature="0"
     d="m 0,0 11,0 0,-12 23,0 0,-11 -11,0 0,-12 -23,0 0,35 z"
     style="fill:#ffffff;fill-opacity:1;fill-rule:nonzero;stroke:none"
     id="path32-0" /></g><g
   id="g34"
   transform="matrix(0.3527778,0,0,-0.3527778,91.526902,249.08342)"><path
     inkscape:connector-curvature="0"
     d="m 0,0 23,0 0,-23 -11,0 0,11 -12,0 0,12 z"
     style="fill:#ffffff;fill-opacity:1;fill-rule:nonzero;stroke:none"
     id="path36" /></g><path
   inkscape:connector-curvature="0"
   d="m 87.293639,257.19721 4.233333,0 0,4.23333 -4.233333,0 0,-4.23333 z"
   style="fill:#ffffff;fill-opacity:1;fill-rule:nonzero;stroke:none"
   id="path66" /><path
   inkscape:connector-curvature="0"
   d="m 83.413083,261.43054 3.880556,0 0,4.23333 -3.880556,0 0,-4.23333 z"
   style="fill:#ffffff;fill-opacity:1;fill-rule:nonzero;stroke:none"
   id="path78" /><path
   inkscape:connector-curvature="0"
   d="m 91.526972,261.43054 4.233334,0 0,4.23333 -4.233334,0 0,-4.23333 z"
   style="fill:#ffffff;fill-opacity:1;fill-rule:nonzero;stroke:none"
   id="path80" /><path
   inkscape:connector-curvature="0"
   d="m 75.299193,269.54443 3.880556,0 0,4.23333 -3.880556,0 0,-4.23333 z"
   style="fill:#ffffff;fill-opacity:1;fill-rule:nonzero;stroke:none"
   id="path88" /><path
   inkscape:connector-curvature="0"
   d="m 87.293639,269.54443 12.347223,0 0,4.23333 -12.347223,0 0,-4.23333 z"
   style="fill:#ffffff;fill-opacity:1;fill-rule:nonzero;stroke:none"
   id="path90" /></svg>