<?xml version="1.0" encoding="UTF-8" standalone="no"?>
<!-- Creator: CorelDRAW -->

<svg
   xmlns:dc="http://purl.org/dc/elements/1.1/"
   xmlns:cc="http://creativecommons.org/ns#"
   xmlns:rdf="http://www.w3.org/1999/02/22-rdf-syntax-ns#"
   xmlns:svg="http://www.w3.org/2000/svg"
   xmlns="http://www.w3.org/2000/svg"
   xmlns:sodipodi="http://sodipodi.sourceforge.net/DTD/sodipodi-0.dtd"
   xmlns:inkscape="http://www.inkscape.org/namespaces/inkscape"
   xml:space="preserve"
   width="60cm"
   height="30cm"
   shape-rendering="geometricPrecision"
   text-rendering="geometricPrecision"
   image-rendering="optimizeQuality"
   fill-rule="evenodd"
   clip-rule="evenodd"
   viewBox="0 0 600 300"
   id="svg2"
   version="1.1"
   inkscape:version="0.48.2 r9819"
   sodipodi:docname="BoxLeftSide.svg"><metadata
   id="metadata60"><rdf:RDF><cc:Work
       rdf:about=""><dc:format>image/svg+xml</dc:format><dc:type
         rdf:resource="http://purl.org/dc/dcmitype/StillImage" /></cc:Work></rdf:RDF></metadata><defs
   id="defs58" /><sodipodi:namedview
   pagecolor="#ffffff"
   bordercolor="#666666"
   borderopacity="1"
   objecttolerance="10"
   gridtolerance="10"
   guidetolerance="10"
   inkscape:pageopacity="0"
   inkscape:pageshadow="2"
   inkscape:window-width="1280"
   inkscape:window-height="738"
   id="namedview56"
   showgrid="false"
   inkscape:zoom="0.54939265"
   inkscape:cx="984.5255"
   inkscape:cy="751.55519"
   inkscape:window-x="-8"
   inkscape:window-y="-8"
   inkscape:window-maximized="1"
   inkscape:current-layer="svg2" />
 <g
   id="Layer_x0020_1">
  <metadata
   id="CorelCorpID_0Corel-Layer" />
  <path
   d="m 166.5001,292 c 0,-0.2761 -0.2239,-0.5 -0.5,-0.5 -0.2761,0 -0.5,0.2239 -0.5,0.5 0,0.2761 0.2239,0.5 0.5,0.5 l 0,3.5 -10,0 0,-3.5 c 0.2761,0 0.5,-0.2239 0.5,-0.5 0,-0.2761 -0.2239,-0.5 -0.5,-0.5 -0.2761,0 -0.5,0.2239 -0.5,0.5 l -4.5,0 -0.3204,0 -4.1796,0 c 0,-0.2761 -0.2239,-0.5 -0.5,-0.5 -0.2761,0 -0.5,0.2239 -0.5,0.5 0,0.2761 0.2239,0.5 0.5,0.5 l 0,3.5 -10,0 0,-3.5 c 0.2761,0 0.5,-0.2239 0.5,-0.5 0,-0.2761 -0.2239,-0.5 -0.5,-0.5 -0.2761,0 -0.5,0.2239 -0.5,0.5 l -4.5,0 -0.3204,0 -4.1796,0 c 0,-0.2761 -0.2239,-0.5 -0.5,-0.5 -0.2761,0 -0.5,0.2239 -0.5,0.5 0,0.2761 0.2239,0.5 0.5,0.5 l 0,3.5 -10,0 0,-3.5 c 0.2761,0 0.5,-0.2239 0.5,-0.5 0,-0.2761 -0.2239,-0.5 -0.5,-0.5 -0.2761,0 -0.5,0.2239 -0.5,0.5 l -4.5,0 -0.3204,0 -4.1796,0 c 0,-0.2761 -0.2239,-0.5 -0.5,-0.5 -0.2761,0 -0.5,0.2239 -0.5,0.5 0,0.2761 0.2239,0.5 0.5,0.5 l 0,3.5 -10,0 0,-3.5 c 0.2761,0 0.5,-0.2239 0.5,-0.5 0,-0.2761 -0.2239,-0.5 -0.5,-0.5 -0.2761,0 -0.5,0.2239 -0.5,0.5 l -4.5,0 -0.3204,0 -4.1796,0 c 0,-0.2761 -0.2239,-0.5 -0.5,-0.5 -0.2761,0 -0.5,0.2239 -0.5,0.5 0,0.2761 0.2239,0.5 0.5,0.5 l 0,3.5 -10,0 0,-3.5 c 0.2761,0 0.5,-0.2239 0.5,-0.5 0,-0.2761 -0.2239,-0.5 -0.5,-0.5 -0.2761,0 -0.5,0.2239 -0.5,0.5 l -4.5,0 -0.3204,0 -4.1796,0 c 0,-0.2761 -0.2239,-0.5 -0.5,-0.5 -0.2761,0 -0.5,0.2239 -0.5,0.5 0,0.2761 0.2239,0.5 0.5,0.5 l 0,3.5 -10,0 0,-3.5 c 0.2761,0 0.5,-0.2239 0.5,-0.5 0,-0.2761 -0.2239,-0.5 -0.5,-0.5 -0.2761,0 -0.5,0.2239 -0.5,0.5 l -4.5,0 -0.3204,0 -4.1796,0 c 0,-0.2761 -0.2239,-0.5 -0.5,-0.5 -0.2761,0 -0.5,0.2239 -0.5,0.5 0,0.2761 0.2239,0.5 0.5,0.5 l 0,3.5 -10,0 0,-3.5 c 0.2761,0 0.5,-0.2239 0.5,-0.5 0,-0.2761 -0.2239,-0.5 -0.5,-0.5 -0.2761,0 -0.5,0.2239 -0.5,0.5 l -4.5,0 -0.3204,0 -4.1796,0 c 0,-0.2761 -0.2239,-0.5 -0.5,-0.5 -0.2761,0 -0.5,0.2239 -0.5,0.5 0,0.2761 0.2239,0.5 0.5,0.5 l 0,3.5 -10,0 0,-3.5 c 0.2761,0 0.5,-0.2239 0.5,-0.5 0,-0.2761 -0.2239,-0.5 -0.5,-0.5 -0.2761,0 -0.5,0.2239 -0.5,0.5 l -4.5,0 -7,0 0,-3 0,-111 0.0025,0 c 0.0505,-3.8603 1.5605,-7.3688 4.0026,-10 l -0.0051,0 157.606,-157.606 -0.0122,0 1e-4,-10e-5 C 168.3087,7.6793 172.0587,6 176.2001,6 l 219.8,0 0,10 0,2.5 c -0.2761,0 -0.5,0.2239 -0.5,0.5 0,0.2761 0.2239,0.5 0.5,0.5 0.2761,0 0.5,-0.2239 0.5,-0.5 l 4.5,0 0,10 -4.5,0 c 0,-0.2761 -0.2239,-0.5 -0.5,-0.5 -0.2761,0 -0.5,0.2239 -0.5,0.5 0,0.2761 0.2239,0.5 0.5,0.5 l 0,3 -3.9447,0 0,-0.967855 -3.34676,-0.564445 0,1.5323 -3.70854,0 0,3 3.70854,0 0,1.532092 3.34676,-0.564445 0,-0.967647 3.9447,0 0,3 c -0.2761,0 -0.5,0.2239 -0.5,0.5 0,0.2761 0.2239,0.5 0.5,0.5 0.2761,0 0.5,-0.2239 0.5,-0.5 l 4.5,0 0,10 -4.5,0 c 0,-0.2761 -0.2239,-0.5 -0.5,-0.5 -0.2761,0 -0.5,0.2239 -0.5,0.5 0,0.2761 0.2239,0.5 0.5,0.5 l 0,1.5 0,1 0,77.5 0,2.5 c -0.2761,0 -0.5,0.2239 -0.5,0.5 0,0.2761 0.2239,0.5 0.5,0.5 0.2761,0 0.5,-0.2239 0.5,-0.5 l 4.5,0 0,10 -4.5,0 c 0,-0.2761 -0.2239,-0.5 -0.5,-0.5 -0.2761,0 -0.5,0.2239 -0.5,0.5 0,0.2761 0.2239,0.5 0.5,0.5 l 0,3 -3.9447,0 0,-0.96767 -3.34676,-0.56444 0,1.53211 -3.70854,0 0,3 3.70854,0 0,1.53228 3.34676,-0.56444 0,-0.96784 3.9447,0 0,3 c -0.2761,0 -0.5,0.2239 -0.5,0.5 0,0.2761 0.2239,0.5 0.5,0.5 0.2761,0 0.5,-0.2239 0.5,-0.5 l 4.5,0 0,10 -4.5,0 c 0,-0.2761 -0.2239,-0.5 -0.5,-0.5 -0.2761,0 -0.5,0.2239 -0.5,0.5 0,0.2761 0.2239,0.5 0.5,0.5 l 0,1.5 0,1 0,6.5 0,71 0,2.5 c -0.2761,0 -0.5,0.2239 -0.5,0.5 0,0.2761 0.2239,0.5 0.5,0.5 0.2761,0 0.5,-0.2239 0.5,-0.5 l 4.5,0 0,10 -4.5,0 c 0,-0.2761 -0.2239,-0.5 -0.5,-0.5 -0.2761,0 -0.5,0.2239 -0.5,0.5 0,0.2761 0.2239,0.5 0.5,0.5 l 0,3 -3.9447,0 0,-0.96776 -3.34676,-0.56444 0,1.5322 -3.70854,0 0,3 3.70854,0 0,1.53219 3.34676,-0.56445 0,-0.96774 3.9447,0 0,3 c -0.2761,0 -0.5,0.2239 -0.5,0.5 0,0.2761 0.2239,0.5 0.5,0.5 0.2761,0 0.5,-0.2239 0.5,-0.5 l 4.5,0 0,10 -4.5,0 c 0,-0.2761 -0.2239,-0.5 -0.5,-0.5 -0.2761,0 -0.5,0.2239 -0.5,0.5 0,0.2761 0.2239,0.5 0.5,0.5 l 0,1.5 0,1 0,10 0,3 -5,0 -0.3204,0 -4.1796,0 c 0,-0.2761 -0.2239,-0.5 -0.5,-0.5 -0.2761,0 -0.5,0.2239 -0.5,0.5 0,0.2761 0.2239,0.5 0.5,0.5 l 0,3.5 -10,0 0,-3.5 c 0.2761,0 0.5,-0.2239 0.5,-0.5 0,-0.2761 -0.2239,-0.5 -0.5,-0.5 -0.2761,0 -0.5,0.2239 -0.5,0.5 l -4.5,0 -0.3204,0 -4.1796,0 c 0,-0.2761 -0.2239,-0.5 -0.5,-0.5 -0.2761,0 -0.5,0.2239 -0.5,0.5 0,0.2761 0.2239,0.5 0.5,0.5 l 0,3.5 -10,0 0,-3.5 c 0.2761,0 0.5,-0.2239 0.5,-0.5 0,-0.2761 -0.2239,-0.5 -0.5,-0.5 -0.2761,0 -0.5,0.2239 -0.5,0.5 l -4.5,0 -0.3204,0 -4.1796,0 c 0,-0.2761 -0.2239,-0.5 -0.5,-0.5 -0.2761,0 -0.5,0.2239 -0.5,0.5 0,0.2761 0.2239,0.5 0.5,0.5 l 0,3.5 -10,0 0,-3.5 c 0.2761,0 0.5,-0.2239 0.5,-0.5 0,-0.2761 -0.2239,-0.5 -0.5,-0.5 -0.2761,0 -0.5,0.2239 -0.5,0.5 l -4.5,0 -0.3204,0 -4.1796,0 c 0,-0.2761 -0.2239,-0.5 -0.5,-0.5 -0.2761,0 -0.5,0.2239 -0.5,0.5 0,0.2761 0.2239,0.5 0.5,0.5 l 0,3.5 -10,0 0,-3.5 c 0.2761,0 0.5,-0.2239 0.5,-0.5 0,-0.2761 -0.2239,-0.5 -0.5,-0.5 -0.2761,0 -0.5,0.2239 -0.5,0.5 l -4.5,0 -0.3204,0 -4.1796,0 c 0,-0.2761 -0.2239,-0.5 -0.5,-0.5 -0.2761,0 -0.5,0.2239 -0.5,0.5 0,0.2761 0.2239,0.5 0.5,0.5 l 0,3.5 -10,0 0,-3.5 c 0.2761,0 0.5,-0.2239 0.5,-0.5 0,-0.2761 -0.2239,-0.5 -0.5,-0.5 -0.2761,0 -0.5,0.2239 -0.5,0.5 l -4.5,0 -0.3204,0 -4.1796,0 c 0,-0.2761 -0.2239,-0.5 -0.5,-0.5 -0.2761,0 -0.5,0.2239 -0.5,0.5 0,0.2761 0.2239,0.5 0.5,0.5 l 0,3.5 -10,0 0,-3.5 c 0.2761,0 0.5,-0.2239 0.5,-0.5 0,-0.2761 -0.2239,-0.5 -0.5,-0.5 -0.2761,0 -0.5,0.2239 -0.5,0.5 l -4.5,0 -0.3204,0 -4.1796,0 c 0,-0.2761 -0.2239,-0.5 -0.5,-0.5 -0.2761,0 -0.5,0.2239 -0.5,0.5 0,0.2761 0.2239,0.5 0.5,0.5 l 0,3.5 -10,0 0,-3.5 c 0.2761,0 0.5,-0.2239 0.5,-0.5 0,-0.2761 -0.2239,-0.5 -0.5,-0.5 -0.2761,0 -0.5,0.2239 -0.5,0.5 l -4.5,0 -0.3204,0 -4.1796,0 c 0,-0.2761 -0.2239,-0.5 -0.5,-0.5 -0.2761,0 -0.5,0.2239 -0.5,0.5 0,0.2761 0.2239,0.5 0.5,0.5 l 0,3.5 -10,0 0,-3.5 c 0.2761,0 0.5,-0.2239 0.5,-0.5 0,-0.2761 -0.2239,-0.5 -0.5,-0.5 -0.2761,0 -0.5,0.2239 -0.5,0.5 z"
   id="path6"
   inkscape:connector-curvature="0"
   style="fill:none;stroke:#1f1a17;stroke-width:0.0762"
   sodipodi:nodetypes="cssccccssccccssccccssccccssccccssccccssccccssccccssccccssccccssccccssccccssccccssccccssccccsscccccccccccscccssccccssccccccccccccccssccccsscccccssccccssccccccccccccccssccccssccccccssccccssccccccccccccccssccccssccccccccssccccssccccssccccssccccssccccssccccssccccssccccssccccssccccssccccssccccssccccssccccssccccsscc" />
  <circle
   transform="matrix(2.64845E-014 1 -1 2.64845E-014 9.5 261)"
   r="1.5"
   id="circle8"
   stroke-width="0.0762"
   stroke="#1F1A17"
   fill="none" />
  <path
   d="M6.5 246c0,-0.2761 0.2239,-0.5 0.5,-0.5 0.2761,0 0.5,0.2239 0.5,0.5l4 0c0,-0.2761 0.2239,-0.5 0.5,-0.5 0.2761,0 0.5,0.2239 0.5,0.5 0,0.2761 -0.2239,0.5 -0.5,0.5l0 9c0.2761,0 0.5,0.2239 0.5,0.5 0,0.2761 -0.2239,0.5 -0.5,0.5 -0.2761,0 -0.5,-0.2239 -0.5,-0.5l-4 0c0,0.2761 -0.2239,0.5 -0.5,0.5 -0.2761,0 -0.5,-0.2239 -0.5,-0.5 0,-0.2761 0.2239,-0.5 0.5,-0.5l0 -9c-0.2761,0 -0.5,-0.2239 -0.5,-0.5z"
   id="path10"
   stroke-width="0.0762"
   stroke="#1F1A17"
   fill="none" />
  <path
   d="M6.5 266c0,-0.2761 0.2239,-0.5 0.5,-0.5 0.2761,0 0.5,0.2239 0.5,0.5l4 0c0,-0.2761 0.2239,-0.5 0.5,-0.5 0.2761,0 0.5,0.2239 0.5,0.5 0,0.2761 -0.2239,0.5 -0.5,0.5l0 9c0.2761,0 0.5,0.2239 0.5,0.5 0,0.2761 -0.2239,0.5 -0.5,0.5 -0.2761,0 -0.5,-0.2239 -0.5,-0.5l-4 0c0,0.2761 -0.2239,0.5 -0.5,0.5 -0.2761,0 -0.5,-0.2239 -0.5,-0.5 0,-0.2761 0.2239,-0.5 0.5,-0.5l0 -9c-0.2761,0 -0.5,-0.2239 -0.5,-0.5z"
   id="path12"
   stroke-width="0.0762"
   stroke="#1F1A17"
   fill="none" />
  <circle
   transform="matrix(2.64845E-014 1 -1 2.64845E-014 9.5 200)"
   r="1.5"
   id="circle14"
   stroke-width="0.0762"
   stroke="#1F1A17"
   fill="none" />
  <path
   d="M6.5 185c0,-0.2761 0.2239,-0.5 0.5,-0.5 0.2761,0 0.5,0.2239 0.5,0.5l4 0c0,-0.2761 0.2239,-0.5 0.5,-0.5 0.2761,0 0.5,0.2239 0.5,0.5 0,0.2761 -0.2239,0.5 -0.5,0.5l0 9c0.2761,0 0.5,0.2239 0.5,0.5 0,0.2761 -0.2239,0.5 -0.5,0.5 -0.2761,0 -0.5,-0.2239 -0.5,-0.5l-4 0c0,0.2761 -0.2239,0.5 -0.5,0.5 -0.2761,0 -0.5,-0.2239 -0.5,-0.5 0,-0.2761 0.2239,-0.5 0.5,-0.5l0 -9c-0.2761,0 -0.5,-0.2239 -0.5,-0.5z"
   id="path16"
   stroke-width="0.0762"
   stroke="#1F1A17"
   fill="none" />
  <path
   d="M6.5 205c0,-0.2761 0.2239,-0.5 0.5,-0.5 0.2761,0 0.5,0.2239 0.5,0.5l4 0c0,-0.2761 0.2239,-0.5 0.5,-0.5 0.2761,0 0.5,0.2239 0.5,0.5 0,0.2761 -0.2239,0.5 -0.5,0.5l0 9c0.2761,0 0.5,0.2239 0.5,0.5 0,0.2761 -0.2239,0.5 -0.5,0.5 -0.2761,0 -0.5,-0.2239 -0.5,-0.5l-4 0c0,0.2761 -0.2239,0.5 -0.5,0.5 -0.2761,0 -0.5,-0.2239 -0.5,-0.5 0,-0.2761 0.2239,-0.5 0.5,-0.5l0 -9c-0.2761,0 -0.5,-0.2239 -0.5,-0.5z"
   id="path18"
   stroke-width="0.0762"
   stroke="#1F1A17"
   fill="none" />
  <circle
   cx="368"
   cy="11.5"
   r="1.5"
   id="circle20"
   sodipodi:cx="368"
   sodipodi:cy="11.5"
   sodipodi:rx="1.5"
   sodipodi:ry="1.5"
   transform="translate(-11.288806,0)"
   style="fill:none;stroke:#1f1a17;stroke-width:0.0762" />
  <path
   d="m 371.7112,8.5 c 0.2761,0 0.5,0.2239 0.5,0.5 0,0.2761 -0.2239,0.5 -0.5,0.5 l 0,4 c 0.2761,0 0.5,0.2239 0.5,0.5 0,0.2761 -0.2239,0.5 -0.5,0.5 -0.2761,0 -0.5,-0.2239 -0.5,-0.5 l -9,0 c 0,0.2761 -0.2239,0.5 -0.5,0.5 -0.2761,0 -0.5,-0.2239 -0.5,-0.5 0,-0.2761 0.2239,-0.5 0.5,-0.5 l 0,-4 c -0.2761,0 -0.5,-0.2239 -0.5,-0.5 0,-0.2761 0.2239,-0.5 0.5,-0.5 0.2761,0 0.5,0.2239 0.5,0.5 l 9,0 c 0,-0.2761 0.2239,-0.5 0.5,-0.5 z"
   id="path22"
   inkscape:connector-curvature="0"
   style="fill:none;stroke:#1f1a17;stroke-width:0.0762"
   sodipodi:nodetypes="ssccssccssccssccs" />
  <path
   d="m 351.7112,8.5 c 0.2761,0 0.5,0.2239 0.5,0.5 0,0.2761 -0.2239,0.5 -0.5,0.5 l 0,4 c 0.2761,0 0.5,0.2239 0.5,0.5 0,0.2761 -0.2239,0.5 -0.5,0.5 -0.2761,0 -0.5,-0.2239 -0.5,-0.5 l -9,0 c 0,0.2761 -0.2239,0.5 -0.5,0.5 -0.2761,0 -0.5,-0.2239 -0.5,-0.5 0,-0.2761 0.2239,-0.5 0.5,-0.5 l 0,-4 c -0.2761,0 -0.5,-0.2239 -0.5,-0.5 0,-0.2761 0.2239,-0.5 0.5,-0.5 0.2761,0 0.5,0.2239 0.5,0.5 l 9,0 c 0,-0.2761 0.2239,-0.5 0.5,-0.5 z"
   id="path24"
   inkscape:connector-curvature="0"
   style="fill:none;stroke:#1f1a17;stroke-width:0.0762"
   sodipodi:nodetypes="ssccssccssccssccs" />
  <circle
   cx="198"
   cy="11.5"
   r="1.5"
   id="circle26"
   sodipodi:cx="198"
   sodipodi:cy="11.5"
   sodipodi:rx="1.5"
   sodipodi:ry="1.5"
   transform="translate(11.289019,0)"
   style="fill:none;stroke:#1f1a17;stroke-width:0.0762" />
  <path
   d="m 224.28903,8.5 c 0.2761,0 0.5,0.2239 0.5,0.5 0,0.2761 -0.2239,0.5 -0.5,0.5 l 0,4 c 0.2761,0 0.5,0.2239 0.5,0.5 0,0.2761 -0.2239,0.5 -0.5,0.5 -0.2761,0 -0.5,-0.2239 -0.5,-0.5 l -9,0 c 0,0.2761 -0.2239,0.5 -0.5,0.5 -0.2761,0 -0.5,-0.2239 -0.5,-0.5 0,-0.2761 0.2239,-0.5 0.5,-0.5 l 0,-4 c -0.2761,0 -0.5,-0.2239 -0.5,-0.5 0,-0.2761 0.2239,-0.5 0.5,-0.5 0.2761,0 0.5,0.2239 0.5,0.5 l 9,0 c 0,-0.2761 0.2239,-0.5 0.5,-0.5 z"
   id="path28"
   inkscape:connector-curvature="0"
   style="fill:none;stroke:#1f1a17;stroke-width:0.0762"
   sodipodi:nodetypes="ssccssccssccssccs" />
  <path
   d="m 204.28903,8.5 c 0.2761,0 0.5,0.2239 0.5,0.5 0,0.2761 -0.2239,0.5 -0.5,0.5 l 0,4 c 0.2761,0 0.5,0.2239 0.5,0.5 0,0.2761 -0.2239,0.5 -0.5,0.5 -0.2761,0 -0.5,-0.2239 -0.5,-0.5 l -9,0 c 0,0.2761 -0.2239,0.5 -0.5,0.5 -0.2761,0 -0.5,-0.2239 -0.5,-0.5 0,-0.2761 0.2239,-0.5 0.5,-0.5 l 0,-4 c -0.2761,0 -0.5,-0.2239 -0.5,-0.5 0,-0.2761 0.2239,-0.5 0.5,-0.5 0.2761,0 0.5,0.2239 0.5,0.5 l 9,0 c 0,-0.2761 0.2239,-0.5 0.5,-0.5 z"
   id="path30"
   inkscape:connector-curvature="0"
   style="fill:none;stroke:#1f1a17;stroke-width:0.0762"
   sodipodi:nodetypes="ssccssccssccssccs" />
  <path
   d="M298 8.5c0.2761,0 0.5,0.2239 0.5,0.5 0,0.2761 -0.2239,0.5 -0.5,0.5l0 4c0.2761,0 0.5,0.2239 0.5,0.5 0,0.2761 -0.2239,0.5 -0.5,0.5 -0.2761,0 -0.5,-0.2239 -0.5,-0.5l-9 0c0,0.2761 -0.2239,0.5 -0.5,0.5 -0.2761,0 -0.5,-0.2239 -0.5,-0.5 0,-0.2761 0.2239,-0.5 0.5,-0.5l0 -4c-0.2761,0 -0.5,-0.2239 -0.5,-0.5 0,-0.2761 0.2239,-0.5 0.5,-0.5 0.2761,0 0.5,0.2239 0.5,0.5l9 0c0,-0.2761 0.2239,-0.5 0.5,-0.5z"
   id="path32"
   stroke-width="0.0762"
   stroke="#1F1A17"
   fill="none" />
  <path
   d="M278 8.5c0.2761,0 0.5,0.2239 0.5,0.5 0,0.2761 -0.2239,0.5 -0.5,0.5l0 4c0.2761,0 0.5,0.2239 0.5,0.5 0,0.2761 -0.2239,0.5 -0.5,0.5 -0.2761,0 -0.5,-0.2239 -0.5,-0.5l-9 0c0,0.2761 -0.2239,0.5 -0.5,0.5 -0.2761,0 -0.5,-0.2239 -0.5,-0.5 0,-0.2761 0.2239,-0.5 0.5,-0.5l0 -4c-0.2761,0 -0.5,-0.2239 -0.5,-0.5 0,-0.2761 0.2239,-0.5 0.5,-0.5 0.2761,0 0.5,0.2239 0.5,0.5l9 0c0,-0.2761 0.2239,-0.5 0.5,-0.5z"
   id="path34"
   stroke-width="0.0762"
   stroke="#1F1A17"
   fill="none" />
  <circle
   transform="matrix(-0.707107 0.707107 -0.707107 -0.707107 151.825 32.017)"
   r="1.5"
   id="circle36"
   stroke-width="0.0762"
   stroke="#1F1A17"
   fill="none" />
  <path
   d="M160.31 19.2891c0.1952,-0.1952 0.5118,-0.1952 0.7071,0 0.1952,0.1952 0.1952,0.5119 0,0.7071l2.8284 2.8284c0.1952,-0.1952 0.5119,-0.1952 0.7071,0 0.1952,0.1953 0.1952,0.5119 0,0.7071 -0.1952,0.1953 -0.5119,0.1953 -0.7071,0l-6.364 6.364c0.1953,0.1952 0.1953,0.5119 0,0.7071 -0.1952,0.1952 -0.5118,0.1952 -0.7071,0 -0.1952,-0.1952 -0.1952,-0.5119 0,-0.7071l-2.8284 -2.8284c-0.1952,0.1952 -0.5119,0.1952 -0.7071,0 -0.1952,-0.1953 -0.1952,-0.5119 0,-0.7071 0.1952,-0.1953 0.5119,-0.1953 0.7071,0l6.364 -6.364c-0.1953,-0.1952 -0.1953,-0.5119 0,-0.7071z"
   id="path38"
   stroke-width="0.0762"
   stroke="#1F1A17"
   fill="none" />
  <path
   d="M146.168 33.4312c0.1953,-0.1952 0.5119,-0.1952 0.7071,0 0.1953,0.1953 0.1953,0.5119 0,0.7071l2.8285 2.8285c0.1952,-0.1953 0.5118,-0.1953 0.7071,0 0.1952,0.1952 0.1952,0.5118 0,0.7071 -0.1953,0.1952 -0.5119,0.1952 -0.7071,0l-6.364 6.3639c0.1952,0.1953 0.1952,0.5119 0,0.7071 -0.1952,0.1953 -0.5119,0.1953 -0.7071,0 -0.1952,-0.1952 -0.1952,-0.5118 0,-0.7071l-2.8284 -2.8284c-0.1953,0.1952 -0.5119,0.1952 -0.7071,0 -0.1953,-0.1952 -0.1953,-0.5119 0,-0.7071 0.1952,-0.1952 0.5118,-0.1952 0.7071,0l6.3639 -6.364c-0.1952,-0.1952 -0.1952,-0.5118 0,-0.7071z"
   id="path40"
   stroke-width="0.0762"
   stroke="#1F1A17"
   fill="none" />
  <circle
   transform="matrix(-0.707107 0.707107 -0.707107 -0.707107 31.617 152.225)"
   r="1.5"
   id="circle42"
   stroke-width="0.0762"
   stroke="#1F1A17"
   fill="none" />
  <path
   d="M40.1023 139.497c0.1952,-0.1953 0.5119,-0.1953 0.7071,0 0.1952,0.1952 0.1952,0.5118 0,0.7071l2.8284 2.8284c0.1953,-0.1952 0.5119,-0.1952 0.7071,0 0.1953,0.1952 0.1953,0.5119 0,0.7071 -0.1952,0.1952 -0.5118,0.1952 -0.7071,0l-6.3639 6.364c0.1952,0.1952 0.1952,0.5118 0,0.7071 -0.1953,0.1952 -0.5119,0.1952 -0.7071,0 -0.1953,-0.1953 -0.1953,-0.5119 0,-0.7071l-2.8285 -2.8285c-0.1952,0.1953 -0.5118,0.1953 -0.7071,0 -0.1952,-0.1952 -0.1952,-0.5118 0,-0.7071 0.1953,-0.1952 0.5119,-0.1952 0.7071,0l6.364 -6.3639c-0.1952,-0.1953 -0.1952,-0.5119 0,-0.7071z"
   id="path44"
   stroke-width="0.0762"
   stroke="#1F1A17"
   fill="none" />
  <path
   d="M25.9602 153.639c0.1952,-0.1952 0.5118,-0.1952 0.7071,0 0.1952,0.1952 0.1952,0.5119 0,0.7071l2.8284 2.8284c0.1952,-0.1952 0.5119,-0.1952 0.7071,0 0.1952,0.1953 0.1952,0.5119 0,0.7071 -0.1952,0.1953 -0.5119,0.1953 -0.7071,0l-6.364 6.364c0.1953,0.1952 0.1953,0.5119 0,0.7071 -0.1952,0.1952 -0.5118,0.1952 -0.7071,0 -0.1952,-0.1952 -0.1952,-0.5119 0,-0.7071l-2.8284 -2.8284c-0.1952,0.1952 -0.5119,0.1952 -0.7071,0 -0.1952,-0.1953 -0.1952,-0.5119 0,-0.7071 0.1952,-0.1953 0.5119,-0.1953 0.7071,0l6.364 -6.364c-0.1953,-0.1952 -0.1953,-0.5119 0,-0.7071z"
   id="path46"
   stroke-width="0.0762"
   stroke="#1F1A17"
   fill="none" />
  <path
   d="m 88.91707,90.682056 c 0.1952,-0.1953 0.5119,-0.1953 0.7071,0 0.1952,0.1952 0.1952,0.5119 0,0.7071 l 2.8284,2.8284 c 0.1952,-0.1952 0.5119,-0.1952 0.7071,0 0.1953,0.1952 0.1953,0.5119 0,0.7071 -0.1952,0.1953 -0.5119,0.1953 -0.7071,0 l -6.3639,6.364004 c 0.1952,0.1952 0.1952,0.5119 0,0.7071 -0.1953,0.1952 -0.5119,0.1952 -0.7072,0 -0.1952,-0.1952 -0.1952,-0.5119 0,-0.7071 l -2.8284,-2.828404 c -0.1952,0.1952 -0.5119,0.1952 -0.7071,0 -0.1952,-0.1953 -0.1952,-0.5119 0,-0.7072 0.1952,-0.1952 0.5119,-0.1952 0.7071,0 l 6.364,-6.3639 c -0.1953,-0.1952 -0.1953,-0.5119 0,-0.7071 z"
   id="path48"
   inkscape:connector-curvature="0"
   style="fill:none;stroke:#1f1a17;stroke-width:0.0762"
   sodipodi:nodetypes="ccccccccccccccccc" />
  <path
   d="m 74.77527,104.82416 c 0.1953,-0.1952 0.5119,-0.1952 0.7072,0 0.1952,0.1952 0.1952,0.5119 0,0.7071 l 2.8284,2.82839 c 0.1952,-0.1952 0.5119,-0.1952 0.7071,0 0.1952,0.1953 0.1952,0.5119 0,0.7072 -0.1952,0.1952 -0.5119,0.1952 -0.7071,0 l -6.364,6.3639 c 0.1953,0.1952 0.1953,0.5119 0,0.7071 -0.1952,0.1953 -0.5119,0.1953 -0.7071,0 -0.1952,-0.1952 -0.1952,-0.5119 0,-0.7071 l -2.8284,-2.8284 c -0.1952,0.1952 -0.5119,0.1952 -0.7071,0 -0.1953,-0.1952 -0.1953,-0.5119 0,-0.7071 0.1952,-0.1953 0.5119,-0.1953 0.7071,0 l 6.3639,-6.36399 c -0.1952,-0.1952 -0.1952,-0.5119 0,-0.7071 z"
   id="path50"
   inkscape:connector-curvature="0"
   style="fill:none;stroke:#1f1a17;stroke-width:0.0762"
   sodipodi:nodetypes="ccccccccccccccccc" />
  <circle
   cx="326"
   cy="200"
   r="1.5"
   id="circle52"
   stroke-width="0.0762"
   stroke="#1F1A17"
   fill="none" />
  <circle
   cx="246"
   cy="200"
   r="1.5"
   id="circle54"
   stroke-width="0.0762"
   stroke="#1F1A17"
   fill="none" />
 </g>
<rect
   style="fill:none;stroke:#000000;stroke-width:0.16086668;stroke-miterlimit:4;stroke-opacity:1;stroke-dasharray:none;stroke-dashoffset:0"
   id="rect3008"
   width="2.1794388"
   height="1.8161988"
   x="596.07654"
   y="1.7801368" /><path
   inkscape:connector-curvature="0"
   d="m 22.221598,282.1683 32.808335,0 0,-32.45555 -32.808335,0 0,32.45555 z"
   style="fill:#231f20;fill-opacity:1;fill-rule:nonzero;stroke:none"
   id="path16-1" /><g
   id="g38"
   transform="matrix(0.3527778,0,0,-0.3527778,26.454861,253.59341)"><path
     inkscape:connector-curvature="0"
     d="m 0,0 11,0 0,-12 23,0 0,-23 24,0 0,-12 11,0 0,-23 -11,0 0,12 -12,0 0,11 -12,0 0,-23 -11,0 0,12 -23,0 0,23 11,0 0,-12 12,0 0,12 -12,0 0,12 -11,0 0,23 z"
     style="fill:#ffffff;fill-opacity:1;fill-rule:nonzero;stroke:none"
     id="path40-7" /></g><g
   id="g42"
   transform="matrix(0.3527778,0,0,-0.3527778,42.68264,253.59341)"><path
     inkscape:connector-curvature="0"
     d="m 0,0 23,0 0,-12 -11,0 0,-11 -12,0 0,23 z"
     style="fill:#ffffff;fill-opacity:1;fill-rule:nonzero;stroke:none"
     id="path44-4" /></g><path
   inkscape:connector-curvature="0"
   d="m 46.916044,261.70719 3.880556,0 0,4.23333 -3.880556,0 0,-4.23333 z"
   style="fill:#ffffff;fill-opacity:1;fill-rule:nonzero;stroke:none"
   id="path68" /></svg>