<?xml version="1.0" encoding="UTF-8" standalone="no"?>
<!-- Creator: CorelDRAW -->

<svg
   xmlns:dc="http://purl.org/dc/elements/1.1/"
   xmlns:cc="http://creativecommons.org/ns#"
   xmlns:rdf="http://www.w3.org/1999/02/22-rdf-syntax-ns#"
   xmlns:svg="http://www.w3.org/2000/svg"
   xmlns="http://www.w3.org/2000/svg"
   xmlns:sodipodi="http://sodipodi.sourceforge.net/DTD/sodipodi-0.dtd"
   xmlns:inkscape="http://www.inkscape.org/namespaces/inkscape"
   xml:space="preserve"
   width="60cm"
   height="30cm"
   shape-rendering="geometricPrecision"
   text-rendering="geometricPrecision"
   image-rendering="optimizeQuality"
   fill-rule="evenodd"
   clip-rule="evenodd"
   viewBox="0 0 600 300"
   id="svg2"
   version="1.1"
   inkscape:version="0.48.2 r9819"
   sodipodi:docname="BoxRightSideBACKSIDE.svg"><metadata
   id="metadata86"><rdf:RDF><cc:Work
       rdf:about=""><dc:format>image/svg+xml</dc:format><dc:type
         rdf:resource="http://purl.org/dc/dcmitype/StillImage" /></cc:Work></rdf:RDF></metadata><defs
   id="defs84" /><sodipodi:namedview
   pagecolor="#ffffff"
   bordercolor="#666666"
   borderopacity="1"
   objecttolerance="10"
   gridtolerance="10"
   guidetolerance="10"
   inkscape:pageopacity="0"
   inkscape:pageshadow="2"
   inkscape:window-width="1280"
   inkscape:window-height="738"
   id="namedview82"
   showgrid="false"
   inkscape:zoom="1.553917"
   inkscape:cx="926.56046"
   inkscape:cy="107.23714"
   inkscape:window-x="-8"
   inkscape:window-y="-8"
   inkscape:window-maximized="1"
   inkscape:current-layer="Layer_x0020_1" />
 <g
   id="Layer_x0020_1"
   transform="matrix(-1,0,0,1,603.00536,0)">
  <metadata
   id="CorelCorpID_0Corel-Layer" />
  <path
   d="M 165.594,10.3939 C 168.3087,7.6793 172.0587,6 176.2001,6 l 219.8,0 0,10 0,2.5 c -0.2761,0 -0.5,0.2239 -0.5,0.5 0,0.2761 0.2239,0.5 0.5,0.5 0.2761,0 0.5,-0.2239 0.5,-0.5 l 4.5,0 0,10 -4.5,0 c 0,-0.2761 -0.2239,-0.5 -0.5,-0.5 -0.2761,0 -0.5,0.2239 -0.5,0.5 0,0.2761 0.2239,0.5 0.5,0.5 l 0,3 -3.9447,0 0,-0.967855 -3.34675,-0.564445 0,1.5323 -3.70855,0 0,3 3.70855,0 0,1.468874 3.34675,-0.501227 0,-0.967647 3.9447,0 0,3 c -0.2761,0 -0.5,0.2239 -0.5,0.5 0,0.2761 0.2239,0.5 0.5,0.5 0.2761,0 0.5,-0.2239 0.5,-0.5 l 4.5,0 0,10 -4.5,0 c 0,-0.2761 -0.2239,-0.5 -0.5,-0.5 -0.2761,0 -0.5,0.2239 -0.5,0.5 0,0.2761 0.2239,0.5 0.5,0.5 l 0,1.5 0,1 0,77.5 0,2.5 c -0.2761,0 -0.5,0.2239 -0.5,0.5 0,0.2761 0.2239,0.5 0.5,0.5 0.2761,0 0.5,-0.2239 0.5,-0.5 l 4.5,0 0,10 -4.5,0 c 0,-0.2761 -0.2239,-0.5 -0.5,-0.5 -0.2761,0 -0.5,0.2239 -0.5,0.5 0,0.2761 0.2239,0.5 0.5,0.5 l 0,3 -3.9447,0 0,-0.96767 -3.34675,-0.56444 0,1.53211 -3.70855,0 0,3 3.70855,0 0,1.53228 3.34675,-0.56444 0,-0.96784 3.9447,0 0,3 c -0.2761,0 -0.5,0.2239 -0.5,0.5 0,0.2761 0.2239,0.5 0.5,0.5 0.2761,0 0.5,-0.2239 0.5,-0.5 l 4.5,0 0,10 -4.5,0 c 0,-0.2761 -0.2239,-0.5 -0.5,-0.5 -0.2761,0 -0.5,0.2239 -0.5,0.5 0,0.2761 0.2239,0.5 0.5,0.5 l 0,1.5 0,1 0,6.5 0,71 0,2.5 c -0.2761,0 -0.5,0.2239 -0.5,0.5 0,0.2761 0.2239,0.5 0.5,0.5 0.2761,0 0.5,-0.2239 0.5,-0.5 l 4.5,0 0,10 -4.5,0 c 0,-0.2761 -0.2239,-0.5 -0.5,-0.5 -0.2761,0 -0.5,0.2239 -0.5,0.5 0,0.2761 0.2239,0.5 0.5,0.5 l 0,3 -3.9447,0 0,-0.96776 -3.34675,-0.56444 0,1.5322 -3.70855,0 0,3 3.70855,0 0,1.53219 3.34675,-0.56445 0,-0.96774 3.9447,0 0,3 c -0.2761,0 -0.5,0.2239 -0.5,0.5 0,0.2761 0.2239,0.5 0.5,0.5 0.2761,0 0.5,-0.2239 0.5,-0.5 l 4.5,0 0,10 -4.5,0 c 0,-0.2761 -0.2239,-0.5 -0.5,-0.5 -0.2761,0 -0.5,0.2239 -0.5,0.5 0,0.2761 0.2239,0.5 0.5,0.5 l 0,1.5 0,1 0,10 0,3 -5,0 -0.3204,0 -4.1796,0 c 0,-0.2761 -0.2239,-0.5 -0.5,-0.5 -0.2761,0 -0.5,0.2239 -0.5,0.5 0,0.2761 0.2239,0.5 0.5,0.5 l 0,3.5 -10,0 0,-3.5 c 0.2761,0 0.5,-0.2239 0.5,-0.5 0,-0.2761 -0.2239,-0.5 -0.5,-0.5 -0.2761,0 -0.5,0.2239 -0.5,0.5 l -4.5,0 -0.3204,0 -2.0898,0 -2.0898,0 -1,0 -2.5,0 0,-16.2297 -10,0 0,16.2297 -2,0 -0.3204,0 -4.1796,0 -1,0 -9,0 -1,0 -1.2,0 0,-15.7297 -13,0 0,15.7297 -4.8,0 -1,0 -2.5,0 -1,0 -1,0 -0.3204,0 -3.6796,0 -0.5,0 -1,0 -2.9,0 0,-15.2964 -17,0 0,15.2964 -0.1,0 -9,0 -1,0 -2.5,0 -2,0 -0.3204,0 -4.1796,0 c 0,-0.2761 -0.2239,-0.5 -0.5,-0.5 -0.2761,0 -0.5,0.2239 -0.5,0.5 0,0.2761 0.2239,0.5 0.5,0.5 l 0,3.5 -10,0 0,-3.5 c 0.2761,0 0.5,-0.2239 0.5,-0.5 0,-0.2761 -0.2239,-0.5 -0.5,-0.5 -0.2761,0 -0.5,0.2239 -0.5,0.5 l -4.5,0 -0.3204,0 -4.1796,0 c 0,-0.2761 -0.2239,-0.5 -0.5,-0.5 -0.2761,0 -0.5,0.2239 -0.5,0.5 0,0.2761 0.2239,0.5 0.5,0.5 l 0,3.5 -10,0 0,-3.5 c 0.2761,0 0.5,-0.2239 0.5,-0.5 0,-0.2761 -0.2239,-0.5 -0.5,-0.5 -0.2761,0 -0.5,0.2239 -0.5,0.5 l -4.5,0 -0.3204,0 -4.1796,0 c 0,-0.2761 -0.2239,-0.5 -0.5,-0.5 -0.2761,0 -0.5,0.2239 -0.5,0.5 0,0.2761 0.2239,0.5 0.5,0.5 l 0,3.5 -10,0 0,-3.5 c 0.2761,0 0.5,-0.2239 0.5,-0.5 0,-0.2761 -0.2239,-0.5 -0.5,-0.5 -0.2761,0 -0.5,0.2239 -0.5,0.5 l -4.5,0 -0.3204,0 -4.1796,0 c 0,-0.2761 -0.2239,-0.5 -0.5,-0.5 -0.2761,0 -0.5,0.2239 -0.5,0.5 0,0.2761 0.2239,0.5 0.5,0.5 l 0,3.5 -10,0 0,-3.5 c 0.2761,0 0.5,-0.2239 0.5,-0.5 0,-0.2761 -0.2239,-0.5 -0.5,-0.5 -0.2761,0 -0.5,0.2239 -0.5,0.5 l -4.5,0 -0.3204,0 -4.1796,0 c 0,-0.2761 -0.2239,-0.5 -0.5,-0.5 -0.2761,0 -0.5,0.2239 -0.5,0.5 0,0.2761 0.2239,0.5 0.5,0.5 l 0,3.5 -10,0 0,-3.5 c 0.2761,0 0.5,-0.2239 0.5,-0.5 0,-0.2761 -0.2239,-0.5 -0.5,-0.5 -0.2761,0 -0.5,0.2239 -0.5,0.5 l -4.5,0 -0.3204,0 -4.1796,0 c 0,-0.2761 -0.2239,-0.5 -0.5,-0.5 -0.2761,0 -0.5,0.2239 -0.5,0.5 0,0.2761 0.2239,0.5 0.5,0.5 l 0,3.5 -10,0 0,-3.5 c 0.2761,0 0.5,-0.2239 0.5,-0.5 0,-0.2761 -0.2239,-0.5 -0.5,-0.5 -0.2761,0 -0.5,0.2239 -0.5,0.5 l -4.5,0 -0.3204,0 -4.1796,0 c 0,-0.2761 -0.2239,-0.5 -0.5,-0.5 -0.2761,0 -0.5,0.2239 -0.5,0.5 0,0.2761 0.2239,0.5 0.5,0.5 l 0,3.5 -10,0 0,-3.5 c 0.2761,0 0.5,-0.2239 0.5,-0.5 0,-0.2761 -0.2239,-0.5 -0.5,-0.5 -0.2761,0 -0.5,0.2239 -0.5,0.5 l -4.5,0 -0.3204,0 -4.1796,0 c 0,-0.2761 -0.2239,-0.5 -0.5,-0.5 -0.2761,0 -0.5,0.2239 -0.5,0.5 0,0.2761 0.2239,0.5 0.5,0.5 l 0,3.5 -10,0 0,-3.5 c 0.2761,0 0.5,-0.2239 0.5,-0.5 0,-0.2761 -0.2239,-0.5 -0.5,-0.5 -0.2761,0 -0.5,0.2239 -0.5,0.5 l -4.5,0 -0.3204,0 -4.1796,0 c 0,-0.2761 -0.2239,-0.5 -0.5,-0.5 -0.2761,0 -0.5,0.2239 -0.5,0.5 0,0.2761 0.2239,0.5 0.5,0.5 l 0,3.5 -10,0 0,-3.5 c 0.2761,0 0.5,-0.2239 0.5,-0.5 0,-0.2761 -0.2239,-0.5 -0.5,-0.5 -0.2761,0 -0.5,0.2239 -0.5,0.5 l -4.5,0 -0.3204,0 -4.1796,0 c 0,-0.2761 -0.2239,-0.5 -0.5,-0.5 -0.2761,0 -0.5,0.2239 -0.5,0.5 0,0.2761 0.2239,0.5 0.5,0.5 l 0,3.5 -10,0 0,-3.5 c 0.2761,0 0.5,-0.2239 0.5,-0.5 0,-0.2761 -0.2239,-0.5 -0.5,-0.5 -0.2761,0 -0.5,0.2239 -0.5,0.5 l -4.5,0 -0.3204,0 -4.1796,0 c 0,-0.2761 -0.2239,-0.5 -0.5,-0.5 -0.2761,0 -0.5,0.2239 -0.5,0.5 0,0.2761 0.2239,0.5 0.5,0.5 l 0,3.5 -10,0 0,-3.5 c 0.2761,0 0.5,-0.2239 0.5,-0.5 0,-0.2761 -0.2239,-0.5 -0.5,-0.5 -0.2761,0 -0.5,0.2239 -0.5,0.5 l -4.5,0 -0.3204,0 -4.1796,0 c 0,-0.2761 -0.2239,-0.5 -0.5,-0.5 -0.2761,0 -0.5,0.2239 -0.5,0.5 0,0.2761 0.2239,0.5 0.5,0.5 l 0,3.5 -10,0 0,-3.5 c 0.2761,0 0.5,-0.2239 0.5,-0.5 0,-0.2761 -0.2239,-0.5 -0.5,-0.5 -0.2761,0 -0.5,0.2239 -0.5,0.5 l -4.5,0 -0.3204,0 -4.1796,0 c 0,-0.2761 -0.2239,-0.5 -0.5,-0.5 -0.2761,0 -0.5,0.2239 -0.5,0.5 0,0.2761 0.2239,0.5 0.5,0.5 l 0,3.5 -10,0 0,-3.5 c 0.2761,0 0.5,-0.2239 0.5,-0.5 0,-0.2761 -0.2239,-0.5 -0.5,-0.5 -0.2761,0 -0.5,0.2239 -0.5,0.5 l -4.5,0 -7,0 0,-3 0,-111 0.0025,0 c 0.0505,-3.8603 1.5605,-7.3688 4.0026,-10 l -0.0051,0 157.606,-157.606 -0.0122,0 z"
   id="path6"
   inkscape:connector-curvature="0"
   style="fill:none;stroke:#1f1a17;stroke-width:0.0762"
   sodipodi:nodetypes="cscccssccccssccccccccccccccssccccsscccccssccccssccccccccccccccssccccssccccccssccccssccccccccccccccssccccssccccccccssccccssccccccccccccccccccccccccccccccccccccccccssccccssccccssccccssccccssccccssccccssccccssccccssccccssccccssccccssccccssccccssccccssccccssccccssccccssccccssccccssccccssccccssccccssccccssccccssccccssccccccccccc" />
  <circle
   transform="matrix(0,1,-1,0,9.5,261)"
   r="1.5"
   id="circle8"
   cx="0"
   cy="0"
   sodipodi:cx="0"
   sodipodi:cy="0"
   sodipodi:rx="1.5"
   sodipodi:ry="1.5"
   style="fill:none;stroke:#1f1a17;stroke-width:0.0762"
   d="M 1.5,0 C 1.5,0.82842712 0.82842712,1.5 0,1.5 -0.82842712,1.5 -1.5,0.82842712 -1.5,0 c 0,-0.82842712 0.67157288,-1.5 1.5,-1.5 0.82842712,0 1.5,0.67157288 1.5,1.5 z" />
  <path
   d="m 6.5,246 c 0,-0.2761 0.2239,-0.5 0.5,-0.5 0.2761,0 0.5,0.2239 0.5,0.5 l 4,0 c 0,-0.2761 0.2239,-0.5 0.5,-0.5 0.2761,0 0.5,0.2239 0.5,0.5 0,0.2761 -0.2239,0.5 -0.5,0.5 l 0,9 c 0.2761,0 0.5,0.2239 0.5,0.5 0,0.2761 -0.2239,0.5 -0.5,0.5 -0.2761,0 -0.5,-0.2239 -0.5,-0.5 l -4,0 c 0,0.2761 -0.2239,0.5 -0.5,0.5 -0.2761,0 -0.5,-0.2239 -0.5,-0.5 0,-0.2761 0.2239,-0.5 0.5,-0.5 l 0,-9 c -0.2761,0 -0.5,-0.2239 -0.5,-0.5 z"
   id="path10"
   inkscape:connector-curvature="0"
   style="fill:none;stroke:#1f1a17;stroke-width:0.0762" />
  <path
   d="m 6.5,266 c 0,-0.2761 0.2239,-0.5 0.5,-0.5 0.2761,0 0.5,0.2239 0.5,0.5 l 4,0 c 0,-0.2761 0.2239,-0.5 0.5,-0.5 0.2761,0 0.5,0.2239 0.5,0.5 0,0.2761 -0.2239,0.5 -0.5,0.5 l 0,9 c 0.2761,0 0.5,0.2239 0.5,0.5 0,0.2761 -0.2239,0.5 -0.5,0.5 -0.2761,0 -0.5,-0.2239 -0.5,-0.5 l -4,0 c 0,0.2761 -0.2239,0.5 -0.5,0.5 -0.2761,0 -0.5,-0.2239 -0.5,-0.5 0,-0.2761 0.2239,-0.5 0.5,-0.5 l 0,-9 c -0.2761,0 -0.5,-0.2239 -0.5,-0.5 z"
   id="path12"
   inkscape:connector-curvature="0"
   style="fill:none;stroke:#1f1a17;stroke-width:0.0762" />
  <circle
   transform="matrix(0,1,-1,0,9.5,200)"
   r="1.5"
   id="circle14"
   cx="0"
   cy="0"
   sodipodi:cx="0"
   sodipodi:cy="0"
   sodipodi:rx="1.5"
   sodipodi:ry="1.5"
   style="fill:none;stroke:#1f1a17;stroke-width:0.0762"
   d="M 1.5,0 C 1.5,0.82842712 0.82842712,1.5 0,1.5 -0.82842712,1.5 -1.5,0.82842712 -1.5,0 c 0,-0.82842712 0.67157288,-1.5 1.5,-1.5 0.82842712,0 1.5,0.67157288 1.5,1.5 z" />
  <path
   d="m 6.5,185 c 0,-0.2761 0.2239,-0.5 0.5,-0.5 0.2761,0 0.5,0.2239 0.5,0.5 l 4,0 c 0,-0.2761 0.2239,-0.5 0.5,-0.5 0.2761,0 0.5,0.2239 0.5,0.5 0,0.2761 -0.2239,0.5 -0.5,0.5 l 0,9 c 0.2761,0 0.5,0.2239 0.5,0.5 0,0.2761 -0.2239,0.5 -0.5,0.5 -0.2761,0 -0.5,-0.2239 -0.5,-0.5 l -4,0 c 0,0.2761 -0.2239,0.5 -0.5,0.5 -0.2761,0 -0.5,-0.2239 -0.5,-0.5 0,-0.2761 0.2239,-0.5 0.5,-0.5 l 0,-9 c -0.2761,0 -0.5,-0.2239 -0.5,-0.5 z"
   id="path16"
   inkscape:connector-curvature="0"
   style="fill:none;stroke:#1f1a17;stroke-width:0.0762" />
  <path
   d="m 6.5,205 c 0,-0.2761 0.2239,-0.5 0.5,-0.5 0.2761,0 0.5,0.2239 0.5,0.5 l 4,0 c 0,-0.2761 0.2239,-0.5 0.5,-0.5 0.2761,0 0.5,0.2239 0.5,0.5 0,0.2761 -0.2239,0.5 -0.5,0.5 l 0,9 c 0.2761,0 0.5,0.2239 0.5,0.5 0,0.2761 -0.2239,0.5 -0.5,0.5 -0.2761,0 -0.5,-0.2239 -0.5,-0.5 l -4,0 c 0,0.2761 -0.2239,0.5 -0.5,0.5 -0.2761,0 -0.5,-0.2239 -0.5,-0.5 0,-0.2761 0.2239,-0.5 0.5,-0.5 l 0,-9 c -0.2761,0 -0.5,-0.2239 -0.5,-0.5 z"
   id="path18"
   inkscape:connector-curvature="0"
   style="fill:none;stroke:#1f1a17;stroke-width:0.0762" />
  <circle
   cx="368"
   cy="11.5"
   r="1.5"
   id="circle20"
   sodipodi:cx="368"
   sodipodi:cy="11.5"
   sodipodi:rx="1.5"
   sodipodi:ry="1.5"
   style="fill:none;stroke:#1f1a17;stroke-width:0.0762"
   d="m 369.5,11.5 c 0,0.828427 -0.67157,1.5 -1.5,1.5 -0.82843,0 -1.5,-0.671573 -1.5,-1.5 0,-0.828427 0.67157,-1.5 1.5,-1.5 0.82843,0 1.5,0.671573 1.5,1.5 z" />
  <path
   d="m 383,8.5 c 0.2761,0 0.5,0.2239 0.5,0.5 0,0.2761 -0.2239,0.5 -0.5,0.5 l 0,4 c 0.2761,0 0.5,0.2239 0.5,0.5 0,0.2761 -0.2239,0.5 -0.5,0.5 -0.2761,0 -0.5,-0.2239 -0.5,-0.5 l -9,0 c 0,0.2761 -0.2239,0.5 -0.5,0.5 -0.2761,0 -0.5,-0.2239 -0.5,-0.5 0,-0.2761 0.2239,-0.5 0.5,-0.5 l 0,-4 c -0.2761,0 -0.5,-0.2239 -0.5,-0.5 0,-0.2761 0.2239,-0.5 0.5,-0.5 0.2761,0 0.5,0.2239 0.5,0.5 l 9,0 c 0,-0.2761 0.2239,-0.5 0.5,-0.5 z"
   id="path22"
   inkscape:connector-curvature="0"
   style="fill:none;stroke:#1f1a17;stroke-width:0.0762" />
  <path
   d="m 363,8.5 c 0.2761,0 0.5,0.2239 0.5,0.5 0,0.2761 -0.2239,0.5 -0.5,0.5 l 0,4 c 0.2761,0 0.5,0.2239 0.5,0.5 0,0.2761 -0.2239,0.5 -0.5,0.5 -0.2761,0 -0.5,-0.2239 -0.5,-0.5 l -9,0 c 0,0.2761 -0.2239,0.5 -0.5,0.5 -0.2761,0 -0.5,-0.2239 -0.5,-0.5 0,-0.2761 0.2239,-0.5 0.5,-0.5 l 0,-4 c -0.2761,0 -0.5,-0.2239 -0.5,-0.5 0,-0.2761 0.2239,-0.5 0.5,-0.5 0.2761,0 0.5,0.2239 0.5,0.5 l 9,0 c 0,-0.2761 0.2239,-0.5 0.5,-0.5 z"
   id="path24"
   inkscape:connector-curvature="0"
   style="fill:none;stroke:#1f1a17;stroke-width:0.0762" />
  <circle
   cx="198"
   cy="11.5"
   r="1.5"
   id="circle26"
   sodipodi:cx="198"
   sodipodi:cy="11.5"
   sodipodi:rx="1.5"
   sodipodi:ry="1.5"
   style="fill:none;stroke:#1f1a17;stroke-width:0.0762"
   d="m 199.5,11.5 c 0,0.828427 -0.67157,1.5 -1.5,1.5 -0.82843,0 -1.5,-0.671573 -1.5,-1.5 0,-0.828427 0.67157,-1.5 1.5,-1.5 0.82843,0 1.5,0.671573 1.5,1.5 z" />
  <path
   d="m 213,8.5 c 0.2761,0 0.5,0.2239 0.5,0.5 0,0.2761 -0.2239,0.5 -0.5,0.5 l 0,4 c 0.2761,0 0.5,0.2239 0.5,0.5 0,0.2761 -0.2239,0.5 -0.5,0.5 -0.2761,0 -0.5,-0.2239 -0.5,-0.5 l -9,0 c 0,0.2761 -0.2239,0.5 -0.5,0.5 -0.2761,0 -0.5,-0.2239 -0.5,-0.5 0,-0.2761 0.2239,-0.5 0.5,-0.5 l 0,-4 c -0.2761,0 -0.5,-0.2239 -0.5,-0.5 0,-0.2761 0.2239,-0.5 0.5,-0.5 0.2761,0 0.5,0.2239 0.5,0.5 l 9,0 c 0,-0.2761 0.2239,-0.5 0.5,-0.5 z"
   id="path28"
   inkscape:connector-curvature="0"
   style="fill:none;stroke:#1f1a17;stroke-width:0.0762" />
  <path
   d="m 193,8.5 c 0.2761,0 0.5,0.2239 0.5,0.5 0,0.2761 -0.2239,0.5 -0.5,0.5 l 0,4 c 0.2761,0 0.5,0.2239 0.5,0.5 0,0.2761 -0.2239,0.5 -0.5,0.5 -0.2761,0 -0.5,-0.2239 -0.5,-0.5 l -9,0 c 0,0.2761 -0.2239,0.5 -0.5,0.5 -0.2761,0 -0.5,-0.2239 -0.5,-0.5 0,-0.2761 0.2239,-0.5 0.5,-0.5 l 0,-4 c -0.2761,0 -0.5,-0.2239 -0.5,-0.5 0,-0.2761 0.2239,-0.5 0.5,-0.5 0.2761,0 0.5,0.2239 0.5,0.5 l 9,0 c 0,-0.2761 0.2239,-0.5 0.5,-0.5 z"
   id="path30"
   inkscape:connector-curvature="0"
   style="fill:none;stroke:#1f1a17;stroke-width:0.0762" />
  <path
   d="m 306.46669,8.5 c 0.2761,0 0.5,0.2239 0.5,0.5 0,0.2761 -0.2239,0.5 -0.5,0.5 l 0,4 c 0.2761,0 0.5,0.2239 0.5,0.5 0,0.2761 -0.2239,0.5 -0.5,0.5 -0.2761,0 -0.5,-0.2239 -0.5,-0.5 l -9,0 c 0,0.2761 -0.2239,0.5 -0.5,0.5 -0.2761,0 -0.5,-0.2239 -0.5,-0.5 0,-0.2761 0.2239,-0.5 0.5,-0.5 l 0,-4 c -0.2761,0 -0.5,-0.2239 -0.5,-0.5 0,-0.2761 0.2239,-0.5 0.5,-0.5 0.2761,0 0.5,0.2239 0.5,0.5 l 9,0 c 0,-0.2761 0.2239,-0.5 0.5,-0.5 z"
   id="path32"
   inkscape:connector-curvature="0"
   style="fill:none;stroke:#1f1a17;stroke-width:0.0762"
   sodipodi:nodetypes="ssccssccssccssccs" />
  <path
   d="m 269.5334,8.5 c 0.2761,0 0.5,0.2239 0.5,0.5 0,0.2761 -0.2239,0.5 -0.5,0.5 l 0,4 c 0.2761,0 0.5,0.2239 0.5,0.5 0,0.2761 -0.2239,0.5 -0.5,0.5 -0.2761,0 -0.5,-0.2239 -0.5,-0.5 l -9,0 c 0,0.2761 -0.2239,0.5 -0.5,0.5 -0.2761,0 -0.5,-0.2239 -0.5,-0.5 0,-0.2761 0.2239,-0.5 0.5,-0.5 l 0,-4 c -0.2761,0 -0.5,-0.2239 -0.5,-0.5 0,-0.2761 0.2239,-0.5 0.5,-0.5 0.2761,0 0.5,0.2239 0.5,0.5 l 9,0 c 0,-0.2761 0.2239,-0.5 0.5,-0.5 z"
   id="path34"
   inkscape:connector-curvature="0"
   style="fill:none;stroke:#1f1a17;stroke-width:0.0762"
   sodipodi:nodetypes="ssccssccssccssccs" />
  <circle
   transform="matrix(-0.707107,0.707107,-0.707107,-0.707107,151.825,32.017)"
   r="1.5"
   id="circle36"
   cx="0"
   cy="0"
   sodipodi:cx="0"
   sodipodi:cy="0"
   sodipodi:rx="1.5"
   sodipodi:ry="1.5"
   style="fill:none;stroke:#1f1a17;stroke-width:0.0762"
   d="M 1.5,0 C 1.5,0.82842712 0.82842712,1.5 0,1.5 -0.82842712,1.5 -1.5,0.82842712 -1.5,0 c 0,-0.82842712 0.67157288,-1.5 1.5,-1.5 0.82842712,0 1.5,0.67157288 1.5,1.5 z" />
  <path
   d="m 160.31,19.2891 c 0.1952,-0.1952 0.5118,-0.1952 0.7071,0 0.1952,0.1952 0.1952,0.5119 0,0.7071 l 2.8284,2.8284 c 0.1952,-0.1952 0.5119,-0.1952 0.7071,0 0.1952,0.1953 0.1952,0.5119 0,0.7071 -0.1952,0.1953 -0.5119,0.1953 -0.7071,0 l -6.364,6.364 c 0.1953,0.1952 0.1953,0.5119 0,0.7071 -0.1952,0.1952 -0.5118,0.1952 -0.7071,0 -0.1952,-0.1952 -0.1952,-0.5119 0,-0.7071 l -2.8284,-2.8284 c -0.1952,0.1952 -0.5119,0.1952 -0.7071,0 -0.1952,-0.1953 -0.1952,-0.5119 0,-0.7071 0.1952,-0.1953 0.5119,-0.1953 0.7071,0 l 6.364,-6.364 c -0.1953,-0.1952 -0.1953,-0.5119 0,-0.7071 z"
   id="path38"
   inkscape:connector-curvature="0"
   style="fill:none;stroke:#1f1a17;stroke-width:0.0762" />
  <path
   d="m 146.168,33.4312 c 0.1953,-0.1952 0.5119,-0.1952 0.7071,0 0.1953,0.1953 0.1953,0.5119 0,0.7071 l 2.8285,2.8285 c 0.1952,-0.1953 0.5118,-0.1953 0.7071,0 0.1952,0.1952 0.1952,0.5118 0,0.7071 -0.1953,0.1952 -0.5119,0.1952 -0.7071,0 l -6.364,6.3639 c 0.1952,0.1953 0.1952,0.5119 0,0.7071 -0.1952,0.1953 -0.5119,0.1953 -0.7071,0 -0.1952,-0.1952 -0.1952,-0.5118 0,-0.7071 l -2.8284,-2.8284 c -0.1953,0.1952 -0.5119,0.1952 -0.7071,0 -0.1953,-0.1952 -0.1953,-0.5119 0,-0.7071 0.1952,-0.1952 0.5118,-0.1952 0.7071,0 l 6.3639,-6.364 c -0.1952,-0.1952 -0.1952,-0.5118 0,-0.7071 z"
   id="path40"
   inkscape:connector-curvature="0"
   style="fill:none;stroke:#1f1a17;stroke-width:0.0762" />
  <circle
   transform="matrix(-0.707107,0.707107,-0.707107,-0.707107,31.617,152.225)"
   r="1.5"
   id="circle42"
   cx="0"
   cy="0"
   sodipodi:cx="0"
   sodipodi:cy="0"
   sodipodi:rx="1.5"
   sodipodi:ry="1.5"
   style="fill:none;stroke:#1f1a17;stroke-width:0.0762"
   d="M 1.5,0 C 1.5,0.82842712 0.82842712,1.5 0,1.5 -0.82842712,1.5 -1.5,0.82842712 -1.5,0 c 0,-0.82842712 0.67157288,-1.5 1.5,-1.5 0.82842712,0 1.5,0.67157288 1.5,1.5 z" />
  <path
   d="m 40.1023,139.497 c 0.1952,-0.1953 0.5119,-0.1953 0.7071,0 0.1952,0.1952 0.1952,0.5118 0,0.7071 l 2.8284,2.8284 c 0.1953,-0.1952 0.5119,-0.1952 0.7071,0 0.1953,0.1952 0.1953,0.5119 0,0.7071 -0.1952,0.1952 -0.5118,0.1952 -0.7071,0 l -6.3639,6.364 c 0.1952,0.1952 0.1952,0.5118 0,0.7071 -0.1953,0.1952 -0.5119,0.1952 -0.7071,0 -0.1953,-0.1953 -0.1953,-0.5119 0,-0.7071 l -2.8285,-2.8285 c -0.1952,0.1953 -0.5118,0.1953 -0.7071,0 -0.1952,-0.1952 -0.1952,-0.5118 0,-0.7071 0.1953,-0.1952 0.5119,-0.1952 0.7071,0 l 6.364,-6.3639 c -0.1952,-0.1953 -0.1952,-0.5119 0,-0.7071 z"
   id="path44"
   inkscape:connector-curvature="0"
   style="fill:none;stroke:#1f1a17;stroke-width:0.0762" />
  <path
   d="m 25.9602,153.639 c 0.1952,-0.1952 0.5118,-0.1952 0.7071,0 0.1952,0.1952 0.1952,0.5119 0,0.7071 l 2.8284,2.8284 c 0.1952,-0.1952 0.5119,-0.1952 0.7071,0 0.1952,0.1953 0.1952,0.5119 0,0.7071 -0.1952,0.1953 -0.5119,0.1953 -0.7071,0 l -6.364,6.364 c 0.1953,0.1952 0.1953,0.5119 0,0.7071 -0.1952,0.1952 -0.5118,0.1952 -0.7071,0 -0.1952,-0.1952 -0.1952,-0.5119 0,-0.7071 l -2.8284,-2.8284 c -0.1952,0.1952 -0.5119,0.1952 -0.7071,0 -0.1952,-0.1953 -0.1952,-0.5119 0,-0.7071 0.1952,-0.1953 0.5119,-0.1953 0.7071,0 l 6.364,-6.364 c -0.1953,-0.1952 -0.1953,-0.5119 0,-0.7071 z"
   id="path46"
   inkscape:connector-curvature="0"
   style="fill:none;stroke:#1f1a17;stroke-width:0.0762" />
  <path
   d="m 100.206,79.3932 c 0.1952,-0.1953 0.5119,-0.1953 0.7071,0 0.1952,0.1952 0.1952,0.5119 0,0.7071 l 2.8284,2.8284 c 0.1952,-0.1952 0.5119,-0.1952 0.7071,0 0.1953,0.1952 0.1953,0.5119 0,0.7071 -0.1952,0.1953 -0.5119,0.1953 -0.7071,0 l -6.3639,6.364 c 0.1952,0.1952 0.1952,0.5119 0,0.7071 -0.1953,0.1952 -0.5119,0.1952 -0.7072,0 -0.1952,-0.1952 -0.1952,-0.5119 0,-0.7071 L 93.842,87.1714 c -0.1952,0.1952 -0.5119,0.1952 -0.7071,0 -0.1952,-0.1953 -0.1952,-0.5119 0,-0.7072 0.1952,-0.1952 0.5119,-0.1952 0.7071,0 l 6.364,-6.3639 c -0.1953,-0.1952 -0.1953,-0.5119 0,-0.7071 z"
   id="path48"
   inkscape:connector-curvature="0"
   style="fill:none;stroke:#1f1a17;stroke-width:0.0762" />
  <path
   d="m 86.0642,93.5353 c 0.1953,-0.1952 0.5119,-0.1952 0.7072,0 0.1952,0.1952 0.1952,0.5119 0,0.7071 l 2.8284,2.8284 c 0.1952,-0.1952 0.5119,-0.1952 0.7071,0 0.1952,0.1953 0.1952,0.5119 0,0.7072 -0.1952,0.1952 -0.5119,0.1952 -0.7071,0 l -6.364,6.3639 c 0.1953,0.1952 0.1953,0.5119 0,0.7071 -0.1952,0.1953 -0.5119,0.1953 -0.7071,0 -0.1952,-0.1952 -0.1952,-0.5119 0,-0.7071 l -2.8284,-2.8284 c -0.1952,0.1952 -0.5119,0.1952 -0.7071,0 -0.1953,-0.1952 -0.1953,-0.5119 0,-0.7071 0.1952,-0.1953 0.5119,-0.1953 0.7071,0 l 6.3639,-6.364 c -0.1952,-0.1952 -0.1952,-0.5119 0,-0.7071 z"
   id="path50"
   inkscape:connector-curvature="0"
   style="fill:none;stroke:#1f1a17;stroke-width:0.0762" />
  <circle
   cx="326"
   cy="200"
   r="1.5"
   id="circle52"
   sodipodi:cx="326"
   sodipodi:cy="200"
   sodipodi:rx="1.5"
   sodipodi:ry="1.5"
   style="fill:none;stroke:#1f1a17;stroke-width:0.0762"
   d="m 327.5,200 c 0,0.82843 -0.67157,1.5 -1.5,1.5 -0.82843,0 -1.5,-0.67157 -1.5,-1.5 0,-0.82843 0.67157,-1.5 1.5,-1.5 0.82843,0 1.5,0.67157 1.5,1.5 z" />
  <circle
   cx="246"
   cy="200"
   r="1.5"
   id="circle54"
   sodipodi:cx="246"
   sodipodi:cy="200"
   sodipodi:rx="1.5"
   sodipodi:ry="1.5"
   style="fill:none;stroke:#1f1a17;stroke-width:0.0762"
   d="m 247.5,200 c 0,0.82843 -0.67157,1.5 -1.5,1.5 -0.82843,0 -1.5,-0.67157 -1.5,-1.5 0,-0.82843 0.67157,-1.5 1.5,-1.5 0.82843,0 1.5,0.67157 1.5,1.5 z" />
  
  
  
  
  
  
  
  
  
  
  
  
  
  
  
  
 <path
   inkscape:connector-curvature="0"
   d="m 53.87199,282.48024 -32.80834,0 0,-32.45555 32.80834,0 0,32.45555 z"
   style="fill:#231f20;fill-opacity:1;fill-rule:nonzero;stroke:none"
   id="path20" /><g
   id="g50"
   transform="matrix(-0.3527778,0,0,-0.3527778,49.63873,253.90535)"><path
     inkscape:connector-curvature="0"
     d="m 0,0 11,0 0,-12 35,0 0,-35 -12,0 0,24 -11,0 0,-35 -12,0 0,23 -11,0 0,35 z"
     style="fill:#ffffff;fill-opacity:1;fill-rule:nonzero;stroke:none"
     id="path52" /></g><path
   inkscape:connector-curvature="0"
   d="m 33.41088,253.90524 -8.11389,0 0,4.23333 8.11389,0 0,-4.23333 z"
   style="fill:#ffffff;fill-opacity:1;fill-rule:nonzero;stroke:none"
   id="path54" /><path
   inkscape:connector-curvature="0"
   d="m 29.17754,266.25246 -3.88055,0 0,8.11389 3.88055,0 0,-8.11389 z"
   style="fill:#ffffff;fill-opacity:1;fill-rule:nonzero;stroke:none"
   id="path82" /><path
   inkscape:connector-curvature="0"
   d="m 49.63866,274.36635 -3.88056,0 0,4.23334 3.88056,0 0,-4.23334 z"
   style="fill:#ffffff;fill-opacity:1;fill-rule:nonzero;stroke:none"
   id="path92" /><path
   inkscape:connector-curvature="0"
   d="m 33.41088,274.36635 -4.23334,0 0,4.23334 4.23334,0 0,-4.23334 z"
   style="fill:#ffffff;fill-opacity:1;fill-rule:nonzero;stroke:none"
   id="path94" /></g>
<rect
   style="fill:none;stroke:#000000;stroke-width:0.13375671;stroke-miterlimit:4;stroke-opacity:1;stroke-dasharray:none;stroke-dashoffset:0"
   id="rect3008"
   width="1.7249563"
   height="1.5864595"
   x="-5.7538347"
   y="1.1127809"
   transform="scale(-1,1)" /></svg>