<?xml version="1.0" encoding="UTF-8" standalone="no"?>
<!-- Creator: CorelDRAW -->

<svg
   xmlns:dc="http://purl.org/dc/elements/1.1/"
   xmlns:cc="http://creativecommons.org/ns#"
   xmlns:rdf="http://www.w3.org/1999/02/22-rdf-syntax-ns#"
   xmlns:svg="http://www.w3.org/2000/svg"
   xmlns="http://www.w3.org/2000/svg"
   xmlns:sodipodi="http://sodipodi.sourceforge.net/DTD/sodipodi-0.dtd"
   xmlns:inkscape="http://www.inkscape.org/namespaces/inkscape"
   xml:space="preserve"
   width="60cm"
   height="30cm"
   shape-rendering="geometricPrecision"
   text-rendering="geometricPrecision"
   image-rendering="optimizeQuality"
   fill-rule="evenodd"
   clip-rule="evenodd"
   viewBox="0 0 600 300"
   id="svg2"
   version="1.1"
   inkscape:version="0.48.2 r9819"
   sodipodi:docname="BoxTopSlopeFrontBACKSIDE.svg"><metadata
   id="metadata68"><rdf:RDF><cc:Work
       rdf:about=""><dc:format>image/svg+xml</dc:format><dc:type
         rdf:resource="http://purl.org/dc/dcmitype/StillImage" /></cc:Work></rdf:RDF></metadata><defs
   id="defs66" /><sodipodi:namedview
   pagecolor="#ffffff"
   bordercolor="#666666"
   borderopacity="1"
   objecttolerance="10"
   gridtolerance="10"
   guidetolerance="10"
   inkscape:pageopacity="0"
   inkscape:pageshadow="2"
   inkscape:window-width="1366"
   inkscape:window-height="744"
   id="namedview64"
   showgrid="false"
   inkscape:zoom="2.1975704"
   inkscape:cx="1861.6005"
   inkscape:cy="919.49829"
   inkscape:window-x="0"
   inkscape:window-y="24"
   inkscape:window-maximized="1"
   inkscape:current-layer="Layer_x0020_1" />
 <g
   id="Layer_x0020_1"
   transform="matrix(-1,0,0,1,599.87109,0)">
  <metadata
   id="CorelCorpID_0Corel-Layer" />
  <path
   d="M 223.241,6 L 223.241,290 L 205.71109,290 L 204.71109,290 L 203.21109,290 C 203.21109,289.7239 202.98719,289.5 202.71109,289.5 C 202.43499,289.5 202.21109,289.7239 202.21109,290 C 202.21109,290.2761 202.43499,290.5 202.71109,290.5 L 202.71109,295 L 192.71109,295 L 192.71109,290.5 C 192.98719,290.5 193.21109,290.2761 193.21109,290 C 193.21109,289.7239 192.98719,289.5 192.71109,289.5 C 192.43499,289.5 192.21109,289.7239 192.21109,290 L 189.21109,290 L 189.21109,286.0553 L 190.17894,286.0553 L 190.74339,282.70853 L 189.21109,282.70853 L 189.21109,279 L 186.21109,279 L 186.21109,282.70853 L 184.679,282.70853 L 185.24344,286.0553 L 186.21109,286.0553 L 186.21109,290 L 183.21109,290 C 183.21109,289.7239 182.98719,289.5 182.71109,289.5 C 182.43499,289.5 182.21109,289.7239 182.21109,290 C 182.21109,290.2761 182.43499,290.5 182.71109,290.5 L 182.71109,295 L 172.71109,295 L 172.71109,290.5 C 172.98719,290.5 173.21109,290.2761 173.21109,290 C 173.21109,289.7239 172.98719,289.5 172.71109,289.5 C 172.43499,289.5 172.21109,289.7239 172.21109,290 L 169.71109,290 L 132,290 L 131,290 L 129.5,290 C 129.5,289.7239 129.2761,289.5 129,289.5 C 128.7239,289.5 128.5,289.7239 128.5,290 C 128.5,290.2761 128.7239,290.5 129,290.5 L 129,295 L 119,295 L 119,290.5 C 119.2761,290.5 119.5,290.2761 119.5,290 C 119.5,289.7239 119.2761,289.5 119,289.5 C 118.7239,289.5 118.5,289.7239 118.5,290 L 117,290 L 115.5,290 L 112.5,290 L 111,290 L 109.5,290 C 109.5,289.7239 109.2761,289.5 109,289.5 C 108.7239,289.5 108.5,289.7239 108.5,290 C 108.5,290.2761 108.7239,290.5 109,290.5 L 109,295 L 99.000004,295 L 99.000004,290.5 C 99.276104,290.5 99.500004,290.2761 99.500004,290 C 99.500004,289.7239 99.276104,289.5 99.000004,289.5 C 98.723904,289.5 98.500004,289.7239 98.500004,290 L 96.000004,290 L 58.288918,290 L 57.288918,290 L 55.788918,290 C 55.788918,289.7239 55.565018,289.5 55.288918,289.5 C 55.012818,289.5 54.788918,289.7239 54.788918,290 C 54.788918,290.2761 55.012818,290.5 55.288918,290.5 L 55.288918,295 L 45.288918,295 L 45.288918,290.5 C 45.565018,290.5 45.788918,290.2761 45.788918,290 C 45.788918,289.7239 45.565018,289.5 45.288918,289.5 C 45.012818,289.5 44.788918,289.7239 44.788918,290 L 41.788918,290 L 41.788918,286.0553 L 42.756772,286.0553 L 43.321216,282.70853 L 41.788918,282.70853 L 41.788918,279 L 38.788918,279 L 38.788918,282.70853 L 37.256825,282.70853 L 37.821269,286.0553 L 38.788918,286.0553 L 38.788918,290 L 35.788918,290 C 35.788918,289.7239 35.565018,289.5 35.288918,289.5 C 35.012818,289.5 34.788918,289.7239 34.788918,290 C 34.788918,290.2761 35.012818,290.5 35.288918,290.5 L 35.288918,295 L 25.288918,295 L 25.288918,290.5 C 25.565018,290.5 25.788918,290.2761 25.788918,290 C 25.788918,289.7239 25.565018,289.5 25.288918,289.5 C 25.012818,289.5 24.788918,289.7239 24.788918,290 L 22.288918,290 L 0.9999,290 L 0.9999,6 L 10.9999,6 L 13.4999,6 C 13.4999,6.2761 13.7238,6.5 13.9999,6.5 C 14.276,6.5 14.4999,6.2761 14.4999,6 C 14.4999,5.7239 14.276,5.5 13.9999,5.5 L 13.9999,1 L 23.9999,1 L 23.9999,5.5 C 23.7238,5.5 23.4999,5.7239 23.4999,6 C 23.4999,6.2761 23.7238,6.5 23.9999,6.5 C 24.276,6.5 24.4999,6.2761 24.4999,6 L 27.4999,6 L 27.4999,9.9447 L 26.532097,9.9447 L 25.967653,13.291275 L 27.4999,13.291275 L 27.4999,17 L 30.4999,17 L 30.4999,13.291275 L 32.032044,13.291275 L 31.4676,9.9447 L 30.4999,9.9447 L 30.4999,6 L 33.4999,6 C 33.4999,6.2761 33.7238,6.5 33.9999,6.5 C 34.276,6.5 34.4999,6.2761 34.4999,6 C 34.4999,5.7239 34.276,5.5 33.9999,5.5 L 33.9999,1 L 43.9999,1 L 43.9999,5.5 C 43.7238,5.5 43.4999,5.7239 43.4999,6 C 43.4999,6.2761 43.7238,6.5 43.9999,6.5 C 44.276,6.5 44.4999,6.2761 44.4999,6 L 45.9999,6 L 46.9999,6 L 87.533063,6 L 90.033063,6 C 90.033063,6.2761 90.256963,6.5 90.533063,6.5 C 90.809163,6.5 91.033063,6.2761 91.033063,6 C 91.033063,5.7239 90.809163,5.5 90.533063,5.5 L 90.533063,1 L 100.53306,1 L 100.53306,5.5 C 100.25696,5.5 100.03306,5.7239 100.03306,6 C 100.03306,6.2761 100.25696,6.5 100.53306,6.5 C 100.80916,6.5 101.03306,6.2761 101.03306,6 L 108.17763,6 L 109.67763,6 L 115.4999,6 L 119.822,6 L 126.96649,6 C 126.96649,6.2761 127.19039,6.5 127.46649,6.5 C 127.74259,6.5 127.96649,6.2761 127.96649,6 C 127.96649,5.7239 127.74259,5.5 127.46649,5.5 L 127.46649,1 L 137.46649,1 L 137.46649,5.5 C 137.19039,5.5 136.96649,5.7239 136.96649,6 C 136.96649,6.2761 137.19039,6.5 137.46649,6.5 C 137.74259,6.5 137.96649,6.2761 137.96649,6 L 139.46649,6 L 140.46649,6 L 180.9999,6 L 183.4999,6 C 183.4999,6.2761 183.7238,6.5 183.9999,6.5 C 184.276,6.5 184.4999,6.2761 184.4999,6 C 184.4999,5.7239 184.276,5.5 183.9999,5.5 L 183.9999,1 L 193.9999,1 L 193.9999,5.5 C 193.7238,5.5 193.4999,5.7239 193.4999,6 C 193.4999,6.2761 193.7238,6.5 193.9999,6.5 C 194.276,6.5 194.4999,6.2761 194.4999,6 L 197.4999,6 L 197.4999,9.9447 L 196.53205,9.9447 L 195.9676,13.291275 L 197.4999,13.291275 L 197.4999,17 L 200.4999,17 L 200.4999,13.291275 L 202.032,13.291275 L 201.46755,9.9447 L 200.4999,9.9447 L 200.4999,6 L 203.4999,6 C 203.4999,6.2761 203.7238,6.5 203.9999,6.5 C 204.276,6.5 204.4999,6.2761 204.4999,6 C 204.4999,5.7239 204.276,5.5 203.9999,5.5 L 203.9999,1 L 213.9999,1 L 213.9999,5.5 C 213.7238,5.5 213.4999,5.7239 213.4999,6 C 213.4999,6.2761 213.7238,6.5 213.9999,6.5 C 214.276,6.5 214.4999,6.2761 214.4999,6 L 215.9999,6 L 216.9999,6 z"
   id="path6"
   inkscape:connector-curvature="0"
   style="fill:none;stroke:#1f1a17;stroke-width:0.0762"
   sodipodi:nodetypes="cccccssccccssccccccccccccccssccccsscccccssccccssccccccssccccsscccccssccccssccccccccccccccssccccssccccccssccccssccccccccccccccssccccsscccccssccccssccccccssccccsscccccssccccssccccccccccccccssccccsscccc" />
  <rect
   transform="matrix(0,-1,1,0,0,0)"
   width="205.8913"
   height="182.241"
   rx="7.688859"
   ry="9.1120005"
   id="rect8"
   x="-270"
   y="21"
   style="fill:none;stroke:#1f1a17;stroke-width:0.06999694" />
  <path
   d="M 437.758,290 L 437.233,290 C 437.233,289.7239 437.0091,289.5 436.733,289.5 C 436.4569,289.5 436.233,289.7239 436.233,290 C 436.233,290.2761 436.4569,290.5 436.733,290.5 L 436.733,295 L 426.733,295 L 426.733,290.5 C 427.0091,290.5 427.233,290.2761 427.233,290 C 427.233,289.7239 427.0091,289.5 426.733,289.5 C 426.4569,289.5 426.233,289.7239 426.233,290 L 423.233,290 L 423.233,286.0553 L 424.20073,286.0553 L 424.76517,282.70871 L 423.233,282.70871 L 423.233,279 L 420.233,279 L 420.233,282.70871 L 418.70078,282.70871 L 419.26523,286.0553 L 420.233,286.0553 L 420.233,290 L 417.233,290 C 417.233,289.7239 417.0091,289.5 416.733,289.5 C 416.4569,289.5 416.233,289.7239 416.233,290 C 416.233,290.2761 416.4569,290.5 416.733,290.5 L 416.733,295 L 406.733,295 L 406.733,290.5 C 407.0091,290.5 407.233,290.2761 407.233,290 C 407.233,289.7239 407.0091,289.5 406.733,289.5 C 406.4569,289.5 406.233,289.7239 406.233,290 L 404.733,290 L 403.733,290 L 403.733,290.008 L 370.72256,290.008 L 368.22256,290.008 C 368.22256,289.7319 367.99866,289.508 367.72256,289.508 C 367.44646,289.508 367.22256,289.7319 367.22256,290.008 C 367.22256,290.2841 367.44646,290.508 367.72256,290.508 L 367.72256,295.008 L 357.72256,295.008 L 357.72256,290.508 C 357.99866,290.508 358.22256,290.2841 358.22256,290.008 C 358.22256,289.7319 357.99866,289.508 357.72256,289.508 C 357.44646,289.508 357.22256,289.7319 357.22256,290.008 L 355.96406,290.008 L 354.22256,290.008 L 351.22256,290.008 L 348.96406,290.008 L 348.22256,290.008 C 348.22256,289.7319 347.99866,289.508 347.72256,289.508 C 347.44646,289.508 347.22256,289.7319 347.22256,290.008 C 347.22256,290.2841 347.44646,290.508 347.72256,290.508 L 347.72256,295.008 L 337.72256,295.008 L 337.72256,290.508 C 337.99866,290.508 338.22256,290.2841 338.22256,290.008 C 338.22256,289.7319 337.99866,289.508 337.72256,289.508 C 337.44646,289.508 337.22256,289.7319 337.22256,290.008 L 335.72256,290.008 L 334.72256,290.008 L 334.72256,290.0079 L 269.758,290.0079 L 269.758,290.008 L 267.258,290.008 C 267.258,289.7319 267.0341,289.508 266.758,289.508 C 266.4819,289.508 266.258,289.7319 266.258,290.008 C 266.258,290.2841 266.4819,290.508 266.758,290.508 L 266.758,295.008 L 256.758,295.008 L 256.758,290.508 C 257.0341,290.508 257.258,290.2841 257.258,290.008 C 257.258,289.7319 257.0341,289.508 256.758,289.508 C 256.4819,289.508 256.258,289.7319 256.258,290.008 L 253.258,290.008 L 253.258,286.0633 L 254.22589,286.0633 L 254.79034,282.71671 L 253.258,282.71671 L 253.258,279.008 L 250.258,279.008 L 250.258,282.71671 L 248.72567,282.71671 L 249.29011,286.0633 L 250.258,286.0633 L 250.258,290.008 L 247.258,290.008 C 247.258,289.7319 247.0341,289.508 246.758,289.508 C 246.4819,289.508 246.258,289.7319 246.258,290.008 C 246.258,290.2841 246.4819,290.508 246.758,290.508 L 246.758,295.008 L 236.758,295.008 L 236.758,290.508 C 237.0341,290.508 237.258,290.2841 237.258,290.008 C 237.258,289.7319 237.0341,289.508 236.758,289.508 C 236.4819,289.508 236.258,289.7319 236.258,290.008 L 234.758,290.008 L 233.758,290.008 L 233.758,290.0079 L 228.5995,290.0079 L 223.9995,290.0079 L 223.9995,273.0079 L 223.9995,6.0079 L 228.5995,6.0079 L 228.5995,6 L 233.758,6 L 234.758,6 L 236.258,6 C 236.258,6.2761 236.4819,6.5 236.758,6.5 C 237.0341,6.5 237.258,6.2761 237.258,6 C 237.258,5.7239 237.0341,5.5 236.758,5.5 L 236.758,1 L 246.758,1 L 246.758,5.5 C 246.4819,5.5 246.258,5.7239 246.258,6 C 246.258,6.2761 246.4819,6.5 246.758,6.5 C 247.0341,6.5 247.258,6.2761 247.258,6 L 250.258,6 L 250.258,9.9447 L 249.29011,9.9447 L 248.72567,13.291275 L 250.258,13.291275 L 250.258,17 L 253.258,17 L 253.258,13.291275 L 254.79034,13.291275 L 254.22589,9.9447 L 253.258,9.9447 L 253.258,6 L 256.258,6 C 256.258,6.2761 256.4819,6.5 256.758,6.5 C 257.0341,6.5 257.258,6.2761 257.258,6 C 257.258,5.7239 257.0341,5.5 256.758,5.5 L 256.758,1 L 266.758,1 L 266.758,5.5 C 266.4819,5.5 266.258,5.7239 266.258,6 C 266.258,6.2761 266.4819,6.5 266.758,6.5 C 267.0341,6.5 267.258,6.2761 267.258,6 L 269.758,6 L 318.758,6 L 319.758,6 L 321.258,6 C 321.258,6.2761 321.4819,6.5 321.758,6.5 C 322.0341,6.5 322.258,6.2761 322.258,6 C 322.258,5.7239 322.0341,5.5 321.758,5.5 L 321.758,1 L 331.758,1 L 331.758,5.5 C 331.4819,5.5 331.258,5.7239 331.258,6 C 331.258,6.2761 331.4819,6.5 331.758,6.5 C 332.0341,6.5 332.258,6.2761 332.258,6 L 335.258,6 L 335.258,6.008 L 338.258,6.008 L 338.258,6 L 341.258,6 C 341.258,6.2761 341.4819,6.5 341.758,6.5 C 342.0341,6.5 342.258,6.2761 342.258,6 C 342.258,5.7239 342.0341,5.5 341.758,5.5 L 341.758,1 L 351.758,1 L 351.758,5.5 C 351.4819,5.5 351.258,5.7239 351.258,6 C 351.258,6.2761 351.4819,6.5 351.758,6.5 C 352.0341,6.5 352.258,6.2761 352.258,6 L 354.758,6 L 354.758,6.008 L 403.733,6.008 L 404.733,6.008 L 406.233,6.008 C 406.233,6.2841 406.4569,6.508 406.733,6.508 C 407.0091,6.508 407.233,6.2841 407.233,6.008 C 407.233,5.7319 407.0091,5.508 406.733,5.508 L 406.733,1.008 L 416.733,1.008 L 416.733,5.508 C 416.4569,5.508 416.233,5.7319 416.233,6.008 C 416.233,6.2841 416.4569,6.508 416.733,6.508 C 417.0091,6.508 417.233,6.2841 417.233,6.008 L 420.233,6.008 L 420.233,9.9527 L 419.26523,9.9527 L 418.70078,13.299459 L 420.233,13.299459 L 420.233,17.008 L 423.233,17.008 L 423.233,13.299459 L 424.76517,13.299459 L 424.20073,9.9527 L 423.233,9.9527 L 423.233,6.008 L 426.233,6.008 C 426.233,6.2841 426.4569,6.508 426.733,6.508 C 427.0091,6.508 427.233,6.2841 427.233,6.008 C 427.233,5.7319 427.0091,5.508 426.733,5.508 L 426.733,1.008 L 436.733,1.008 L 436.733,5.508 C 436.4569,5.508 436.233,5.7319 436.233,6.008 C 436.233,6.2841 436.4569,6.508 436.733,6.508 C 437.0091,6.508 437.233,6.2841 437.233,6.008 L 438.758,6.008 L 438.758,6.0079 L 439.758,6.0079 L 444.758,6.0079 L 447.3996,6.0079 L 451.9996,6.0079 L 451.9996,290.0079 L 448.758,290.0079 L 447.3996,290.0079 L 439.758,290.0079 L 437.758,290.0079 z"
   id="path10"
   inkscape:connector-curvature="0"
   style="fill:none;stroke:#1f1a17;stroke-width:0.0762"
   sodipodi:nodetypes="ccssccccssccccccccccccccssccccssccccccssccccssccccccssccccsscccccccssccccssccccccccccccccssccccsscccccccccccccssccccssccccccccccccccssccccsscccccssccccssccccccssccccssccccccssccccssccccccccccccccssccccssccccccccccccc" />
  <rect
   transform="matrix(0,-1,1,0,244,270.008)"
   width="244"
   height="188"
   rx="9.3999996"
   ry="9.3999996"
   id="rect12"
   x="0"
   y="0"
   style="fill:none;stroke:#1f1a17;stroke-width:0.0762" />
  <path
   d="M 454,285 L 454,11 L 454,6 L 456.6,6 L 458.6,6 L 460.6,6 L 461.6,6 L 463.1,6 C 463.1,6.2761 463.3239,6.5 463.6,6.5 C 463.8761,6.5 464.1,6.2761 464.1,6 C 464.1,5.7239 463.8761,5.5 463.6,5.5 L 463.6,1 L 473.6,1 L 473.6,5.5 C 473.3239,5.5 473.1,5.7239 473.1,6 C 473.1,6.2761 473.3239,6.5 473.6,6.5 C 473.8761,6.5 474.1,6.2761 474.1,6 L 477.1,6 L 477.1,9.9447 L 476.13216,9.9447 L 475.56772,13.291275 L 477.1,13.291275 L 477.1,17 L 480.1,17 L 480.1,13.291275 L 481.63211,13.291275 L 481.06766,9.9447 L 480.1,9.9447 L 480.1,6 L 483.1,6 C 483.1,6.2761 483.3239,6.5 483.6,6.5 C 483.8761,6.5 484.1,6.2761 484.1,6 C 484.1,5.7239 483.8761,5.5 483.6,5.5 L 483.6,1 L 493.6,1 L 493.6,5.5 C 493.3239,5.5 493.1,5.7239 493.1,6 C 493.1,6.2761 493.3239,6.5 493.6,6.5 C 493.8761,6.5 494.1,6.2761 494.1,6 L 495.6,6 L 496.6,6 L 521.6,6 L 524.1,6 C 524.1,6.2761 524.3239,6.5 524.6,6.5 C 524.8761,6.5 525.1,6.2761 525.1,6 C 525.1,5.7239 524.8761,5.5 524.6,5.5 L 524.6,1 L 534.6,1 L 534.6,5.5 C 534.3239,5.5 534.1,5.7239 534.1,6 C 534.1,6.2761 534.3239,6.5 534.6,6.5 C 534.8761,6.5 535.1,6.2761 535.1,6 L 538.1,6 L 538.1,9.9447 L 537.13224,9.9447 L 536.5678,13.291275 L 538.1,13.291275 L 538.1,17 L 541.1,17 L 541.1,13.291275 L 542.63219,13.291275 L 542.06774,9.9447 L 541.1,9.9447 L 541.1,6 L 544.1,6 C 544.1,6.2761 544.3239,6.5 544.6,6.5 C 544.8761,6.5 545.1,6.2761 545.1,6 C 545.1,5.7239 544.8761,5.5 544.6,5.5 L 544.6,1 L 554.6,1 L 554.6,5.5 C 554.3239,5.5 554.1,5.7239 554.1,6 C 554.1,6.2761 554.3239,6.5 554.6,6.5 C 554.8761,6.5 555.1,6.2761 555.1,6 L 556.6,6 L 557.6,6 L 567.6,6 L 570.6,6 L 570.6,8 L 570.6,8.3204 L 570.6,12.5 C 570.3239,12.5 570.1,12.7239 570.1,13 C 570.1,13.2761 570.3239,13.5 570.6,13.5 C 570.8761,13.5 571.1,13.2761 571.1,13 L 574.6,13 L 574.6,23 L 571.1,23 C 571.1,22.7239 570.8761,22.5 570.6,22.5 C 570.3239,22.5 570.1,22.7239 570.1,23 C 570.1,23.2761 570.3239,23.5 570.6,23.5 L 570.6,28 L 570.6,28.3204 L 570.6,32.5 C 570.3239,32.5 570.1,32.7239 570.1,33 C 570.1,33.2761 570.3239,33.5 570.6,33.5 C 570.8761,33.5 571.1,33.2761 571.1,33 L 574.6,33 L 574.6,43 L 571.1,43 C 571.1,42.7239 570.8761,42.5 570.6,42.5 C 570.3239,42.5 570.1,42.7239 570.1,43 C 570.1,43.2761 570.3239,43.5 570.6,43.5 L 570.6,48 L 570.6,48.3204 L 570.6,52.5 C 570.3239,52.5 570.1,52.7239 570.1,53 C 570.1,53.2761 570.3239,53.5 570.6,53.5 C 570.8761,53.5 571.1,53.2761 571.1,53 L 574.6,53 L 574.6,63 L 571.1,63 C 571.1,62.7239 570.8761,62.5 570.6,62.5 C 570.3239,62.5 570.1,62.7239 570.1,63 C 570.1,63.2761 570.3239,63.5 570.6,63.5 L 570.6,68 L 570.6,68.3204 L 570.6,72.5 C 570.3239,72.5 570.1,72.7239 570.1,73 C 570.1,73.2761 570.3239,73.5 570.6,73.5 C 570.8761,73.5 571.1,73.2761 571.1,73 L 574.6,73 L 574.6,83 L 571.1,83 C 571.1,82.7239 570.8761,82.5 570.6,82.5 C 570.3239,82.5 570.1,82.7239 570.1,83 C 570.1,83.2761 570.3239,83.5 570.6,83.5 L 570.6,88 L 570.6,88.3204 L 570.6,92.5 C 570.3239,92.5 570.1,92.7239 570.1,93 C 570.1,93.2761 570.3239,93.5 570.6,93.5 C 570.8761,93.5 571.1,93.2761 571.1,93 L 574.6,93 L 574.6,103 L 571.1,103 C 571.1,102.7239 570.8761,102.5 570.6,102.5 C 570.3239,102.5 570.1,102.7239 570.1,103 C 570.1,103.2761 570.3239,103.5 570.6,103.5 L 570.6,108 L 570.6,108.3204 L 570.6,112.5 C 570.3239,112.5 570.1,112.7239 570.1,113 C 570.1,113.2761 570.3239,113.5 570.6,113.5 C 570.8761,113.5 571.1,113.2761 571.1,113 L 574.6,113 L 574.6,123 L 571.1,123 C 571.1,122.7239 570.8761,122.5 570.6,122.5 C 570.3239,122.5 570.1,122.7239 570.1,123 C 570.1,123.2761 570.3239,123.5 570.6,123.5 L 570.6,128 L 570.6,128.3204 L 570.6,132.5 C 570.3239,132.5 570.1,132.7239 570.1,133 C 570.1,133.2761 570.3239,133.5 570.6,133.5 C 570.8761,133.5 571.1,133.2761 571.1,133 L 574.6,133 L 574.6,143 L 571.1,143 C 571.1,142.7239 570.8761,142.5 570.6,142.5 C 570.3239,142.5 570.1,142.7239 570.1,143 C 570.1,143.2761 570.3239,143.5 570.6,143.5 L 570.6,148 L 570.6,148.3204 L 570.6,152.5 C 570.3239,152.5 570.1,152.7239 570.1,153 C 570.1,153.2761 570.3239,153.5 570.6,153.5 C 570.8761,153.5 571.1,153.2761 571.1,153 L 574.6,153 L 574.6,163 L 571.1,163 C 571.1,162.7239 570.8761,162.5 570.6,162.5 C 570.3239,162.5 570.1,162.7239 570.1,163 C 570.1,163.2761 570.3239,163.5 570.6,163.5 L 570.6,168 L 570.6,168.3204 L 570.6,172.5 C 570.3239,172.5 570.1,172.7239 570.1,173 C 570.1,173.2761 570.3239,173.5 570.6,173.5 C 570.8761,173.5 571.1,173.2761 571.1,173 L 574.6,173 L 574.6,183 L 571.1,183 C 571.1,182.7239 570.8761,182.5 570.6,182.5 C 570.3239,182.5 570.1,182.7239 570.1,183 C 570.1,183.2761 570.3239,183.5 570.6,183.5 L 570.6,188 L 570.6,188.3204 L 570.6,192.5 C 570.3239,192.5 570.1,192.7239 570.1,193 C 570.1,193.2761 570.3239,193.5 570.6,193.5 C 570.8761,193.5 571.1,193.2761 571.1,193 L 574.6,193 L 574.6,203 L 571.1,203 C 571.1,202.7239 570.8761,202.5 570.6,202.5 C 570.3239,202.5 570.1,202.7239 570.1,203 C 570.1,203.2761 570.3239,203.5 570.6,203.5 L 570.6,208 L 570.6,208.3204 L 570.6,212.5 C 570.3239,212.5 570.1,212.7239 570.1,213 C 570.1,213.2761 570.3239,213.5 570.6,213.5 C 570.8761,213.5 571.1,213.2761 571.1,213 L 574.6,213 L 574.6,223 L 571.1,223 C 571.1,222.7239 570.8761,222.5 570.6,222.5 C 570.3239,222.5 570.1,222.7239 570.1,223 C 570.1,223.2761 570.3239,223.5 570.6,223.5 L 570.6,228 L 570.6,228.3204 L 570.6,232.5 C 570.3239,232.5 570.1,232.7239 570.1,233 C 570.1,233.2761 570.3239,233.5 570.6,233.5 C 570.8761,233.5 571.1,233.2761 571.1,233 L 574.6,233 L 574.6,243 L 571.1,243 C 571.1,242.7239 570.8761,242.5 570.6,242.5 C 570.3239,242.5 570.1,242.7239 570.1,243 C 570.1,243.2761 570.3239,243.5 570.6,243.5 L 570.6,248 L 570.6,248.3204 L 570.6,252.5 C 570.3239,252.5 570.1,252.7239 570.1,253 C 570.1,253.2761 570.3239,253.5 570.6,253.5 C 570.8761,253.5 571.1,253.2761 571.1,253 L 574.6,253 L 574.6,263 L 571.1,263 C 571.1,262.7239 570.8761,262.5 570.6,262.5 C 570.3239,262.5 570.1,262.7239 570.1,263 C 570.1,263.2761 570.3239,263.5 570.6,263.5 L 570.6,268 L 570.6,268.3204 L 570.6,272.5 C 570.3239,272.5 570.1,272.7239 570.1,273 C 570.1,273.2761 570.3239,273.5 570.6,273.5 C 570.8761,273.5 571.1,273.2761 571.1,273 L 574.6,273 L 574.6,283 L 571.1,283 C 571.1,282.7239 570.8761,282.5 570.6,282.5 C 570.3239,282.5 570.1,282.7239 570.1,283 C 570.1,283.2761 570.3239,283.5 570.6,283.5 L 570.6,288 L 570.6,289.9912 L 567.6,289.9912 L 567.6,290.0002 L 557.6,290.0002 L 556.6,290.0002 L 555.1,290.0002 C 555.1,289.7241 554.8761,289.5002 554.6,289.5002 C 554.3239,289.5002 554.1,289.7241 554.1,290.0002 C 554.1,290.2763 554.3239,290.5002 554.6,290.5002 L 554.6,295.0002 L 544.6,295.0002 L 544.6,290.5002 C 544.8761,290.5002 545.1,290.2763 545.1,290.0002 C 545.1,289.7241 544.8761,289.5002 544.6,289.5002 C 544.3239,289.5002 544.1,289.7241 544.1,290.0002 L 541.1,290.0002 L 541.1,286.0555 L 542.06774,286.0555 L 542.63219,282.70891 L 541.1,282.70891 L 541.1,279.0002 L 538.1,279.0002 L 538.1,282.70891 L 536.5678,282.70891 L 537.13224,286.0555 L 538.1,286.0555 L 538.1,290.0002 L 535.1,290.0002 C 535.1,289.7241 534.8761,289.5002 534.6,289.5002 C 534.3239,289.5002 534.1,289.7241 534.1,290.0002 C 534.1,290.2763 534.3239,290.5002 534.6,290.5002 L 534.6,295.0002 L 524.6,295.0002 L 524.6,290.5002 C 524.8761,290.5002 525.1,290.2763 525.1,290.0002 C 525.1,289.7241 524.8761,289.5002 524.6,289.5002 C 524.3239,289.5002 524.1,289.7241 524.1,290.0002 L 521.6,290.0002 L 496.6,290.0002 L 495.6,290.0002 L 494.1,290.0002 C 494.1,289.7241 493.8761,289.5002 493.6,289.5002 C 493.3239,289.5002 493.1,289.7241 493.1,290.0002 C 493.1,290.2763 493.3239,290.5002 493.6,290.5002 L 493.6,295.0002 L 483.6,295.0002 L 483.6,290.5002 C 483.8761,290.5002 484.1,290.2763 484.1,290.0002 C 484.1,289.7241 483.8761,289.5002 483.6,289.5002 C 483.3239,289.5002 483.1,289.7241 483.1,290.0002 L 480.1,290.0002 L 480.1,286.0555 L 481.06766,286.0555 L 481.63211,282.70891 L 480.1,282.70891 L 480.1,279.0002 L 477.1,279.0002 L 477.1,282.70891 L 475.56772,282.70891 L 476.13216,286.0555 L 477.1,286.0555 L 477.1,290.0002 L 474.1,290.0002 C 474.1,289.7241 473.8761,289.5002 473.6,289.5002 C 473.3239,289.5002 473.1,289.7241 473.1,290.0002 C 473.1,290.2763 473.3239,290.5002 473.6,290.5002 L 473.6,295.0002 L 463.6,295.0002 L 463.6,290.5002 C 463.8761,290.5002 464.1,290.2763 464.1,290.0002 C 464.1,289.7241 463.8761,289.5002 463.6,289.5002 C 463.3239,289.5002 463.1,289.7241 463.1,290.0002 L 460.6,290.0002 L 459.6,290.0002 L 454,290.0002 L 454,285.0002 z"
   id="path14"
   inkscape:connector-curvature="0"
   style="fill:none;stroke:#1f1a17;stroke-width:0.0762"
   sodipodi:nodetypes="ccccccccssccccssccccccccccccccssccccsscccccssccccssccccccccccccccssccccssccccccccssccccssccccssccccssccccssccccssccccssccccssccccssccccssccccssccccssccccssccccssccccssccccssccccssccccssccccssccccssccccssccccssccccssccccssccccssccccssccccssccccssccccccccssccccssccccccccccccccssccccsscccccssccccssccccccccccccccssccccsscccccc" />
  
  
  
  
  
  
  
  
  
  
  
  
  
  
  
  
  
  
  
  
  
  
  
  
  
  
  
  
  
  
  
  
  
  
  
  
  
  
  
  
 <path
   inkscape:connector-curvature="0"
   d="m 530.70191,158.08479 -32.80834,0 0,-32.45556 32.80834,0 0,32.45556 z"
   style="fill:#231f20;fill-opacity:1;fill-rule:nonzero;stroke:none"
   id="path22" /><g
   id="g56"
   transform="matrix(-0.3527778,0,0,-0.3527778,526.46865,129.50989)"><path
     inkscape:connector-curvature="0"
     d="m 0,0 11,0 0,-12 35,0 0,-11 -46,0 0,23 z"
     style="fill:#ffffff;fill-opacity:1;fill-rule:nonzero;stroke:none"
     id="path58" /></g><g
   id="g60"
   transform="matrix(-0.3527778,0,0,-0.3527778,510.24087,129.50989)"><path
     inkscape:connector-curvature="0"
     d="m 0,0 23,0 0,-23 -11,0 0,11 -12,0 0,12 z"
     style="fill:#ffffff;fill-opacity:1;fill-rule:nonzero;stroke:none"
     id="path62" /></g><g
   id="g70"
   transform="matrix(-0.3527778,0,0,-0.3527778,510.24087,137.62378)"><path
     inkscape:connector-curvature="0"
     d="m 0,0 12,0 0,-12 11,0 0,-12 -23,0 0,-23 -12,0 0,12 -11,0 0,11 11,0 0,12 12,0 0,12 z"
     style="fill:#ffffff;fill-opacity:1;fill-rule:nonzero;stroke:none"
     id="path72" /></g><path
   inkscape:connector-curvature="0"
   d="m 526.46858,141.85701 -3.88056,0 0,4.23334 3.88056,0 0,-4.23334 z"
   style="fill:#ffffff;fill-opacity:1;fill-rule:nonzero;stroke:none"
   id="path84" /><path
   inkscape:connector-curvature="0"
   d="m 522.58802,149.9709 -4.23333,0 0,4.23334 4.23333,0 0,-4.23334 z"
   style="fill:#ffffff;fill-opacity:1;fill-rule:nonzero;stroke:none"
   id="path96" /><path
   inkscape:connector-curvature="0"
   d="m 506.00746,149.9709 -3.88055,0 0,4.23334 3.88055,0 0,-4.23334 z"
   style="fill:#ffffff;fill-opacity:1;fill-rule:nonzero;stroke:none"
   id="path98" /><path
   inkscape:connector-curvature="0"
   d="m 246.56128,28.052247 -20.94028,0 0,-20.7151128 20.94028,0 0,20.7151128 z"
   style="fill:#231f20;fill-opacity:1;fill-rule:nonzero;stroke:none"
   id="path100" /><g
   id="g112"
   transform="matrix(-0.22516422,0,0,-0.22516422,243.85932,9.8140095)"><path
     inkscape:connector-curvature="0"
     d="m 0,0 11,0 0,-12 23,0 0,-12 -11,0 0,-11 23,0 0,-23 12,0 0,-12 -24,0 0,23 -23,0 0,12 -11,0 0,35 z"
     style="fill:#ffffff;fill-opacity:1;fill-rule:nonzero;stroke:none"
     id="path114" /></g><path
   inkscape:connector-curvature="0"
   d="m 233.50172,9.8139445 -2.702,0 0,2.7019755 2.702,0 0,-2.7019755 z"
   style="fill:#ffffff;fill-opacity:1;fill-rule:nonzero;stroke:none"
   id="path116" /><path
   inkscape:connector-curvature="0"
   d="m 233.50172,15.21789 -2.702,0 0,2.4768 2.702,0 0,-2.4768 z"
   style="fill:#ffffff;fill-opacity:1;fill-rule:nonzero;stroke:none"
   id="path150" /><path
   inkscape:connector-curvature="0"
   d="m 243.85925,22.873478 -2.47667,0 0,2.701958 2.47667,0 0,-2.701958 z"
   style="fill:#ffffff;fill-opacity:1;fill-rule:nonzero;stroke:none"
   id="path180" /><path
   inkscape:connector-curvature="0"
   d="m 218.0895,56.447205 -32.80834,0 0,-32.455557 32.80834,0 0,32.455557 z"
   style="fill:#231f20;fill-opacity:1;fill-rule:nonzero;stroke:none"
   id="path102" /><g
   id="g118"
   transform="matrix(-0.3527778,0,0,-0.3527778,213.85624,27.872308)"><path
     inkscape:connector-curvature="0"
     d="m 0,0 11,0 0,-12 23,0 0,-12 -34,0 0,24 z"
     style="fill:#ffffff;fill-opacity:1;fill-rule:nonzero;stroke:none"
     id="path120" /></g><path
   inkscape:connector-curvature="0"
   d="m 197.62839,27.872203 -4.23334,0 0,4.233334 4.23334,0 0,-4.233334 z"
   style="fill:#ffffff;fill-opacity:1;fill-rule:nonzero;stroke:none"
   id="path122" /><path
   inkscape:connector-curvature="0"
   d="m 193.39505,32.105537 -3.88055,0 0,4.233334 3.88055,0 0,-4.233334 z"
   style="fill:#ffffff;fill-opacity:1;fill-rule:nonzero;stroke:none"
   id="path146" /><g
   id="g152"
   transform="matrix(-0.3527778,0,0,-0.3527778,201.86179,36.338975)"><path
     inkscape:connector-curvature="0"
     d="m 0,0 12,0 0,-11 12,0 0,-12 -24,0 0,-11 -11,0 0,-12 -12,0 0,23 12,0 0,12 11,0 0,11 z"
     style="fill:#ffffff;fill-opacity:1;fill-rule:nonzero;stroke:none"
     id="path154" /></g><path
   inkscape:connector-curvature="0"
   d="m 213.85617,40.219427 -3.88056,0 0,4.233333 3.88056,0 0,-4.233333 z"
   style="fill:#ffffff;fill-opacity:1;fill-rule:nonzero;stroke:none"
   id="path162" /><path
   inkscape:connector-curvature="0"
   d="m 193.39505,44.45276 -3.88055,0 0,8.11389 3.88055,0 0,-8.11389 z"
   style="fill:#ffffff;fill-opacity:1;fill-rule:nonzero;stroke:none"
   id="path172" /></g>
<rect
   style="fill:none;stroke:#000000;stroke-width:0.16086668;stroke-miterlimit:4;stroke-opacity:1;stroke-dasharray:none;stroke-dashoffset:0"
   id="rect3008"
   width="2.1794388"
   height="1.8161988"
   x="-3.2216721"
   y="1.1974251"
   transform="scale(-1,1)" /></svg>