<?xml version="1.0" encoding="UTF-8" standalone="no"?>
<!-- Creator: CorelDRAW -->

<svg
   xmlns:dc="http://purl.org/dc/elements/1.1/"
   xmlns:cc="http://creativecommons.org/ns#"
   xmlns:rdf="http://www.w3.org/1999/02/22-rdf-syntax-ns#"
   xmlns:svg="http://www.w3.org/2000/svg"
   xmlns="http://www.w3.org/2000/svg"
   xmlns:sodipodi="http://sodipodi.sourceforge.net/DTD/sodipodi-0.dtd"
   xmlns:inkscape="http://www.inkscape.org/namespaces/inkscape"
   xml:space="preserve"
   width="60cm"
   height="30cm"
   shape-rendering="geometricPrecision"
   text-rendering="geometricPrecision"
   image-rendering="optimizeQuality"
   fill-rule="evenodd"
   clip-rule="evenodd"
   viewBox="0 0 600 300"
   id="svg2"
   version="1.1"
   inkscape:version="0.48.2 r9819"
   sodipodi:docname="CamLaserTurnTableHolderBACKSIDE.svg"><metadata
   id="metadata134"><rdf:RDF><cc:Work
       rdf:about=""><dc:format>image/svg+xml</dc:format><dc:type
         rdf:resource="http://purl.org/dc/dcmitype/StillImage" /></cc:Work></rdf:RDF></metadata><defs
   id="defs132" /><sodipodi:namedview
   pagecolor="#ffffff"
   bordercolor="#666666"
   borderopacity="1"
   objecttolerance="10"
   gridtolerance="10"
   guidetolerance="10"
   inkscape:pageopacity="0"
   inkscape:pageshadow="2"
   inkscape:window-width="1280"
   inkscape:window-height="738"
   id="namedview130"
   showgrid="false"
   inkscape:zoom="1.553917"
   inkscape:cx="841.2907"
   inkscape:cy="725.53692"
   inkscape:window-x="-8"
   inkscape:window-y="-8"
   inkscape:window-maximized="1"
   inkscape:current-layer="svg2" />
 <g
   id="Layer_x0020_1">
  <metadata
   id="CorelCorpID_0Corel-Layer" />
  <path
   d="M 460.22629,92 L 461.75209,92 L 464.37959,92 L 494.75209,92 L 494.75209,97.5694 L 494.75209,99.2847 L 494.75209,101 L 494.75209,102 L 494.75209,103.5 L 494.75209,104.5 L 494.75209,113.5 L 494.75209,114.5 L 494.75209,117.5 L 494.75209,120.5 L 494.75209,123.5 L 494.75209,124.5 L 494.75209,133.5 L 494.75209,134.5 L 494.75209,137 L 494.75209,139.3779 L 494.75209,141.3779 L 494.75209,146 L 464.37959,146 L 461.75209,146 L 460.22549,146 L 459.22549,146 L 457.72549,146 L 456.72549,146 L 447.72549,146 L 446.72549,146 L 443.72549,146 L 440.75209,146 L 440.72549,146 L 438.25189,146 L 437.75189,146 L 437.72549,146 L 436.75189,146 C 436.75189,146.2761 436.97579,146.5 437.25189,146.5 L 437.25189,151 L 437.22549,151 L 427.25189,151 L 427.22549,151 L 427.22549,146.5 C 427.50159,146.5 427.72549,146.2761 427.72549,146 C 427.72549,145.7284 427.50889,145.5073 427.23899,145.5002 L 427.23839,145.5002 C 426.96859,145.5072 426.75189,145.7284 426.75189,146 L 426.72549,146 L 425.25229,146 L 423.75189,146 L 423.75189,142.0553 L 424.71963,142.0553 L 425.28408,138.70858 L 423.75189,138.70858 L 423.75189,135 L 420.75189,135 L 420.75189,138.70858 L 419.21969,138.70858 L 419.78413,142.0553 L 420.75189,142.0553 L 420.75189,146 L 417.75189,146 C 417.75189,145.7239 417.52799,145.5 417.25189,145.5 C 416.97579,145.5 416.75189,145.7239 416.75189,146 C 416.75189,146.2761 416.97579,146.5 417.25189,146.5 L 417.25189,151 L 407.25189,151 L 407.25189,146.5 C 407.52799,146.5 407.75189,146.2761 407.75189,146 C 407.75189,145.7239 407.52799,145.5 407.25189,145.5 C 406.97579,145.5 406.75189,145.7239 406.75189,146 L 404.25189,146 L 369.75209,146 L 369.75209,92 L 401.75209,92 L 404.25189,92 L 404.25269,92 L 405.25269,92 L 405.75209,92 L 406.75269,92 C 406.75269,92.2761 406.97659,92.5 407.25269,92.5 C 407.52879,92.5 407.75269,92.2761 407.75269,92 C 407.75269,91.7239 407.52879,91.5 407.25269,91.5 L 407.25269,87 L 417.25269,87 L 417.25269,91.5 C 416.97659,91.5 416.75269,91.7239 416.75269,92 C 416.75269,92.2761 416.97659,92.5 417.25269,92.5 C 417.52879,92.5 417.75269,92.2761 417.75269,92 L 420.75269,92 L 420.75269,95.9447 L 419.78498,95.9447 L 419.22053,99.291446 L 420.75269,99.291446 L 420.75269,103 L 423.75269,103 L 423.75269,99.291446 L 425.28492,99.291446 L 424.72048,95.9447 L 423.75269,95.9447 L 423.75269,92 L 426.22629,92 L 426.72629,92 L 426.75269,92 C 426.75269,92.2716 426.96929,92.4927 427.23919,92.4998 L 427.23979,92.4998 C 427.50959,92.4927 427.72629,92.2716 427.72629,92 C 427.72629,91.7239 427.50239,91.5 427.22629,91.5 L 427.22629,87 L 427.25269,87 L 437.22629,87 L 437.25269,87 L 437.25269,91.5 C 436.97659,91.5 436.75269,91.7239 436.75269,92 L 437.72629,92 L 437.75269,92 L 439.22589,92 L 440.72629,92 L 441.55109,92 L 443.72629,92 L 446.72629,92 L 447.72629,92 L 456.72629,92 L 457.72629,92 z"
   id="path6"
   inkscape:connector-curvature="0"
   style="fill:none;stroke:#1f1a17;stroke-width:0.0762"
   sodipodi:nodetypes="cccccccccccccccccccccccccccccccccccccccccccsccccccccccccccccccssccccssccccccccccssccccssccccccccccccccccccscccccccccccccccccc" />
  <g
   id="_65875408"
   transform="matrix(-1,0,0,1,599.75229,0)">
   <path
   id="_54032256"
   d="m 131,285 -11.401,0 -5.599,0 -2.5,0 -3,0 -2.5,0 -7,0 -2.5,0 -20,0 -16,0 -20,0 -34.5,0 0,-11 0,-6 0,-1 0,-1.5 c 0.2761,0 0.5,-0.2239 0.5,-0.5 0,-0.2761 -0.2239,-0.5 -0.5,-0.5 -0.2761,0 -0.5,0.2239 -0.5,0.5 l -4.5,0 0,-10 4.5,0 c 0,0.2761 0.2239,0.5 0.5,0.5 0.2761,0 0.5,-0.2239 0.5,-0.5 0,-0.2761 -0.2239,-0.5 -0.5,-0.5 l 0,-1.5 0,-1.5 0,-3 0,-1.5 0,-1.5 c 0.2761,0 0.5,-0.2239 0.5,-0.5 0,-0.2761 -0.2239,-0.5 -0.5,-0.5 -0.2761,0 -0.5,0.2239 -0.5,0.5 l -4.5,0 0,-10 4.5,0 c 0,0.2761 0.2239,0.5 0.5,0.5 0.2761,0 0.5,-0.2239 0.5,-0.5 0,-0.2761 -0.2239,-0.5 -0.5,-0.5 l 0,-2.5 0,-62.53334 0,-1 0,-1.5 c 0.2761,0 0.5,-0.2239 0.5,-0.5 0,-0.2761 -0.2239,-0.5 -0.5,-0.5 -0.2761,0 -0.5,0.2239 -0.5,0.5 l -4.5,0 0,-10 4.5,0 c 0,0.2761 0.2239,0.5 0.5,0.5 0.2761,0 0.5,-0.2239 0.5,-0.5 0,-0.2761 -0.2239,-0.5 -0.5,-0.5 L 6,146 l 0,-1.5 0,-3 0,-1.5 0,-9.96656 c 0.2761,0 0.5,-0.2239 0.5,-0.5 0,-0.2761 -0.2239,-0.5 -0.5,-0.5 -0.2761,0 -0.5,0.2239 -0.5,0.5 l -4.5,0 0,-10 4.5,0 c 0,0.2761 0.2239,0.5 0.5,0.5 0.2761,0 0.5,-0.2239 0.5,-0.5 0,-0.2761 -0.2239,-0.5 -0.5,-0.5 l 0,-2.5 L 6,54 6,53 6,51.5 C 6.2761,51.5 6.5,51.2761 6.5,51 6.5,50.7239 6.2761,50.5 6,50.5 5.7239,50.5 5.5,50.7239 5.5,51 L 1,51 1,41 5.5,41 c 0,0.2761 0.2239,0.5 0.5,0.5 0.2761,0 0.5,-0.2239 0.5,-0.5 C 6.5,40.7239 6.2761,40.5 6,40.5 L 6,39 6,37.5 6,34.5 6,33 6,31.5 C 6.2761,31.5 6.5,31.2761 6.5,31 6.5,30.7239 6.2761,30.5 6,30.5 5.7239,30.5 5.5,30.7239 5.5,31 L 1,31 1,21 5.5,21 c 0,0.2761 0.2239,0.5 0.5,0.5 0.2761,0 0.5,-0.2239 0.5,-0.5 C 6.5,20.7239 6.2761,20.5 6,20.5 L 6,18 6,12 6,1 l 34.5,0 20,0 16,0 20,0 5.5,0 4,0 2.5,0 3,0 2.5,0 3,0 14,0 0,11 0,6 0,1 0,1.5 c -0.2761,0 -0.5,0.2239 -0.5,0.5 0,0.2761 0.2239,0.5 0.5,0.5 0.2761,0 0.5,-0.2239 0.5,-0.5 l 4.5,0 0,10 -4.5,0 c 0,-0.2761 -0.2239,-0.5 -0.5,-0.5 -0.2761,0 -0.5,0.2239 -0.5,0.5 0,0.2761 0.2239,0.5 0.5,0.5 l 0,3 -3.9447,0 0,-1.532191 -3.34673,0.564445 0,0.967746 -3.70857,0 0,3 3.70857,0 0,0.967756 3.34673,0.564445 0,-1.532201 3.9447,0 0,3 c -0.2761,0 -0.5,0.2239 -0.5,0.5 0,0.2761 0.2239,0.5 0.5,0.5 0.2761,0 0.5,-0.2239 0.5,-0.5 l 4.5,0 0,10 -4.5,0 c 0,-0.2761 -0.2239,-0.5 -0.5,-0.5 -0.2761,0 -0.5,0.2239 -0.5,0.5 0,0.2761 0.2239,0.5 0.5,0.5 l 0,2.5 0,17 -99,0 c -3.3131,0 -6,2.6869 -6,6 l 0,46 0,33 0,112 c 0,3.3131 2.6869,6 6,6 l 99,0 z"
   inkscape:connector-curvature="0"
   style="fill:none;stroke:#1f1a17;stroke-width:0.0762"
   sodipodi:nodetypes="ccccccccccccccccssccccssccccccssccccsscccccssccccssccccccssccccsscccccssccccssccccccssccccsscccccccccccccccccccssccccssccccccccccccccssccccsscccssccsscc" />
   <path
   id="_64889224"
   d="m 58,278 c 0.8283,0 1.5,0.6717 1.5,1.5 0,0.8283 -0.6717,1.5 -1.5,1.5 -0.8283,0 -1.5,-0.6717 -1.5,-1.5 0,-0.8283 0.6717,-1.5 1.5,-1.5 z"
   inkscape:connector-curvature="0"
   style="fill:none;stroke:#1f1a17;stroke-width:0.0762" />
   <path
   id="_65074072"
   d="m 43,282.5 c -0.2761,0 -0.5,-0.2239 -0.5,-0.5 0,-0.2761 0.2239,-0.5 0.5,-0.5 l 0,-4 c -0.2761,0 -0.5,-0.2239 -0.5,-0.5 0,-0.2761 0.2239,-0.5 0.5,-0.5 0.2761,0 0.5,0.2239 0.5,0.5 l 9,0 c 0,-0.2761 0.2239,-0.5 0.5,-0.5 0.2761,0 0.5,0.2239 0.5,0.5 0,0.2761 -0.2239,0.5 -0.5,0.5 l 0,4 c 0.2761,0 0.5,0.2239 0.5,0.5 0,0.2761 -0.2239,0.5 -0.5,0.5 -0.2761,0 -0.5,-0.2239 -0.5,-0.5 l -9,0 c 0,0.2761 -0.2239,0.5 -0.5,0.5 z"
   inkscape:connector-curvature="0"
   style="fill:none;stroke:#1f1a17;stroke-width:0.0762" />
   <path
   id="_65593928"
   d="m 63,282.5 c -0.2761,0 -0.5,-0.2239 -0.5,-0.5 0,-0.2761 0.2239,-0.5 0.5,-0.5 l 0,-4 c -0.2761,0 -0.5,-0.2239 -0.5,-0.5 0,-0.2761 0.2239,-0.5 0.5,-0.5 0.2761,0 0.5,0.2239 0.5,0.5 l 9,0 c 0,-0.2761 0.2239,-0.5 0.5,-0.5 0.2761,0 0.5,0.2239 0.5,0.5 0,0.2761 -0.2239,0.5 -0.5,0.5 l 0,4 c 0.2761,0 0.5,0.2239 0.5,0.5 0,0.2761 -0.2239,0.5 -0.5,0.5 -0.2761,0 -0.5,-0.2239 -0.5,-0.5 l -9,0 c 0,0.2761 -0.2239,0.5 -0.5,0.5 z"
   inkscape:connector-curvature="0"
   style="fill:none;stroke:#1f1a17;stroke-width:0.0762" />
   <path
   id="_65658168"
   d="m 58,5 c 0.8283,0 1.5,0.6717 1.5,1.5 C 59.5,7.3283 58.8283,8 58,8 57.1717,8 56.5,7.3283 56.5,6.5 56.5,5.6717 57.1717,5 58,5 z"
   inkscape:connector-curvature="0"
   style="fill:none;stroke:#1f1a17;stroke-width:0.0762" />
   <path
   id="_65658960"
   d="M 43,9.5 C 42.7239,9.5 42.5,9.2761 42.5,9 42.5,8.7239 42.7239,8.5 43,8.5 l 0,-4 c -0.2761,0 -0.5,-0.2239 -0.5,-0.5 0,-0.2761 0.2239,-0.5 0.5,-0.5 0.2761,0 0.5,0.2239 0.5,0.5 l 9,0 c 0,-0.2761 0.2239,-0.5 0.5,-0.5 0.2761,0 0.5,0.2239 0.5,0.5 0,0.2761 -0.2239,0.5 -0.5,0.5 l 0,4 c 0.2761,0 0.5,0.2239 0.5,0.5 0,0.2761 -0.2239,0.5 -0.5,0.5 -0.2761,0 -0.5,-0.2239 -0.5,-0.5 l -9,0 c 0,0.2761 -0.2239,0.5 -0.5,0.5 z"
   inkscape:connector-curvature="0"
   style="fill:none;stroke:#1f1a17;stroke-width:0.0762" />
   <path
   id="_65658936"
   d="M 63,9.5 C 62.7239,9.5 62.5,9.2761 62.5,9 62.5,8.7239 62.7239,8.5 63,8.5 l 0,-4 c -0.2761,0 -0.5,-0.2239 -0.5,-0.5 0,-0.2761 0.2239,-0.5 0.5,-0.5 0.2761,0 0.5,0.2239 0.5,0.5 l 9,0 c 0,-0.2761 0.2239,-0.5 0.5,-0.5 0.2761,0 0.5,0.2239 0.5,0.5 0,0.2761 -0.2239,0.5 -0.5,0.5 l 0,4 c 0.2761,0 0.5,0.2239 0.5,0.5 0,0.2761 -0.2239,0.5 -0.5,0.5 -0.2761,0 -0.5,-0.2239 -0.5,-0.5 l -9,0 c 0,0.2761 -0.2239,0.5 -0.5,0.5 z"
   inkscape:connector-curvature="0"
   style="fill:none;stroke:#1f1a17;stroke-width:0.0762" />
  </g>
  <g
   id="_29883688"
   transform="matrix(-1,0,0,1,599.75229,0)">
   <path
   id="_64882168"
   d="m 47.4718,220.43 c 0.5857,-0.5856 1.5357,-0.5857 2.1215,1e-4 0.5857,0.5857 0.5856,1.5356 0,2.1212 -0.5858,0.5857 -1.5357,0.5858 -2.1214,1e-4 -0.5858,-0.5858 -0.5858,-1.5357 -10e-5,-2.1214 z"
   inkscape:connector-curvature="0"
   style="fill:none;stroke:#1f1a17;stroke-width:0.0762" />
   <path
   id="_65748968"
   d="m 78.1452,252.603 c 0,-0.8282 0.6717,-1.4999 1.5002,-1.4999 0.8282,0 1.4998,0.6717 1.4998,1.4999 0,0.8283 -0.6716,1.5001 -1.4998,1.5001 -0.8285,0 -1.5002,-0.6718 -1.5002,-1.5001 z"
   inkscape:connector-curvature="0"
   style="fill:none;stroke:#1f1a17;stroke-width:0.0762" />
   <path
   id="_65940744"
   d="m 79.645,222.991 c -0.8282,0 -1.4999,-0.6717 -1.4999,-1.5002 0,-0.8282 0.6717,-1.4998 1.4999,-1.4998 0.8283,0 1.5001,0.6716 1.5001,1.4998 0,0.8285 -0.6718,1.5002 -1.5001,1.5002 z"
   inkscape:connector-curvature="0"
   style="fill:none;stroke:#1f1a17;stroke-width:0.0762" />
   <path
   id="_65489920"
   d="m 47.4718,251.543 c 0.5857,-0.5856 1.5356,-0.5857 2.1215,1e-4 0.5856,0.5857 0.5856,1.5357 -10e-5,2.1213 -0.5857,0.5858 -1.5357,0.5858 -2.1213,1e-4 -0.5859,-0.5858 -0.5858,-1.5357 -10e-5,-2.1215 z"
   inkscape:connector-curvature="0"
   style="fill:none;stroke:#1f1a17;stroke-width:0.0762" />
   <path
   id="_65489896"
   d="m 64.0888,226.047 c 6.0741,0 11,4.926 11,11.0001 0,6.074 -4.9259,10.9999 -11,10.9999 -6.0741,0 -11,-4.9259 -11,-10.9999 0,-6.0741 4.9259,-11.0001 11,-11.0001 z"
   inkscape:connector-curvature="0"
   style="fill:none;stroke:#1f1a17;stroke-width:0.0762" />
   <path
   id="_65872592"
   d="m 64.089,206.047 c 0.8283,0 1.5,0.6717 1.5,1.5 0,0.8283 -0.6717,1.5 -1.5,1.5 -0.8283,0 -1.5,-0.6717 -1.5,-1.5 0,-0.8283 0.6717,-1.5 1.5,-1.5 z"
   inkscape:connector-curvature="0"
   style="fill:none;stroke:#1f1a17;stroke-width:0.0762" />
   <path
   id="_54976888"
   d="m 49.089,210.547 c -0.2761,0 -0.5,-0.2239 -0.5,-0.5 0,-0.2761 0.2239,-0.5 0.5,-0.5 l 0,-4 c -0.2761,0 -0.5,-0.2239 -0.5,-0.5 0,-0.2761 0.2239,-0.5 0.5,-0.5 0.2761,0 0.5,0.2239 0.5,0.5 l 9,0 c 0,-0.2761 0.2239,-0.5 0.5,-0.5 0.2761,0 0.5,0.2239 0.5,0.5 0,0.2761 -0.2239,0.5 -0.5,0.5 l 0,4 c 0.2761,0 0.5,0.2239 0.5,0.5 0,0.2761 -0.2239,0.5 -0.5,0.5 -0.2761,0 -0.5,-0.2239 -0.5,-0.5 l -9,0 c 0,0.2761 -0.2239,0.5 -0.5,0.5 z"
   inkscape:connector-curvature="0"
   style="fill:none;stroke:#1f1a17;stroke-width:0.0762" />
   <path
   id="_65495320"
   d="m 69.089,210.547 c -0.2761,0 -0.5,-0.2239 -0.5,-0.5 0,-0.2761 0.2239,-0.5 0.5,-0.5 l 0,-4 c -0.2761,0 -0.5,-0.2239 -0.5,-0.5 0,-0.2761 0.2239,-0.5 0.5,-0.5 0.2761,0 0.5,0.2239 0.5,0.5 l 9,0 c 0,-0.2761 0.2239,-0.5 0.5,-0.5 0.2761,0 0.5,0.2239 0.5,0.5 0,0.2761 -0.2239,0.5 -0.5,0.5 l 0,4 c 0.2761,0 0.5,0.2239 0.5,0.5 0,0.2761 -0.2239,0.5 -0.5,0.5 -0.2761,0 -0.5,-0.2239 -0.5,-0.5 l -9,0 c 0,0.2761 -0.2239,0.5 -0.5,0.5 z"
   inkscape:connector-curvature="0"
   style="fill:none;stroke:#1f1a17;stroke-width:0.0762" />
   <path
   id="_55417896"
   d="m 64.089,265.047 c 0.8283,0 1.5,0.6717 1.5,1.5 0,0.8283 -0.6717,1.5 -1.5,1.5 -0.8283,0 -1.5,-0.6717 -1.5,-1.5 0,-0.8283 0.6717,-1.5 1.5,-1.5 z"
   inkscape:connector-curvature="0"
   style="fill:none;stroke:#1f1a17;stroke-width:0.0762" />
   <path
   id="_64881824"
   d="m 49.089,269.547 c -0.2761,0 -0.5,-0.2239 -0.5,-0.5 0,-0.2761 0.2239,-0.5 0.5,-0.5 l 0,-4 c -0.2761,0 -0.5,-0.2239 -0.5,-0.5 0,-0.2761 0.2239,-0.5 0.5,-0.5 0.2761,0 0.5,0.2239 0.5,0.5 l 9,0 c 0,-0.2761 0.2239,-0.5 0.5,-0.5 0.2761,0 0.5,0.2239 0.5,0.5 0,0.2761 -0.2239,0.5 -0.5,0.5 l 0,4 c 0.2761,0 0.5,0.2239 0.5,0.5 0,0.2761 -0.2239,0.5 -0.5,0.5 -0.2761,0 -0.5,-0.2239 -0.5,-0.5 l -9,0 c 0,0.2761 -0.2239,0.5 -0.5,0.5 z"
   inkscape:connector-curvature="0"
   style="fill:none;stroke:#1f1a17;stroke-width:0.0762" />
   <path
   id="_65572160"
   d="m 69.089,269.547 c -0.2761,0 -0.5,-0.2239 -0.5,-0.5 0,-0.2761 0.2239,-0.5 0.5,-0.5 l 0,-4 c -0.2761,0 -0.5,-0.2239 -0.5,-0.5 0,-0.2761 0.2239,-0.5 0.5,-0.5 0.2761,0 0.5,0.2239 0.5,0.5 l 9,0 c 0,-0.2761 0.2239,-0.5 0.5,-0.5 0.2761,0 0.5,0.2239 0.5,0.5 0,0.2761 -0.2239,0.5 -0.5,0.5 l 0,4 c 0.2761,0 0.5,0.2239 0.5,0.5 0,0.2761 -0.2239,0.5 -0.5,0.5 -0.2761,0 -0.5,-0.2239 -0.5,-0.5 l -9,0 c 0,0.2761 -0.2239,0.5 -0.5,0.5 z"
   inkscape:connector-curvature="0"
   style="fill:none;stroke:#1f1a17;stroke-width:0.0762" />
   <polygon
   id="_55451416"
   points="29.089,272.047 29.089,202.047 46.089,202.047 82.089,202.047 99.089,202.047 99.089,213.047 99.089,219.047 99.089,255.047 99.089,261.047 99.089,272.047 82.089,272.047 46.089,272.047 "
   style="fill:none;stroke:#1f1a17;stroke-width:0.0762" />
  </g>
  <path
   d="M 514.75229,109.526 L 514.75229,108.0002 L 514.75229,105.3727 L 514.75229,75.0002 L 520.32169,75.0002 L 522.03699,75.0002 L 523.75229,75.0002 L 524.75229,75.0002 L 526.25229,75.0002 L 527.25229,75.0002 L 536.25229,75.0002 L 537.25229,75.0002 L 540.25229,75.0002 L 543.25229,75.0002 L 546.25229,75.0002 L 547.25229,75.0002 L 556.25229,75.0002 L 557.25229,75.0002 L 559.75229,75.0002 L 562.13019,75.0002 L 564.13019,75.0002 L 568.75229,75.0002 L 568.75229,105.3727 L 568.75229,108.0002 L 568.75229,109.5268 L 568.75229,110.5268 L 568.75229,112.0268 L 568.75229,113.0268 L 568.75229,122.0268 L 568.75229,123.0268 L 568.75229,126.0268 L 568.75229,129.0002 L 568.75229,129.0268 L 568.75229,131.5004 L 568.75229,132.0004 L 568.75229,132.0268 L 568.75229,133.0004 C 569.02839,133.0004 569.25229,132.7765 569.25229,132.5004 L 573.75229,132.5004 L 573.75229,132.5268 L 573.75229,142.5004 L 573.75229,142.5268 L 569.25229,142.5268 C 569.25229,142.2507 569.02839,142.0268 568.75229,142.0268 C 568.48069,142.0268 568.25959,142.2434 568.25249,142.5133 L 568.25249,142.5139 C 568.25949,142.7837 568.48069,143.0004 568.75229,143.0004 L 568.75229,143.0268 L 568.75229,144.5 L 568.75229,146.0004 L 564.80759,146.0004 L 564.8077,145.03262 L 561.46082,144.46817 L 561.46082,146.0004 L 557.75229,146.0004 L 557.75229,149.0004 L 561.46082,149.0004 L 561.46082,150.53256 L 564.80759,149.96812 L 564.80759,149.0004 L 568.75229,149.0004 L 568.75229,152.0004 C 568.47619,152.0004 568.25229,152.2243 568.25229,152.5004 C 568.25229,152.7765 568.47619,153.0004 568.75229,153.0004 C 569.02839,153.0004 569.25229,152.7765 569.25229,152.5004 L 573.75229,152.5004 L 573.75229,162.5004 L 569.25229,162.5004 C 569.25229,162.2243 569.02839,162.0004 568.75229,162.0004 C 568.47619,162.0004 568.25229,162.2243 568.25229,162.5004 C 568.25229,162.7765 568.47619,163.0004 568.75229,163.0004 L 568.75229,165.5004 L 568.75229,200.0002 L 514.75229,200.0002 L 514.75229,168.0002 L 514.75229,165.5004 L 514.75229,165.4996 L 514.75229,164.4996 L 514.75229,164.0002 L 514.75229,162.9996 C 515.02839,162.9996 515.25229,162.7757 515.25229,162.4996 C 515.25229,162.2235 515.02839,161.9996 514.75229,161.9996 C 514.47619,161.9996 514.25229,162.2235 514.25229,162.4996 L 509.75229,162.4996 L 509.75229,152.4996 L 514.25229,152.4996 C 514.25229,152.7757 514.47619,152.9996 514.75229,152.9996 C 515.02839,152.9996 515.25229,152.7757 515.25229,152.4996 C 515.25229,152.2235 515.02839,151.9996 514.75229,151.9996 L 514.75229,148.9996 L 518.69699,148.9996 L 518.69699,149.96727 L 522.04369,150.53172 L 522.04369,148.9996 L 525.75229,148.9996 L 525.75229,145.9996 L 522.04369,145.9996 L 522.04369,144.46732 L 518.69699,145.03177 L 518.69699,145.9996 L 514.75229,145.9996 L 514.75229,143.526 L 514.75229,143.026 L 514.75229,142.9996 C 515.02389,142.9996 515.24499,142.783 515.25209,142.5131 L 515.25209,142.5125 C 515.24509,142.2427 515.02389,142.026 514.75229,142.026 C 514.47619,142.026 514.25229,142.2499 514.25229,142.526 L 509.75229,142.526 L 509.75229,142.4996 L 509.75229,132.526 L 509.75229,132.4996 L 514.25229,132.4996 C 514.25229,132.7757 514.47619,132.9996 514.75229,132.9996 L 514.75229,132.026 L 514.75229,131.9996 L 514.75229,130.5264 L 514.75229,129.026 L 514.75229,128.2012 L 514.75229,126.026 L 514.75229,123.026 L 514.75229,122.026 L 514.75229,113.026 L 514.75229,112.026 z"
   id="path29"
   inkscape:connector-curvature="0"
   style="fill:none;stroke:#1f1a17;stroke-width:0.0762"
   sodipodi:nodetypes="cccccccccccccccccccccccccccccccccccccccccccsccccccccccccccccccssccccssccccccccccssccccssccccccccccccccccccscccccccccccccccccc" />
  <g
   id="_29862888"
   transform="matrix(-1,0,0,1,599.75229,0)">
   <path
   id="_65079192"
   d="m 217,8 c -0.8283,0 -1.5,-0.6717 -1.5,-1.5 0,-0.8283 0.6717,-1.5 1.5,-1.5 0.8283,0 1.5,0.6717 1.5,1.5 0,0.8283 -0.6717,1.5 -1.5,1.5 z"
   inkscape:connector-curvature="0"
   style="fill:none;stroke:#1f1a17;stroke-width:0.0762" />
   <path
   id="_29822104"
   d="m 232,3.5 c 0.2761,0 0.5,0.2239 0.5,0.5 0,0.2761 -0.2239,0.5 -0.5,0.5 l 0,4 c 0.2761,0 0.5,0.2239 0.5,0.5 0,0.2761 -0.2239,0.5 -0.5,0.5 -0.2761,0 -0.5,-0.2239 -0.5,-0.5 l -9,0 c 0,0.2761 -0.2239,0.5 -0.5,0.5 -0.2761,0 -0.5,-0.2239 -0.5,-0.5 0,-0.2761 0.2239,-0.5 0.5,-0.5 l 0,-4 c -0.2761,0 -0.5,-0.2239 -0.5,-0.5 0,-0.2761 0.2239,-0.5 0.5,-0.5 0.2761,0 0.5,0.2239 0.5,0.5 l 9,0 c 0,-0.2761 0.2239,-0.5 0.5,-0.5 z"
   inkscape:connector-curvature="0"
   style="fill:none;stroke:#1f1a17;stroke-width:0.0762" />
   <path
   id="_29827184"
   d="m 212,3.5 c 0.2761,0 0.5,0.2239 0.5,0.5 0,0.2761 -0.2239,0.5 -0.5,0.5 l 0,4 c 0.2761,0 0.5,0.2239 0.5,0.5 0,0.2761 -0.2239,0.5 -0.5,0.5 -0.2761,0 -0.5,-0.2239 -0.5,-0.5 l -9,0 c 0,0.2761 -0.2239,0.5 -0.5,0.5 -0.2761,0 -0.5,-0.2239 -0.5,-0.5 0,-0.2761 0.2239,-0.5 0.5,-0.5 l 0,-4 c -0.2761,0 -0.5,-0.2239 -0.5,-0.5 0,-0.2761 0.2239,-0.5 0.5,-0.5 0.2761,0 0.5,0.2239 0.5,0.5 l 9,0 c 0,-0.2761 0.2239,-0.5 0.5,-0.5 z"
   inkscape:connector-curvature="0"
   style="fill:none;stroke:#1f1a17;stroke-width:0.0762" />
   <polygon
   id="_64834720"
   points="135.377,205.476 120.557,205.476 120.557,225.476 135.377,225.476 "
   style="fill:none;stroke:#1f1a17;stroke-width:0.0762" />
   <path
   id="_55016752"
   d="m 128.627,166.519 c 0,-0.5522 0.4478,-1 1,-1 0.5522,0 1,0.4478 1,1 0,0.5522 -0.4478,1 -1,1 -0.5522,0 -1,-0.4478 -1,-1 z"
   inkscape:connector-curvature="0"
   style="fill:none;stroke:#1f1a17;stroke-width:0.0762" />
   <path
   id="_66002920"
   d="m 117.877,217.676 c 0,0.5522 0.4478,1 1,1 0.5522,0 1,-0.4478 1,-1 0,-0.5522 -0.4478,-1 -1,-1 -0.5522,0 -1,0.4478 -1,1 z"
   inkscape:connector-curvature="0"
   style="fill:none;stroke:#1f1a17;stroke-width:0.0762" />
   <path
   id="_65133472"
   d="m 217,281 c -0.8283,0 -1.5,-0.6717 -1.5,-1.5 0,-0.8283 0.6717,-1.5 1.5,-1.5 0.8283,0 1.5,0.6717 1.5,1.5 0,0.8283 -0.6717,1.5 -1.5,1.5 z"
   inkscape:connector-curvature="0"
   style="fill:none;stroke:#1f1a17;stroke-width:0.0762" />
   <path
   id="_65076424"
   d="m 232,276.5 c 0.2761,0 0.5,0.2239 0.5,0.5 0,0.2761 -0.2239,0.5 -0.5,0.5 l 0,4 c 0.2761,0 0.5,0.2239 0.5,0.5 0,0.2761 -0.2239,0.5 -0.5,0.5 -0.2761,0 -0.5,-0.2239 -0.5,-0.5 l -9,0 c 0,0.2761 -0.2239,0.5 -0.5,0.5 -0.2761,0 -0.5,-0.2239 -0.5,-0.5 0,-0.2761 0.2239,-0.5 0.5,-0.5 l 0,-4 c -0.2761,0 -0.5,-0.2239 -0.5,-0.5 0,-0.2761 0.2239,-0.5 0.5,-0.5 0.2761,0 0.5,0.2239 0.5,0.5 l 9,0 c 0,-0.2761 0.2239,-0.5 0.5,-0.5 z"
   inkscape:connector-curvature="0"
   style="fill:none;stroke:#1f1a17;stroke-width:0.0762" />
   <path
   id="_29805416"
   d="m 212,276.5 c 0.2761,0 0.5,0.2239 0.5,0.5 0,0.2761 -0.2239,0.5 -0.5,0.5 l 0,4 c 0.2761,0 0.5,0.2239 0.5,0.5 0,0.2761 -0.2239,0.5 -0.5,0.5 -0.2761,0 -0.5,-0.2239 -0.5,-0.5 l -9,0 c 0,0.2761 -0.2239,0.5 -0.5,0.5 -0.2761,0 -0.5,-0.2239 -0.5,-0.5 0,-0.2761 0.2239,-0.5 0.5,-0.5 l 0,-4 c -0.2761,0 -0.5,-0.2239 -0.5,-0.5 0,-0.2761 0.2239,-0.5 0.5,-0.5 0.2761,0 0.5,0.2239 0.5,0.5 l 9,0 c 0,-0.2761 0.2239,-0.5 0.5,-0.5 z"
   inkscape:connector-curvature="0"
   style="fill:none;stroke:#1f1a17;stroke-width:0.0762" />
   <path
   id="_55070520"
   d="m 144,285 11.401,0 5.599,0 2.5,0 3,0 2.5,0 7,0 2.5,0 20,0 16,0 20,0 34.5,0 0,-11 0,-6 0,-1 0,-1.5 c -0.2761,0 -0.5,-0.2239 -0.5,-0.5 0,-0.2761 0.2239,-0.5 0.5,-0.5 0.2761,0 0.5,0.2239 0.5,0.5 l 4.5,0 0,-10 -4.5,0 c 0,0.2761 -0.2239,0.5 -0.5,0.5 -0.2761,0 -0.5,-0.2239 -0.5,-0.5 0,-0.2761 0.2239,-0.5 0.5,-0.5 l 0,-1.5 0,-1.5 0,-3 0,-1.5 0,-1.5 c -0.2761,0 -0.5,-0.2239 -0.5,-0.5 0,-0.2761 0.2239,-0.5 0.5,-0.5 0.2761,0 0.5,0.2239 0.5,0.5 l 4.5,0 0,-10 -4.5,0 c 0,0.2761 -0.2239,0.5 -0.5,0.5 -0.2761,0 -0.5,-0.2239 -0.5,-0.5 0,-0.2761 0.2239,-0.5 0.5,-0.5 l 0,-2.5 0,-71 0,-1 0,-1.5 c -0.2761,0 -0.5,-0.2239 -0.5,-0.5 0,-0.2761 0.2239,-0.5 0.5,-0.5 0.2761,0 0.5,0.2239 0.5,0.5 l 4.5,0 0,-10 -4.5,0 c 0,0.2761 -0.2239,0.5 -0.5,0.5 -0.2761,0 -0.5,-0.2239 -0.5,-0.5 0,-0.2761 0.2239,-0.5 0.5,-0.5 l 0,-1.5 0,-1.5 0,-3 0,-1.5 0,-1.5 c -0.2761,0 -0.5,-0.2239 -0.5,-0.5 0,-0.2761 0.2239,-0.5 0.5,-0.5 0.2761,0 0.5,0.2239 0.5,0.5 l 4.5,0 0,-10 -4.5,0 c 0,0.2761 -0.2239,0.5 -0.5,0.5 -0.2761,0 -0.5,-0.2239 -0.5,-0.5 0,-0.2761 0.2239,-0.5 0.5,-0.5 l 0,-2.5 0,-71 0,-1 0,-1.5 c -0.2761,0 -0.5,-0.2239 -0.5,-0.5 0,-0.2761 0.2239,-0.5 0.5,-0.5 0.2761,0 0.5,0.2239 0.5,0.5 l 4.5,0 0,-10 -4.5,0 c 0,0.2761 -0.2239,0.5 -0.5,0.5 -0.2761,0 -0.5,-0.2239 -0.5,-0.5 0,-0.2761 0.2239,-0.5 0.5,-0.5 l 0,-1.5 0,-1.5 0,-3 0,-1.5 0,-1.5 c -0.2761,0 -0.5,-0.2239 -0.5,-0.5 0,-0.2761 0.2239,-0.5 0.5,-0.5 0.2761,0 0.5,0.2239 0.5,0.5 l 4.5,0 0,-10 -4.5,0 c 0,0.2761 -0.2239,0.5 -0.5,0.5 -0.2761,0 -0.5,-0.2239 -0.5,-0.5 0,-0.2761 0.2239,-0.5 0.5,-0.5 l 0,-2.5 0,-6 0,-11 -34.5,0 -20,0 -16,0 -20,0 -5.5,0 -4,0 -2.5,0 -3,0 -2.5,0 -3,0 -14,0 0,11 0,6 0,1 0,1.5 c 0.2761,0 0.5,0.2239 0.5,0.5 0,0.2761 -0.2239,0.5 -0.5,0.5 -0.2761,0 -0.5,-0.2239 -0.5,-0.5 l -4.5,0 0,10 4.5,0 c 0,-0.2761 0.2239,-0.5 0.5,-0.5 0.2761,0 0.5,0.2239 0.5,0.5 0,0.2761 -0.2239,0.5 -0.5,0.5 l 0,3 3.9447,0 0,-1.532191 3.34658,0.564445 0,0.967746 3.70872,0 0,3 -3.70872,0 0,0.967756 -3.34658,0.564445 0,-1.532201 -3.9447,0 0,3 c 0.2761,0 0.5,0.2239 0.5,0.5 0,0.2761 -0.2239,0.5 -0.5,0.5 -0.2761,0 -0.5,-0.2239 -0.5,-0.5 l -4.5,0 0,10 4.5,0 c 0,-0.2761 0.2239,-0.5 0.5,-0.5 0.2761,0 0.5,0.2239 0.5,0.5 0,0.2761 -0.2239,0.5 -0.5,0.5 l 0,2.5 0,17 99,0 c 3.3131,0 6,2.6869 6,6 l 0,79 c 0,3.3131 -2.6869,6 -6,6 l -99,0 -24,0 c -3.3131,0 -6,2.6869 -6,6 l 0,59 c 0,3.3131 2.6869,6 6,6 l 17,0 5,0 2,0 0,12 z"
   inkscape:connector-curvature="0"
   style="fill:none;stroke:#1f1a17;stroke-width:0.0762"
   sodipodi:nodetypes="ccccccccccccccccssccccssccccccssccccsscccccssccccssccccccssccccsscccccssccccssccccccssccccsscccccccccccccccccccssccccssccccccccccccccssccccsscccsssscssssccccc" />
  </g>
  <g
   id="_65591832"
   transform="matrix(-1,0,0,1,599.75229,0)">
   <path
   id="_65529520"
   d="m 321,149 21,0 0,24 -21,0 c -6.6262,0 -12,-5.3737 -12,-12 0,-6.6263 5.3738,-12 12,-12 z"
   inkscape:connector-curvature="0"
   style="fill:none;stroke:#1f1a17;stroke-width:0.0762" />
   <circle
   id="_65494128"
   transform="matrix(0,-0.5,0.5,0,321,161)"
   r="12"
   cx="0"
   cy="0"
   sodipodi:cx="0"
   sodipodi:cy="0"
   sodipodi:rx="12"
   sodipodi:ry="12"
   style="fill:none;stroke:#1f1a17;stroke-width:0.0762"
   d="M 12,0 C 12,6.627417 6.627417,12 0,12 -6.627417,12 -12,6.627417 -12,0 c 0,-6.627417 5.372583,-12 12,-12 6.627417,0 12,5.372583 12,12 z" />
   <circle
   id="_65652256"
   transform="matrix(0,-1,1,0,333.498,160.918)"
   r="1.5"
   cx="0"
   cy="0"
   sodipodi:cx="0"
   sodipodi:cy="0"
   sodipodi:rx="1.5"
   sodipodi:ry="1.5"
   style="fill:none;stroke:#1f1a17;stroke-width:0.0762"
   d="M 1.5,0 C 1.5,0.82842712 0.82842712,1.5 0,1.5 -0.82842712,1.5 -1.5,0.82842712 -1.5,0 c 0,-0.82842712 0.67157288,-1.5 1.5,-1.5 0.82842712,0 1.5,0.67157288 1.5,1.5 z" />
  </g>
  <g
   id="_55539056"
   transform="matrix(-1,0,0,1,599.75229,0)">
   <path
   id="_29829448"
   d="m 287,163 21,0 0,24 -21,0 c -6.6262,0 -12,-5.3737 -12,-12 0,-6.6263 5.3738,-12 12,-12 z"
   inkscape:connector-curvature="0"
   style="fill:none;stroke:#1f1a17;stroke-width:0.0762" />
   <circle
   id="_54251216"
   transform="matrix(0,-0.5,0.5,0,287,175)"
   r="12"
   cx="0"
   cy="0"
   sodipodi:cx="0"
   sodipodi:cy="0"
   sodipodi:rx="12"
   sodipodi:ry="12"
   style="fill:none;stroke:#1f1a17;stroke-width:0.0762"
   d="M 12,0 C 12,6.627417 6.627417,12 0,12 -6.627417,12 -12,6.627417 -12,0 c 0,-6.627417 5.372583,-12 12,-12 6.627417,0 12,5.372583 12,12 z" />
   <circle
   id="_55084136"
   transform="matrix(0,-1,1,0,299.498,174.918)"
   r="1.5"
   cx="0"
   cy="0"
   sodipodi:cx="0"
   sodipodi:cy="0"
   sodipodi:rx="1.5"
   sodipodi:ry="1.5"
   style="fill:none;stroke:#1f1a17;stroke-width:0.0762"
   d="M 1.5,0 C 1.5,0.82842712 0.82842712,1.5 0,1.5 -0.82842712,1.5 -1.5,0.82842712 -1.5,0 c 0,-0.82842712 0.67157288,-1.5 1.5,-1.5 0.82842712,0 1.5,0.67157288 1.5,1.5 z" />
  </g>
  <g
   id="_55542032"
   transform="matrix(-1,0,0,1,599.75229,0)">
   <path
   id="_65638688"
   d="m 287,138 21,0 0,24 -21,0 c -6.6262,0 -12,-5.3737 -12,-12 0,-6.6263 5.3738,-12 12,-12 z"
   inkscape:connector-curvature="0"
   style="fill:none;stroke:#1f1a17;stroke-width:0.0762" />
   <circle
   id="_65556776"
   transform="matrix(0,-0.5,0.5,0,287,150)"
   r="12"
   cx="0"
   cy="0"
   sodipodi:cx="0"
   sodipodi:cy="0"
   sodipodi:rx="12"
   sodipodi:ry="12"
   style="fill:none;stroke:#1f1a17;stroke-width:0.0762"
   d="M 12,0 C 12,6.627417 6.627417,12 0,12 -6.627417,12 -12,6.627417 -12,0 c 0,-6.627417 5.372583,-12 12,-12 6.627417,0 12,5.372583 12,12 z" />
   <circle
   id="_65557232"
   transform="matrix(0,-1,1,0,299.498,149.918)"
   r="1.5"
   cx="0"
   cy="0"
   sodipodi:cx="0"
   sodipodi:cy="0"
   sodipodi:rx="1.5"
   sodipodi:ry="1.5"
   style="fill:none;stroke:#1f1a17;stroke-width:0.0762"
   d="M 1.5,0 C 1.5,0.82842712 0.82842712,1.5 0,1.5 -0.82842712,1.5 -1.5,0.82842712 -1.5,0 c 0,-0.82842712 0.67157288,-1.5 1.5,-1.5 0.82842712,0 1.5,0.67157288 1.5,1.5 z" />
  </g>
  <g
   id="_65068320"
   transform="matrix(-1,0,0,1,599.75229,0)">
   <path
   id="_29855672"
   d="m 287,113 21,0 0,24 -21,0 c -6.6262,0 -12,-5.3737 -12,-12 0,-6.6263 5.3738,-12 12,-12 z"
   inkscape:connector-curvature="0"
   style="fill:none;stroke:#1f1a17;stroke-width:0.0762" />
   <circle
   id="_65514992"
   transform="matrix(0,-0.5,0.5,0,287,125)"
   r="12"
   cx="0"
   cy="0"
   sodipodi:cx="0"
   sodipodi:cy="0"
   sodipodi:rx="12"
   sodipodi:ry="12"
   style="fill:none;stroke:#1f1a17;stroke-width:0.0762"
   d="M 12,0 C 12,6.627417 6.627417,12 0,12 -6.627417,12 -12,6.627417 -12,0 c 0,-6.627417 5.372583,-12 12,-12 6.627417,0 12,5.372583 12,12 z" />
   <circle
   id="_54311096"
   transform="matrix(0,-1,1,0,299.498,124.918)"
   r="1.5"
   cx="0"
   cy="0"
   sodipodi:cx="0"
   sodipodi:cy="0"
   sodipodi:rx="1.5"
   sodipodi:ry="1.5"
   style="fill:none;stroke:#1f1a17;stroke-width:0.0762"
   d="M 1.5,0 C 1.5,0.82842712 0.82842712,1.5 0,1.5 -0.82842712,1.5 -1.5,0.82842712 -1.5,0 c 0,-0.82842712 0.67157288,-1.5 1.5,-1.5 0.82842712,0 1.5,0.67157288 1.5,1.5 z" />
  </g>
  <g
   id="_54309968"
   transform="matrix(-1,0,0,1,599.75229,0)">
   <path
   id="_65605616"
   d="m 310,5 c 0.8283,0 1.5,0.6717 1.5,1.5 0,0.8283 -0.6717,1.5 -1.5,1.5 -0.8283,0 -1.5,-0.6717 -1.5,-1.5 0,-0.8283 0.6717,-1.5 1.5,-1.5 z"
   inkscape:connector-curvature="0"
   style="fill:none;stroke:#1f1a17;stroke-width:0.0762" />
   <path
   id="_65119664"
   d="m 295,9.5 c -0.2761,0 -0.5,-0.2239 -0.5,-0.5 0,-0.2761 0.2239,-0.5 0.5,-0.5 l 0,-4 c -0.2761,0 -0.5,-0.2239 -0.5,-0.5 0,-0.2761 0.2239,-0.5 0.5,-0.5 0.2761,0 0.5,0.2239 0.5,0.5 l 9,0 c 0,-0.2761 0.2239,-0.5 0.5,-0.5 0.2761,0 0.5,0.2239 0.5,0.5 0,0.2761 -0.2239,0.5 -0.5,0.5 l 0,4 c 0.2761,0 0.5,0.2239 0.5,0.5 0,0.2761 -0.2239,0.5 -0.5,0.5 -0.2761,0 -0.5,-0.2239 -0.5,-0.5 l -9,0 c 0,0.2761 -0.2239,0.5 -0.5,0.5 z"
   inkscape:connector-curvature="0"
   style="fill:none;stroke:#1f1a17;stroke-width:0.0762" />
   <path
   id="_54323336"
   d="m 315,9.5 c -0.2761,0 -0.5,-0.2239 -0.5,-0.5 0,-0.2761 0.2239,-0.5 0.5,-0.5 l 0,-4 c -0.2761,0 -0.5,-0.2239 -0.5,-0.5 0,-0.2761 0.2239,-0.5 0.5,-0.5 0.2761,0 0.5,0.2239 0.5,0.5 l 9,0 c 0,-0.2761 0.2239,-0.5 0.5,-0.5 0.2761,0 0.5,0.2239 0.5,0.5 0,0.2761 -0.2239,0.5 -0.5,0.5 l 0,4 c 0.2761,0 0.5,0.2239 0.5,0.5 0,0.2761 -0.2239,0.5 -0.5,0.5 -0.2761,0 -0.5,-0.2239 -0.5,-0.5 l -9,0 c 0,0.2761 -0.2239,0.5 -0.5,0.5 z"
   inkscape:connector-curvature="0"
   style="fill:none;stroke:#1f1a17;stroke-width:0.0762" />
   <path
   id="_55059248"
   d="m 310,64 c 0.8283,0 1.5,0.6717 1.5,1.5 0,0.8283 -0.6717,1.5 -1.5,1.5 -0.8283,0 -1.5,-0.6717 -1.5,-1.5 0,-0.8283 0.6717,-1.5 1.5,-1.5 z"
   inkscape:connector-curvature="0"
   style="fill:none;stroke:#1f1a17;stroke-width:0.0762" />
   <path
   id="_29853440"
   d="m 295,68.5 c -0.2761,0 -0.5,-0.2239 -0.5,-0.5 0,-0.2761 0.2239,-0.5 0.5,-0.5 l 0,-4 c -0.2761,0 -0.5,-0.2239 -0.5,-0.5 0,-0.2761 0.2239,-0.5 0.5,-0.5 0.2761,0 0.5,0.2239 0.5,0.5 l 9,0 c 0,-0.2761 0.2239,-0.5 0.5,-0.5 0.2761,0 0.5,0.2239 0.5,0.5 0,0.2761 -0.2239,0.5 -0.5,0.5 l 0,4 c 0.2761,0 0.5,0.2239 0.5,0.5 0,0.2761 -0.2239,0.5 -0.5,0.5 -0.2761,0 -0.5,-0.2239 -0.5,-0.5 l -9,0 c 0,0.2761 -0.2239,0.5 -0.5,0.5 z"
   inkscape:connector-curvature="0"
   style="fill:none;stroke:#1f1a17;stroke-width:0.0762" />
   <path
   id="_55109968"
   d="m 315,68.5 c -0.2761,0 -0.5,-0.2239 -0.5,-0.5 0,-0.2761 0.2239,-0.5 0.5,-0.5 l 0,-4 c -0.2761,0 -0.5,-0.2239 -0.5,-0.5 0,-0.2761 0.2239,-0.5 0.5,-0.5 0.2761,0 0.5,0.2239 0.5,0.5 l 9,0 c 0,-0.2761 0.2239,-0.5 0.5,-0.5 0.2761,0 0.5,0.2239 0.5,0.5 0,0.2761 -0.2239,0.5 -0.5,0.5 l 0,4 c 0.2761,0 0.5,0.2239 0.5,0.5 0,0.2761 -0.2239,0.5 -0.5,0.5 -0.2761,0 -0.5,-0.2239 -0.5,-0.5 l -9,0 c 0,0.2761 -0.2239,0.5 -0.5,0.5 z"
   inkscape:connector-curvature="0"
   style="fill:none;stroke:#1f1a17;stroke-width:0.0762" />
   <path
   style="fill:none;stroke:#1f1a17;stroke-width:0.0762"
   d="m 277.82211,71 c -1.39124,-0.02074 -2.82223,-1.285692 -2.82217,-2.822144 l 3e-5,-64.3557018 C 274.9753,2.4763151 276.42188,0.99991796 277.82211,1 l 64.3557,-6.814e-5 C 343.70523,1.0208591 345.00005,2.3765554 345,3.8221542 L 345,18 l 0,36 0,14.177856 c 0.0246,1.391246 -1.28573,2.822238 -2.82219,2.822144 z"
   id="_54025768"
   inkscape:connector-curvature="0"
   sodipodi:nodetypes="ccccccccccc" />
   <path
   id="_29811464"
   d="m 310,18.5 c 9.6633,0 17.5,7.8368 17.5,17.5002 0,9.6631 -7.8367,17.4998 -17.5,17.4998 -9.6633,0 -17.5,-7.8367 -17.5,-17.4998 C 292.5,26.3368 300.3367,18.5 310,18.5 z"
   inkscape:connector-curvature="0"
   style="fill:none;stroke:#1f1a17;stroke-width:0.0762" />
   <circle
   id="_65072112"
   cx="324.5"
   cy="36.25"
   r="1.5"
   sodipodi:cx="324.5"
   sodipodi:cy="36.25"
   sodipodi:rx="1.5"
   sodipodi:ry="1.5"
   style="fill:none;stroke:#1f1a17;stroke-width:0.0762"
   d="m 326,36.25 c 0,0.828427 -0.67157,1.5 -1.5,1.5 -0.82843,0 -1.5,-0.671573 -1.5,-1.5 0,-0.828427 0.67157,-1.5 1.5,-1.5 0.82843,0 1.5,0.671573 1.5,1.5 z" />
   <circle
   id="_65080584"
   cx="295.5"
   cy="36.25"
   r="1.5"
   sodipodi:cx="295.5"
   sodipodi:cy="36.25"
   sodipodi:rx="1.5"
   sodipodi:ry="1.5"
   style="fill:none;stroke:#1f1a17;stroke-width:0.0762"
   d="m 297,36.25 c 0,0.828427 -0.67157,1.5 -1.5,1.5 -0.82843,0 -1.5,-0.671573 -1.5,-1.5 0,-0.828427 0.67157,-1.5 1.5,-1.5 0.82843,0 1.5,0.671573 1.5,1.5 z" />
  </g>
  <rect
   transform="matrix(0,-1,-1,0,0,0)"
   width="19.999996"
   height="23.699987"
   id="rect69"
   x="-140.75"
   y="-285.10229"
   style="fill:none;stroke:#1f1a17;stroke-width:0.03599704" />
  <rect
   x="-290.75229"
   y="113"
   width="35"
   height="35"
   id="rect71"
   transform="scale(-1,1)"
   style="fill:none;stroke:#1f1a17;stroke-width:0.0762" />
  <circle
   cx="341"
   cy="130.75"
   r="1.5"
   id="circle73"
   sodipodi:cx="341"
   sodipodi:cy="130.75"
   sodipodi:rx="1.5"
   sodipodi:ry="1.5"
   transform="matrix(-1,0,0,1,599.75229,0)"
   style="fill:none;stroke:#1f1a17;stroke-width:0.0762" />
  <circle
   cx="312"
   cy="130.75"
   r="1.5"
   id="circle75"
   sodipodi:cx="312"
   sodipodi:cy="130.75"
   sodipodi:rx="1.5"
   sodipodi:ry="1.5"
   transform="matrix(-1,0,0,1,599.75229,0)"
   style="fill:none;stroke:#1f1a17;stroke-width:0.0762" />
  <g
   id="_55553520"
   transform="matrix(-1,0,0,1,599.75229,0)">
   <path
   id="_65469976"
   d="m 290,89.55 c 0.8446,0 1.5894,0.4276 2.03,1.0781 l 0,2.7438 c -0.4406,0.6505 -1.1854,1.0781 -2.03,1.0781 -1.3529,0 -2.45,-1.0971 -2.45,-2.45 0,-1.3529 1.0971,-2.45 2.45,-2.45 z"
   inkscape:connector-curvature="0"
   style="fill:none;stroke:#1f1a17;stroke-width:0.0762" />
   <circle
   id="_65941528"
   cx="279.535"
   cy="81.438797"
   r="1.5"
   sodipodi:cx="279.535"
   sodipodi:cy="81.438797"
   sodipodi:rx="1.5"
   sodipodi:ry="1.5"
   style="fill:none;stroke:#1f1a17;stroke-width:0.0762"
   d="m 281.035,81.438797 c 0,0.828427 -0.67157,1.5 -1.5,1.5 -0.82842,0 -1.5,-0.671573 -1.5,-1.5 0,-0.828427 0.67158,-1.5 1.5,-1.5 0.82843,0 1.5,0.671573 1.5,1.5 z" />
   <circle
   id="_29812912"
   cx="300.535"
   cy="81.438797"
   r="1.5"
   sodipodi:cx="300.535"
   sodipodi:cy="81.438797"
   sodipodi:rx="1.5"
   sodipodi:ry="1.5"
   style="fill:none;stroke:#1f1a17;stroke-width:0.0762"
   d="m 302.035,81.438797 c 0,0.828427 -0.67157,1.5 -1.5,1.5 -0.82842,0 -1.5,-0.671573 -1.5,-1.5 0,-0.828427 0.67158,-1.5 1.5,-1.5 0.82843,0 1.5,0.671573 1.5,1.5 z" />
   <circle
   id="_65800712"
   cx="300.535"
   cy="102.439"
   r="1.5"
   sodipodi:cx="300.535"
   sodipodi:cy="102.439"
   sodipodi:rx="1.5"
   sodipodi:ry="1.5"
   style="fill:none;stroke:#1f1a17;stroke-width:0.0762"
   d="m 302.035,102.439 c 0,0.82843 -0.67157,1.5 -1.5,1.5 -0.82842,0 -1.5,-0.67157 -1.5,-1.5 0,-0.82842 0.67158,-1.5 1.5,-1.5 0.82843,0 1.5,0.67158 1.5,1.5 z" />
   <circle
   id="_29883976"
   cx="279.535"
   cy="102.439"
   r="1.5"
   sodipodi:cx="279.535"
   sodipodi:cy="102.439"
   sodipodi:rx="1.5"
   sodipodi:ry="1.5"
   style="fill:none;stroke:#1f1a17;stroke-width:0.0762"
   d="m 281.035,102.439 c 0,0.82843 -0.67157,1.5 -1.5,1.5 -0.82842,0 -1.5,-0.67157 -1.5,-1.5 0,-0.82842 0.67158,-1.5 1.5,-1.5 0.82843,0 1.5,0.67158 1.5,1.5 z" />
   <circle
   id="_54979904"
   cx="290"
   cy="92"
   r="20"
   sodipodi:cx="290"
   sodipodi:cy="92"
   sodipodi:rx="20"
   sodipodi:ry="20"
   style="fill:none;stroke:#1f1a17;stroke-width:0.0762"
   d="m 310,92 c 0,11.04569 -8.95431,20 -20,20 -11.04569,0 -20,-8.95431 -20,-20 0,-11.045695 8.95431,-20 20,-20 11.04569,0 20,8.954305 20,20 z" />
  </g>
  <g
   id="_55106096"
   transform="matrix(-1,0,0,1,599.75229,0)">
   <circle
   id="_65069040"
   transform="matrix(0,-1,1,0,351.5,51)"
   r="1.5"
   cx="0"
   cy="0"
   sodipodi:cx="0"
   sodipodi:cy="0"
   sodipodi:rx="1.5"
   sodipodi:ry="1.5"
   style="fill:none;stroke:#1f1a17;stroke-width:0.0762"
   d="M 1.5,0 C 1.5,0.82842712 0.82842712,1.5 0,1.5 -0.82842712,1.5 -1.5,0.82842712 -1.5,0 c 0,-0.82842712 0.67157288,-1.5 1.5,-1.5 0.82842712,0 1.5,0.67157288 1.5,1.5 z" />
   <path
   id="_54984248"
   d="m 354.5,66 c 0,0.2761 -0.2239,0.5 -0.5,0.5 -0.2761,0 -0.5,-0.2239 -0.5,-0.5 l -4,0 c 0,0.2761 -0.2239,0.5 -0.5,0.5 -0.2761,0 -0.5,-0.2239 -0.5,-0.5 0,-0.2761 0.2239,-0.5 0.5,-0.5 l 0,-9 c -0.2761,0 -0.5,-0.2239 -0.5,-0.5 0,-0.2761 0.2239,-0.5 0.5,-0.5 0.2761,0 0.5,0.2239 0.5,0.5 l 4,0 c 0,-0.2761 0.2239,-0.5 0.5,-0.5 0.2761,0 0.5,0.2239 0.5,0.5 0,0.2761 -0.2239,0.5 -0.5,0.5 l 0,9 c 0.2761,0 0.5,0.2239 0.5,0.5 z"
   inkscape:connector-curvature="0"
   style="fill:none;stroke:#1f1a17;stroke-width:0.0762" />
   <path
   id="_29822232"
   d="m 354.5,46 c 0,0.2761 -0.2239,0.5 -0.5,0.5 -0.2761,0 -0.5,-0.2239 -0.5,-0.5 l -4,0 c 0,0.2761 -0.2239,0.5 -0.5,0.5 -0.2761,0 -0.5,-0.2239 -0.5,-0.5 0,-0.2761 0.2239,-0.5 0.5,-0.5 l 0,-9 c -0.2761,0 -0.5,-0.2239 -0.5,-0.5 0,-0.2761 0.2239,-0.5 0.5,-0.5 0.2761,0 0.5,0.2239 0.5,0.5 l 4,0 c 0,-0.2761 0.2239,-0.5 0.5,-0.5 0.2761,0 0.5,0.2239 0.5,0.5 0,0.2761 -0.2239,0.5 -0.5,0.5 l 0,9 c 0.2761,0 0.5,0.2239 0.5,0.5 z"
   inkscape:connector-curvature="0"
   style="fill:none;stroke:#1f1a17;stroke-width:0.0762" />
   <circle
   id="_55505704"
   transform="matrix(0,-1,1,0,410.5,51)"
   r="1.5"
   cx="0"
   cy="0"
   sodipodi:cx="0"
   sodipodi:cy="0"
   sodipodi:rx="1.5"
   sodipodi:ry="1.5"
   style="fill:none;stroke:#1f1a17;stroke-width:0.0762"
   d="M 1.5,0 C 1.5,0.82842712 0.82842712,1.5 0,1.5 -0.82842712,1.5 -1.5,0.82842712 -1.5,0 c 0,-0.82842712 0.67157288,-1.5 1.5,-1.5 0.82842712,0 1.5,0.67157288 1.5,1.5 z" />
   <path
   id="_65089432"
   d="m 413.5,66 c 0,0.2761 -0.2239,0.5 -0.5,0.5 -0.2761,0 -0.5,-0.2239 -0.5,-0.5 l -4,0 c 0,0.2761 -0.2239,0.5 -0.5,0.5 -0.2761,0 -0.5,-0.2239 -0.5,-0.5 0,-0.2761 0.2239,-0.5 0.5,-0.5 l 0,-9 c -0.2761,0 -0.5,-0.2239 -0.5,-0.5 0,-0.2761 0.2239,-0.5 0.5,-0.5 0.2761,0 0.5,0.2239 0.5,0.5 l 4,0 c 0,-0.2761 0.2239,-0.5 0.5,-0.5 0.2761,0 0.5,0.2239 0.5,0.5 0,0.2761 -0.2239,0.5 -0.5,0.5 l 0,9 c 0.2761,0 0.5,0.2239 0.5,0.5 z"
   inkscape:connector-curvature="0"
   style="fill:none;stroke:#1f1a17;stroke-width:0.0762" />
   <path
   id="_29813544"
   d="m 413.5,46 c 0,0.2761 -0.2239,0.5 -0.5,0.5 -0.2761,0 -0.5,-0.2239 -0.5,-0.5 l -4,0 c 0,0.2761 -0.2239,0.5 -0.5,0.5 -0.2761,0 -0.5,-0.2239 -0.5,-0.5 0,-0.2761 0.2239,-0.5 0.5,-0.5 l 0,-9 c -0.2761,0 -0.5,-0.2239 -0.5,-0.5 0,-0.2761 0.2239,-0.5 0.5,-0.5 0.2761,0 0.5,0.2239 0.5,0.5 l 4,0 c 0,-0.2761 0.2239,-0.5 0.5,-0.5 0.2761,0 0.5,0.2239 0.5,0.5 0,0.2761 -0.2239,0.5 -0.5,0.5 l 0,9 c 0.2761,0 0.5,0.2239 0.5,0.5 z"
   inkscape:connector-curvature="0"
   style="fill:none;stroke:#1f1a17;stroke-width:0.0762" />
   <path
   id="_65530744"
   d="m 416,13 0,-7 -17,0 -1,0 -1.5,0 c 0,0.2761 -0.2239,0.5 -0.5,0.5 -0.2761,0 -0.5,-0.2239 -0.5,-0.5 0,-0.2761 0.2239,-0.5 0.5,-0.5 l 0,-4.5 -10,0 0,4.5 c 0.2761,0 0.5,0.2239 0.5,0.5 0,0.2761 -0.2239,0.5 -0.5,0.5 -0.2761,0 -0.5,-0.2239 -0.5,-0.5 l -3,0 0,3.9447 1.53234,0 -0.56445,3.346575 -0.96789,0 0,3.708725 -3,0 0,-3.708725 -0.96789,0 -0.56445,-3.346575 1.53234,0 0,-3.9447 -3,0 c 0,0.2761 -0.2239,0.5 -0.5,0.5 -0.2761,0 -0.5,-0.2239 -0.5,-0.5 0,-0.2761 0.2239,-0.5 0.5,-0.5 l 0,-4.5 -10,0 0,4.5 c 0.2761,0 0.5,0.2239 0.5,0.5 0,0.2761 -0.2239,0.5 -0.5,0.5 -0.2761,0 -0.5,-0.2239 -0.5,-0.5 l -2.5,0 -17,0 0,7 0,20 0,16 0,20 0,7 17,0 1,0 1.5,0 c 0,-0.2761 0.2239,-0.5 0.5,-0.5 0.2761,0 0.5,0.2239 0.5,0.5 0,0.2761 -0.2239,0.5 -0.5,0.5 l 0,4.5 10,0 0,-4.5 c -0.2761,0 -0.5,-0.2239 -0.5,-0.5 0,-0.2761 0.2239,-0.5 0.5,-0.5 0.2761,0 0.5,0.2239 0.5,0.5 l 1.5,0 1.5,0 3,0 1.5,0 1.5,0 c 0,-0.2761 0.2239,-0.5 0.5,-0.5 0.2761,0 0.5,0.2239 0.5,0.5 0,0.2761 -0.2239,0.5 -0.5,0.5 l 0,4.5 10,0 0,-4.5 c -0.2761,0 -0.5,-0.2239 -0.5,-0.5 0,-0.2761 0.2239,-0.5 0.5,-0.5 0.2761,0 0.5,0.2239 0.5,0.5 l 2.5,0 17,0 0,-7 0,-20 0,-16 z"
   inkscape:connector-curvature="0"
   style="fill:none;stroke:#1f1a17;stroke-width:0.0762"
   sodipodi:nodetypes="cccccssccccssccccccccccccccssccccsscccccccccccssccccssccccccssccccssccccccc" />
  </g>
  
  <g
   id="_54310624"
   transform="matrix(-1,0,0,1,599.75229,0)">
   <circle
   id="_65118360"
   transform="matrix(0,-1,1,0,357.5,132)"
   r="1.5"
   cx="0"
   cy="0"
   sodipodi:cx="0"
   sodipodi:cy="0"
   sodipodi:rx="1.5"
   sodipodi:ry="1.5"
   style="fill:none;stroke:#1f1a17;stroke-width:0.0762"
   d="M 1.5,0 C 1.5,0.82842712 0.82842712,1.5 0,1.5 -0.82842712,1.5 -1.5,0.82842712 -1.5,0 c 0,-0.82842712 0.67157288,-1.5 1.5,-1.5 0.82842712,0 1.5,0.67157288 1.5,1.5 z" />
   <path
   id="_55018792"
   d="m 360.5,147 c 0,0.2761 -0.2239,0.5 -0.5,0.5 -0.2761,0 -0.5,-0.2239 -0.5,-0.5 l -4,0 c 0,0.2761 -0.2239,0.5 -0.5,0.5 -0.2761,0 -0.5,-0.2239 -0.5,-0.5 0,-0.2761 0.2239,-0.5 0.5,-0.5 l 0,-9 c -0.2761,0 -0.5,-0.2239 -0.5,-0.5 0,-0.2761 0.2239,-0.5 0.5,-0.5 0.2761,0 0.5,0.2239 0.5,0.5 l 4,0 c 0,-0.2761 0.2239,-0.5 0.5,-0.5 0.2761,0 0.5,0.2239 0.5,0.5 0,0.2761 -0.2239,0.5 -0.5,0.5 l 0,9 c 0.2761,0 0.5,0.2239 0.5,0.5 z"
   inkscape:connector-curvature="0"
   style="fill:none;stroke:#1f1a17;stroke-width:0.0762" />
   <path
   id="_54323200"
   d="m 360.5,127 c 0,0.2761 -0.2239,0.5 -0.5,0.5 -0.2761,0 -0.5,-0.2239 -0.5,-0.5 l -4,0 c 0,0.2761 -0.2239,0.5 -0.5,0.5 -0.2761,0 -0.5,-0.2239 -0.5,-0.5 0,-0.2761 0.2239,-0.5 0.5,-0.5 l 0,-9 c -0.2761,0 -0.5,-0.2239 -0.5,-0.5 0,-0.2761 0.2239,-0.5 0.5,-0.5 0.2761,0 0.5,0.2239 0.5,0.5 l 4,0 c 0,-0.2761 0.2239,-0.5 0.5,-0.5 0.2761,0 0.5,0.2239 0.5,0.5 0,0.2761 -0.2239,0.5 -0.5,0.5 l 0,9 c 0.2761,0 0.5,0.2239 0.5,0.5 z"
   inkscape:connector-curvature="0"
   style="fill:none;stroke:#1f1a17;stroke-width:0.0762" />
   <circle
   id="_53603368"
   transform="matrix(0,-1,1,0,416.5,132)"
   r="1.5"
   cx="0"
   cy="0"
   sodipodi:cx="0"
   sodipodi:cy="0"
   sodipodi:rx="1.5"
   sodipodi:ry="1.5"
   style="fill:none;stroke:#1f1a17;stroke-width:0.0762"
   d="M 1.5,0 C 1.5,0.82842712 0.82842712,1.5 0,1.5 -0.82842712,1.5 -1.5,0.82842712 -1.5,0 c 0,-0.82842712 0.67157288,-1.5 1.5,-1.5 0.82842712,0 1.5,0.67157288 1.5,1.5 z" />
   <path
   id="_54315784"
   d="m 419.5,147 c 0,0.2761 -0.2239,0.5 -0.5,0.5 -0.2761,0 -0.5,-0.2239 -0.5,-0.5 l -4,0 c 0,0.2761 -0.2239,0.5 -0.5,0.5 -0.2761,0 -0.5,-0.2239 -0.5,-0.5 0,-0.2761 0.2239,-0.5 0.5,-0.5 l 0,-9 c -0.2761,0 -0.5,-0.2239 -0.5,-0.5 0,-0.2761 0.2239,-0.5 0.5,-0.5 0.2761,0 0.5,0.2239 0.5,0.5 l 4,0 c 0,-0.2761 0.2239,-0.5 0.5,-0.5 0.2761,0 0.5,0.2239 0.5,0.5 0,0.2761 -0.2239,0.5 -0.5,0.5 l 0,9 c 0.2761,0 0.5,0.2239 0.5,0.5 z"
   inkscape:connector-curvature="0"
   style="fill:none;stroke:#1f1a17;stroke-width:0.0762" />
   <path
   id="_55119680"
   d="m 419.5,127 c 0,0.2761 -0.2239,0.5 -0.5,0.5 -0.2761,0 -0.5,-0.2239 -0.5,-0.5 l -4,0 c 0,0.2761 -0.2239,0.5 -0.5,0.5 -0.2761,0 -0.5,-0.2239 -0.5,-0.5 0,-0.2761 0.2239,-0.5 0.5,-0.5 l 0,-9 c -0.2761,0 -0.5,-0.2239 -0.5,-0.5 0,-0.2761 0.2239,-0.5 0.5,-0.5 0.2761,0 0.5,0.2239 0.5,0.5 l 4,0 c 0,-0.2761 0.2239,-0.5 0.5,-0.5 0.2761,0 0.5,0.2239 0.5,0.5 0,0.2761 -0.2239,0.5 -0.5,0.5 l 0,9 c 0.2761,0 0.5,0.2239 0.5,0.5 z"
   inkscape:connector-curvature="0"
   style="fill:none;stroke:#1f1a17;stroke-width:0.0762" />
   <path
   id="_54310064"
   d="m 422,94 0,-7 -17,0 -1,0 -1.5,0 c 0,0.2761 -0.2239,0.5 -0.5,0.5 -0.2761,0 -0.5,-0.2239 -0.5,-0.5 0,-0.2761 0.2239,-0.5 0.5,-0.5 l 0,-4.5 -10,0 0,4.5 c 0.2761,0 0.5,0.2239 0.5,0.5 0,0.2761 -0.2239,0.5 -0.5,0.5 -0.2761,0 -0.5,-0.2239 -0.5,-0.5 l -3,0 0,3.9447 1.5321,0 -0.56445,3.346615 -0.96765,0 0,3.708685 -3,0 0,-3.708685 -0.96785,0 -0.56444,-3.346615 1.53229,0 0,-3.9447 -3,0 c 0,0.2761 -0.2239,0.5 -0.5,0.5 -0.2761,0 -0.5,-0.2239 -0.5,-0.5 0,-0.2761 0.2239,-0.5 0.5,-0.5 l 0,-4.5 -10,0 0,4.5 c 0.2761,0 0.5,0.2239 0.5,0.5 0,0.2761 -0.2239,0.5 -0.5,0.5 -0.2761,0 -0.5,-0.2239 -0.5,-0.5 l -2.5,0 -17,0 0,7 0,20 0,16 0,20 0,7 17,0 1,0 1.5,0 c 0,-0.2761 0.2239,-0.5 0.5,-0.5 0.2761,0 0.5,0.2239 0.5,0.5 0,0.2761 -0.2239,0.5 -0.5,0.5 l 0,4.5 10,0 0,-4.5 c -0.2761,0 -0.5,-0.2239 -0.5,-0.5 0,-0.2761 0.2239,-0.5 0.5,-0.5 0.2761,0 0.5,0.2239 0.5,0.5 l 1.5,0 1.5,0 3,0 1.5,0 1.5,0 c 0,-0.2761 0.2239,-0.5 0.5,-0.5 0.2761,0 0.5,0.2239 0.5,0.5 0,0.2761 -0.2239,0.5 -0.5,0.5 l 0,4.5 10,0 0,-4.5 c -0.2761,0 -0.5,-0.2239 -0.5,-0.5 0,-0.2761 0.2239,-0.5 0.5,-0.5 0.2761,0 0.5,0.2239 0.5,0.5 l 2.5,0 17,0 0,-7 0,-20 0,-16 z"
   inkscape:connector-curvature="0"
   style="fill:none;stroke:#1f1a17;stroke-width:0.0762"
   sodipodi:nodetypes="cccccssccccssccccccccccccccssccccsscccccccccccssccccssccccccssccccssccccccc" />
  </g>
  
  <g
   id="_54320848"
   transform="matrix(-1,0,0,1,599.75229,0)">
   <ellipse
   id="_29811544"
   cx="310"
   cy="234"
   rx="11"
   ry="10.9999"
   sodipodi:cx="310"
   sodipodi:cy="234"
   sodipodi:rx="11"
   sodipodi:ry="10.9999"
   style="fill:none;stroke:#1f1a17;stroke-width:0.0762"
   d="m 321,234 c 0,6.07508 -4.92487,10.9999 -11,10.9999 -6.07513,0 -11,-4.92482 -11,-10.9999 0,-6.07508 4.92487,-10.9999 11,-10.9999 6.07513,0 11,4.92482 11,10.9999 z" />
   <circle
   id="_65070552"
   cx="310"
   cy="204.5"
   r="1.5"
   sodipodi:cx="310"
   sodipodi:cy="204.5"
   sodipodi:rx="1.5"
   sodipodi:ry="1.5"
   style="fill:none;stroke:#1f1a17;stroke-width:0.0762"
   d="m 311.5,204.5 c 0,0.82843 -0.67157,1.5 -1.5,1.5 -0.82843,0 -1.5,-0.67157 -1.5,-1.5 0,-0.82843 0.67157,-1.5 1.5,-1.5 0.82843,0 1.5,0.67157 1.5,1.5 z" />
   <path
   id="_29831624"
   d="m 295,207.5 c -0.2761,0 -0.5,-0.2239 -0.5,-0.5 0,-0.2761 0.2239,-0.5 0.5,-0.5 l 0,-4 c -0.2761,0 -0.5,-0.2239 -0.5,-0.5 0,-0.2761 0.2239,-0.5 0.5,-0.5 0.2761,0 0.5,0.2239 0.5,0.5 l 9,0 c 0,-0.2761 0.2239,-0.5 0.5,-0.5 0.2761,0 0.5,0.2239 0.5,0.5 0,0.2761 -0.2239,0.5 -0.5,0.5 l 0,4 c 0.2761,0 0.5,0.2239 0.5,0.5 0,0.2761 -0.2239,0.5 -0.5,0.5 -0.2761,0 -0.5,-0.2239 -0.5,-0.5 l -9,0 c 0,0.2761 -0.2239,0.5 -0.5,0.5 z"
   inkscape:connector-curvature="0"
   style="fill:none;stroke:#1f1a17;stroke-width:0.0762" />
   <path
   id="_55065296"
   d="m 315,207.5 c -0.2761,0 -0.5,-0.2239 -0.5,-0.5 0,-0.2761 0.2239,-0.5 0.5,-0.5 l 0,-4 c -0.2761,0 -0.5,-0.2239 -0.5,-0.5 0,-0.2761 0.2239,-0.5 0.5,-0.5 0.2761,0 0.5,0.2239 0.5,0.5 l 9,0 c 0,-0.2761 0.2239,-0.5 0.5,-0.5 0.2761,0 0.5,0.2239 0.5,0.5 0,0.2761 -0.2239,0.5 -0.5,0.5 l 0,4 c 0.2761,0 0.5,0.2239 0.5,0.5 0,0.2761 -0.2239,0.5 -0.5,0.5 -0.2761,0 -0.5,-0.2239 -0.5,-0.5 l -9,0 c 0,0.2761 -0.2239,0.5 -0.5,0.5 z"
   inkscape:connector-curvature="0"
   style="fill:none;stroke:#1f1a17;stroke-width:0.0762" />
   <path
   id="_55108744"
   d="m 336.5,219 c 0,-0.2761 0.2239,-0.5 0.5,-0.5 0.2761,0 0.5,0.2239 0.5,0.5 l 4,0 c 0,-0.2761 0.2239,-0.5 0.5,-0.5 0.2761,0 0.5,0.2239 0.5,0.5 0,0.2761 -0.2239,0.5 -0.5,0.5 l 0,9 c 0.2761,0 0.5,0.2239 0.5,0.5 0,0.2761 -0.2239,0.5 -0.5,0.5 -0.2761,0 -0.5,-0.2239 -0.5,-0.5 l -4,0 c 0,0.2761 -0.2239,0.5 -0.5,0.5 -0.2761,0 -0.5,-0.2239 -0.5,-0.5 0,-0.2761 0.2239,-0.5 0.5,-0.5 l 0,-9 c -0.2761,0 -0.5,-0.2239 -0.5,-0.5 z"
   inkscape:connector-curvature="0"
   style="fill:none;stroke:#1f1a17;stroke-width:0.0762" />
   <path
   id="_29833384"
   d="m 336.5,239 c 0,-0.2761 0.2239,-0.5 0.5,-0.5 0.2761,0 0.5,0.2239 0.5,0.5 l 4,0 c 0,-0.2761 0.2239,-0.5 0.5,-0.5 0.2761,0 0.5,0.2239 0.5,0.5 0,0.2761 -0.2239,0.5 -0.5,0.5 l 0,9 c 0.2761,0 0.5,0.2239 0.5,0.5 0,0.2761 -0.2239,0.5 -0.5,0.5 -0.2761,0 -0.5,-0.2239 -0.5,-0.5 l -4,0 c 0,0.2761 -0.2239,0.5 -0.5,0.5 -0.2761,0 -0.5,-0.2239 -0.5,-0.5 0,-0.2761 0.2239,-0.5 0.5,-0.5 l 0,-9 c -0.2761,0 -0.5,-0.2239 -0.5,-0.5 z"
   inkscape:connector-curvature="0"
   style="fill:none;stroke:#1f1a17;stroke-width:0.0762" />
   <circle
   id="_54439720"
   cx="310"
   cy="263.5"
   r="1.5"
   sodipodi:cx="310"
   sodipodi:cy="263.5"
   sodipodi:rx="1.5"
   sodipodi:ry="1.5"
   style="fill:none;stroke:#1f1a17;stroke-width:0.0762"
   d="m 311.5,263.5 c 0,0.82843 -0.67157,1.5 -1.5,1.5 -0.82843,0 -1.5,-0.67157 -1.5,-1.5 0,-0.82843 0.67157,-1.5 1.5,-1.5 0.82843,0 1.5,0.67157 1.5,1.5 z" />
   <path
   id="_29832344"
   d="m 294.99998,266.5 c -0.2761,0 -0.5,-0.2239 -0.5,-0.5 0,-0.2761 0.2239,-0.5 0.5,-0.5 l 0,-4 c -0.2761,0 -0.5,-0.2239 -0.5,-0.5 0,-0.2761 0.2239,-0.5 0.5,-0.5 0.2761,0 0.5,0.2239 0.5,0.5 l 9,0 c 0,-0.2761 0.2239,-0.5 0.5,-0.5 0.2761,0 0.5,0.2239 0.5,0.5 0,0.2761 -0.2239,0.5 -0.5,0.5 l 0,4 c 0.2761,0 0.5,0.2239 0.5,0.5 0,0.2761 -0.2239,0.5 -0.5,0.5 -0.2761,0 -0.5,-0.2239 -0.5,-0.5 l -9,0 c 0,0.2761 -0.2239,0.5 -0.5,0.5 z"
   inkscape:connector-curvature="0"
   style="fill:none;stroke:#1f1a17;stroke-width:0.0762"
   sodipodi:nodetypes="ssccssccssccssccs" />
   <path
   id="_55098888"
   d="m 314.99994,266.5 c -0.2761,0 -0.5,-0.2239 -0.5,-0.5 0,-0.2761 0.2239,-0.5 0.5,-0.5 l 0,-4 c -0.2761,0 -0.5,-0.2239 -0.5,-0.5 0,-0.2761 0.2239,-0.5 0.5,-0.5 0.2761,0 0.5,0.2239 0.5,0.5 l 9,0 c 0,-0.2761 0.2239,-0.5 0.5,-0.5 0.2761,0 0.5,0.2239 0.5,0.5 0,0.2761 -0.2239,0.5 -0.5,0.5 l 0,4 c 0.2761,0 0.5,0.2239 0.5,0.5 0,0.2761 -0.2239,0.5 -0.5,0.5 -0.2761,0 -0.5,-0.2239 -0.5,-0.5 l -9,0 c 0,0.2761 -0.2239,0.5 -0.5,0.5 z"
   inkscape:connector-curvature="0"
   style="fill:none;stroke:#1f1a17;stroke-width:0.0762"
   sodipodi:nodetypes="ssccssccssccssccs" />
   <path
   id="_55054072"
   d="m 283.50012,257.46672 c 0,0.2761 -0.2239,0.5 -0.5,0.5 -0.2761,0 -0.5,-0.2239 -0.5,-0.5 l -4,0 c 0,0.2761 -0.2239,0.5 -0.5,0.5 -0.2761,0 -0.5,-0.2239 -0.5,-0.5 0,-0.2761 0.2239,-0.5 0.5,-0.5 l 0,-9 c -0.2761,0 -0.5,-0.2239 -0.5,-0.5 0,-0.2761 0.2239,-0.5 0.5,-0.5 0.2761,0 0.5,0.22377 0.5,0.49987 l 4,1.3e-4 c 0,-0.2761 0.2239,-0.5 0.5,-0.5 0.2761,0 0.5,0.2239 0.5,0.5 0,0.2761 -0.2239,0.5 -0.5,0.5 l 0,9 c 0.2761,0 0.5,0.2239 0.5,0.5 z"
   inkscape:connector-curvature="0"
   style="fill:none;stroke:#1f1a17;stroke-width:0.0762"
   sodipodi:nodetypes="ssccssccssccssccs" />
   <path
   id="_54275120"
   d="m 283.5,220.53342 c 0,0.2761 -0.2239,0.5 -0.5,0.5 -0.2761,0 -0.5,-0.2239 -0.5,-0.5 l -4,0 c 0,0.2761 -0.2239,0.5 -0.5,0.5 -0.2761,0 -0.5,-0.2239 -0.5,-0.5 0,-0.2761 0.2239,-0.5 0.5,-0.5 l 0,-9 c -0.2761,0 -0.5,-0.2239 -0.5,-0.5 0,-0.2761 0.2239,-0.5 0.5,-0.5 0.2761,0 0.5,0.2239 0.5,0.5 l 4,0 c 0,-0.2761 0.2239,-0.5 0.5,-0.5 0.2761,0 0.5,0.2239 0.5,0.5 0,0.2761 -0.2239,0.5 -0.5,0.5 l 0,9 c 0.2761,0 0.5,0.2239 0.5,0.5 z"
   inkscape:connector-curvature="0"
   style="fill:none;stroke:#1f1a17;stroke-width:0.0762"
   sodipodi:nodetypes="ssccssccssccssccs" />
   <circle
   id="_54899632"
   cx="294.44299"
   cy="218.444"
   r="1.5"
   sodipodi:cx="294.44299"
   sodipodi:cy="218.444"
   sodipodi:rx="1.5"
   sodipodi:ry="1.5"
   style="fill:none;stroke:#1f1a17;stroke-width:0.0762"
   d="m 295.94299,218.444 c 0,0.82843 -0.67157,1.5 -1.5,1.5 -0.82842,0 -1.5,-0.67157 -1.5,-1.5 0,-0.82843 0.67158,-1.5 1.5,-1.5 0.82843,0 1.5,0.67157 1.5,1.5 z" />
   <circle
   id="_54999224"
   cx="325.556"
   cy="218.444"
   r="1.5"
   sodipodi:cx="325.556"
   sodipodi:cy="218.444"
   sodipodi:rx="1.5"
   sodipodi:ry="1.5"
   style="fill:none;stroke:#1f1a17;stroke-width:0.0762"
   d="m 327.056,218.444 c 0,0.82843 -0.67157,1.5 -1.5,1.5 -0.82843,0 -1.5,-0.67157 -1.5,-1.5 0,-0.82843 0.67157,-1.5 1.5,-1.5 0.82843,0 1.5,0.67157 1.5,1.5 z" />
   <circle
   id="_65536504"
   cx="294.44299"
   cy="249.556"
   r="1.5"
   sodipodi:cx="294.44299"
   sodipodi:cy="249.556"
   sodipodi:rx="1.5"
   sodipodi:ry="1.5"
   style="fill:none;stroke:#1f1a17;stroke-width:0.0762"
   d="m 295.94299,249.556 c 0,0.82843 -0.67157,1.5 -1.5,1.5 -0.82842,0 -1.5,-0.67157 -1.5,-1.5 0,-0.82843 0.67158,-1.5 1.5,-1.5 0.82843,0 1.5,0.67157 1.5,1.5 z" />
   <circle
   id="_65126424"
   cx="325.556"
   cy="249.556"
   r="1.5"
   sodipodi:cx="325.556"
   sodipodi:cy="249.556"
   sodipodi:rx="1.5"
   sodipodi:ry="1.5"
   style="fill:none;stroke:#1f1a17;stroke-width:0.0762"
   d="m 327.056,249.556 c 0,0.82843 -0.67157,1.5 -1.5,1.5 -0.82843,0 -1.5,-0.67157 -1.5,-1.5 0,-0.82843 0.67157,-1.5 1.5,-1.5 0.82843,0 1.5,0.67157 1.5,1.5 z" />
   <path
   style="fill:none;stroke:#1f1a17;stroke-width:0.0762"
   d="m 277.82211,199 64.3557,0 c 1.52746,-0.0246 2.82224,1.33117 2.82219,2.82222 l 0,64.35542 c 0.11543,1.52744 -1.14953,2.73138 -2.82219,2.82236 l -64.3557,0 c -1.53468,0.0244 -2.88645,-1.22226 -2.82211,-2.82236 l 0,-64.35542 c -0.0247,-1.40627 1.41464,-2.88643 2.82211,-2.82222 z"
   id="_29821768"
   inkscape:connector-curvature="0"
   sodipodi:nodetypes="ccccccccc" />
  </g>
  
  <g
   id="_65938432"
   transform="matrix(-1,0,0,1,599.75229,0)">
   <path
   id="_65137928"
   d="m 331,89.55 c 0.8446,0 1.5894,0.4276 2.03,1.0781 l 0,2.7438 c -0.4406,0.6505 -1.1854,1.0781 -2.03,1.0781 -1.3529,0 -2.45,-1.0971 -2.45,-2.45 0,-1.3529 1.0971,-2.45 2.45,-2.45 z"
   inkscape:connector-curvature="0"
   style="fill:none;stroke:#1f1a17;stroke-width:0.0762" />
   <circle
   id="_55091160"
   cx="320.535"
   cy="81.438797"
   r="1.5"
   sodipodi:cx="320.535"
   sodipodi:cy="81.438797"
   sodipodi:rx="1.5"
   sodipodi:ry="1.5"
   style="fill:none;stroke:#1f1a17;stroke-width:0.0762"
   d="m 322.035,81.438797 c 0,0.828427 -0.67157,1.5 -1.5,1.5 -0.82842,0 -1.5,-0.671573 -1.5,-1.5 0,-0.828427 0.67158,-1.5 1.5,-1.5 0.82843,0 1.5,0.671573 1.5,1.5 z" />
   <circle
   id="_55149784"
   cx="341.535"
   cy="81.438797"
   r="1.5"
   sodipodi:cx="341.535"
   sodipodi:cy="81.438797"
   sodipodi:rx="1.5"
   sodipodi:ry="1.5"
   style="fill:none;stroke:#1f1a17;stroke-width:0.0762"
   d="m 343.035,81.438797 c 0,0.828427 -0.67157,1.5 -1.5,1.5 -0.82842,0 -1.5,-0.671573 -1.5,-1.5 0,-0.828427 0.67158,-1.5 1.5,-1.5 0.82843,0 1.5,0.671573 1.5,1.5 z" />
   <circle
   id="_54323160"
   cx="341.535"
   cy="102.439"
   r="1.5"
   sodipodi:cx="341.535"
   sodipodi:cy="102.439"
   sodipodi:rx="1.5"
   sodipodi:ry="1.5"
   style="fill:none;stroke:#1f1a17;stroke-width:0.0762"
   d="m 343.035,102.439 c 0,0.82843 -0.67157,1.5 -1.5,1.5 -0.82842,0 -1.5,-0.67157 -1.5,-1.5 0,-0.82842 0.67158,-1.5 1.5,-1.5 0.82843,0 1.5,0.67158 1.5,1.5 z" />
   <circle
   id="_55118408"
   cx="320.535"
   cy="102.439"
   r="1.5"
   sodipodi:cx="320.535"
   sodipodi:cy="102.439"
   sodipodi:rx="1.5"
   sodipodi:ry="1.5"
   style="fill:none;stroke:#1f1a17;stroke-width:0.0762"
   d="m 322.035,102.439 c 0,0.82843 -0.67157,1.5 -1.5,1.5 -0.82842,0 -1.5,-0.67157 -1.5,-1.5 0,-0.82842 0.67158,-1.5 1.5,-1.5 0.82843,0 1.5,0.67158 1.5,1.5 z" />
   <circle
   id="_55026864"
   cx="331"
   cy="92"
   r="20"
   sodipodi:cx="331"
   sodipodi:cy="92"
   sodipodi:rx="20"
   sodipodi:ry="20"
   style="fill:none;stroke:#1f1a17;stroke-width:0.0762"
   d="m 351,92 c 0,11.04569 -8.95431,20 -20,20 -11.04569,0 -20,-8.95431 -20,-20 0,-11.045695 8.95431,-20 20,-20 11.04569,0 20,8.954305 20,20 z" />
  </g>
 <path
   sodipodi:nodetypes="ccscccccsccccssccccssccccccccccccccccccsccccccscccccccccccccccccccssccccssccccsccccssccccccccccccccccccsccccccsccccccccccccccccccssccccsscccccccscccccscccccccccccccccccccccccccccc"
   style="fill:none;stroke:#1f1a17;stroke-width:0.0762;stroke-miterlimit:4;stroke-dasharray:none"
   inkscape:connector-curvature="0"
   id="path3936"
   d="M 178.75183,202.47246 C 178.75183,202.47246 178.72903,205.26318 178.75189,207.96671 C 179.16006,208.03751 179.25189,208.19061 179.25189,208.46671 C 179.25189,208.74281 179.02799,208.96671 178.75189,208.96671 C 178.47579,208.96671 178.25189,208.74281 178.25189,208.46671 L 173.75189,208.46671 L 173.75189,218.46671 C 173.75189,218.46671 173.75789,218.50991 178.25189,218.46671 C 178.31529,218.10249 178.47579,217.96671 178.75189,217.96671 C 179.02799,217.96671 179.25189,218.19061 179.25189,218.46671 C 179.25189,218.74281 179.02799,218.96671 178.75189,218.96671 C 178.75189,209.23769 178.75189,217.38259 178.75189,222 L 185.75169,222 L 188.25169,222 C 188.25169,221.7239 188.47559,221.5 188.75169,221.5 C 189.02779,221.5 189.25169,221.7239 189.25169,222 C 189.25169,222.2761 189.02779,222.5 188.75169,222.5 L 188.75169,227 L 198.75169,227 L 198.75169,222.5 C 198.47559,222.5 198.25169,222.2761 198.25169,222 C 198.25169,221.7239 198.47559,221.5 198.75169,221.5 C 199.02779,221.5 199.25169,221.7239 199.25169,222 L 202.25169,222 L 202.25169,218.0553 L 201.284,218.0553 L 200.71956,214.70877 L 202.25169,214.70877 L 202.25169,211 L 205.25169,211 L 205.25169,214.70877 L 206.78395,214.70877 L 206.21951,218.0553 L 205.25169,218.0553 L 205.25169,222 L 206.75209,222 L 208.22529,222 L 208.25169,222 C 208.25169,221.7284 208.46839,221.5073 208.73819,221.5002 L 208.73879,221.5002 C 209.00869,221.5072 209.22529,221.7284 209.22529,222 C 209.22529,222.2761 209.00139,222.5 208.72529,222.5 L 208.72529,227 L 208.75169,227 L 218.72529,227 L 218.75169,227 L 218.75169,222.5 C 218.47559,222.5 218.25169,222.2761 218.25169,222 C 218.25169,221.7284 218.46839,221.5073 218.73819,221.5002 L 218.73879,221.5002 C 219.00869,221.5072 219.22529,221.7284 219.22529,222 L 219.25169,222 L 219.75169,222 L 219.75189,222 L 222.22529,222 L 225.22529,222 L 225.75189,222 L 228.22529,222 L 229.22529,222 L 238.22529,222 L 239.22529,222 L 240.72529,222 L 241.72529,222 L 241.75189,222 L 248.75189,222 C 248.75189,219.72983 248.75189,203.10241 248.75189,210.49999 C 248.47579,210.49999 248.25189,210.27609 248.25189,209.99999 C 248.25189,209.72389 248.47579,209.49999 248.75189,209.49999 C 249.02799,209.49999 249.25189,209.72389 249.25189,209.99999 L 253.75189,209.99999 L 253.75189,199.99999 L 249.25189,199.99999 C 249.25189,200.27609 249.02799,200.49999 248.75189,200.49999 C 248.47579,200.49999 248.25189,200.27609 248.25189,199.99999 C 248.25189,199.72389 248.47579,199.49999 248.75189,199.49999 L 248.75189,198.99999 L 248.75189,193.17352 L 248.75189,190.50008 C 248.75189,190.22398 248.25189,190.27618 248.25189,190.00008 C 248.25189,189.72398 248.47579,189.50008 248.75189,189.50008 C 249.02799,189.50008 249.25189,189.72398 249.25189,190.00008 L 253.75189,190.00008 L 253.75189,180.00008 L 249.25189,180.00008 C 248.97579,180.00008 249.02799,180.50008 248.75189,180.50008 C 248.47579,180.50008 248.25189,180.27618 248.25189,180.00008 C 248.25189,179.72398 248.47579,179.50008 248.75189,179.50008 C 248.75189,189.22895 248.75189,172.61725 248.75189,168 L 244.75189,168 L 243.75189,168 L 241.72609,168 L 239.22609,168 L 238.22609,168 L 229.22609,168 L 228.22609,168 L 225.75189,168 L 225.22609,168 L 222.22609,168 L 220.72569,168 L 219.75189,168 L 219.25249,168 L 219.22609,168 C 219.22609,168.2716 219.00939,168.4927 218.73959,168.4998 L 218.73899,168.4998 C 218.46909,168.4928 218.25249,168.2716 218.25249,168 C 218.25249,167.7239 218.47639,167.5 218.75249,167.5 L 218.75249,163 L 218.72609,163 L 208.75249,163 L 208.72609,163 L 208.72609,167.5 C 209.00219,167.5 209.22609,167.7239 209.22609,168 C 209.22609,168.2716 209.00939,168.4927 208.73959,168.4998 L 208.73899,168.4998 C 208.46909,168.4928 208.25249,168.2716 208.25249,168 L 208.22609,168 L 207.72609,168 L 205.25249,168 L 205.25249,171.9447 L 206.22035,171.9447 L 206.7848,175.29136 L 205.25249,175.29136 L 205.25249,179 L 202.25249,179 L 202.25249,175.29136 L 200.72041,175.29136 L 201.28485,171.9447 L 202.25249,171.9447 L 202.25249,168 L 199.25249,168 C 199.25249,168.2761 199.02859,168.5 198.75249,168.5 C 198.47639,168.5 198.25249,168.2761 198.25249,168 C 198.25249,167.7239 198.47639,167.5 198.75249,167.5 L 198.75249,163 L 188.75249,163 L 188.75249,167.5 C 189.02859,167.5 189.25249,167.7239 189.25249,168 C 189.25249,168.2761 189.02859,168.5 188.75249,168.5 C 188.47639,168.5 188.25249,168.2761 188.25249,168 L 186.75249,168 L 185.75249,168 L 178.75189,168 L 178.75189,168.53354 C 178.75189,168.53354 178.73999,168.51694 178.75189,171.03342 C 179.14908,171.04562 179.25189,171.25732 179.25189,171.53342 C 179.25189,171.80952 179.02799,172.03342 178.75189,172.03342 C 178.47579,172.03342 178.25189,171.80952 178.25189,171.53342 L 173.75189,171.53342 L 173.75189,181.53342 C 173.75189,181.53342 175.52373,181.51232 178.25189,181.53342 C 178.23499,181.21736 178.47579,181.03342 178.75189,181.03342 C 179.02799,181.03342 179.25189,181.25732 179.25189,181.53342 C 179.25189,181.80952 179.02799,182.03342 178.75189,182.03342 L 178.75189,192 L 178.75189,193.5 L 178.75189,197.30356 L 179.23669,197.30356 L 198.14553,197.30357 C 199.03413,197.26657 199.51124,196.78562 199.55665,195.89245 C 199.55665,195.08079 199.55665,194.28471 199.55665,193.15772 C 199.63405,191.86419 199.49155,191.7466 198.14553,191.74657 C 197.83924,191.74656 198.10173,191.74655 197.71881,191.74654 C 196.03764,191.76474 196.35315,191.56213 196.30776,193.15772 C 196.27356,193.80368 195.37563,193.71285 194.89659,193.71284 L 191.87512,193.71283 C 190.54775,193.73043 190.464,193.53621 190.464,192.30174 L 190.464,187.52258 C 190.4918,186.24063 190.459,186.11148 191.87512,186.11154 L 194.89659,186.11155 C 195.17924,186.12215 196.26226,185.93202 196.30776,186.66632 C 196.38086,188.0845 196.07573,188.12283 197.71881,188.07748 L 199.55666,188.07748 L 203.50774,188.07748 C 204.7897,188.05988 204.96425,188.11788 204.91888,189.48854 L 204.91888,198.71468 L 204.91885,201.15815 C 204.87895,202.20015 204.62998,202.53241 203.50774,202.47246 L 179.23664,202.47246 z" />


<path
   d="M 248.7518,265.50008 C 248.4757,265.50008 248.2518,265.27618 248.2518,265.00008 C 248.2518,264.72398 248.4757,264.50008 248.7518,264.50008 C 249.0279,264.50008 249.2518,264.72398 249.2518,265.00008 L 253.7518,265.00008 L 253.7518,255.00008 L 249.2518,255.00008 C 249.2518,255.27618 249.0279,255.50008 248.7518,255.50008 C 248.4757,255.50008 248.2518,255.27618 248.2518,255.00008 C 248.2518,254.72398 248.4757,254.50008 248.7518,254.50008 L 248.75189,247.03343 C 248.47579,247.03343 248.25189,246.80953 248.25189,246.53343 C 248.25189,246.25733 248.47579,246.03343 248.75189,246.03343 C 249.02799,246.03343 249.25189,246.25733 249.25189,246.53343 L 253.75189,246.53356 L 253.75189,236.53343 L 249.25189,236.53343 C 249.25189,236.80953 249.02799,237.03343 248.75189,237.03343 C 248.47579,237.03343 248.25189,236.80953 248.25189,236.53343 C 248.25189,236.25733 248.47579,236.03343 248.75189,236.03343 C 248.75189,245.5901 248.75189,235.95703 248.75189,233 L 242.75189,233 L 241.72609,233 L 239.22609,233 L 238.22609,233 L 229.22609,233 L 228.22609,233 L 225.22609,233 L 224.75189,233 L 222.22609,233 L 220.72569,233 L 219.25249,233 L 219.22609,233 C 219.22609,233.2716 219.00939,233.4927 218.73959,233.4998 L 218.73899,233.4998 C 218.46909,233.4928 218.25249,233.2716 218.25249,233 C 218.25249,232.7239 218.47639,232.5 218.75249,232.5 L 218.75249,228 L 218.72609,228 L 208.75249,228 L 208.72609,228 L 208.72609,232.5 C 209.00219,232.5 209.22609,232.7239 209.22609,233 C 209.22609,233.2716 209.00939,233.4927 208.73959,233.4998 L 208.73899,233.4998 C 208.46909,233.4928 208.25249,233.2716 208.25249,233 L 208.22609,233 L 207.72609,233 L 205.25249,233 L 205.25249,236.9447 L 206.22035,236.9447 L 206.7848,240.29137 L 205.25249,240.29137 L 205.25249,244 L 202.25249,244 L 202.25249,240.29137 L 200.72041,240.29137 L 201.28485,236.9447 L 202.25249,236.9447 L 202.25249,233 L 199.25249,233 C 199.25249,233.2761 199.02859,233.5 198.75249,233.5 C 198.47639,233.5 198.25249,233.2761 198.25249,233 C 198.25249,232.7239 198.47639,232.5 198.75249,232.5 L 198.75249,228 L 188.75249,228 L 188.75249,232.5 C 189.02859,232.5 189.25249,232.7239 189.25249,233 C 189.25249,233.2761 189.02859,233.5 188.75249,233.5 C 188.47639,233.5 188.25249,233.2761 188.25249,233 L 186.75249,233 L 185.75249,233 L 178.75189,233 L 178.75189,242 L 178.75189,244.5 C 179.02799,244.5 179.25189,244.7239 179.25189,245 C 179.25189,245.2761 179.02799,245.5 178.75189,245.5 C 178.47579,245.5 178.25189,245.2761 178.25189,245 L 173.75189,245 L 173.75189,255 L 178.25189,255 C 178.25189,254.7239 178.47579,254.5 178.75189,254.5 C 179.02799,254.5 179.25189,254.7239 179.25189,255 C 179.25189,255.2761 179.02799,255.5 178.75189,255.5 L 178.75189,257 L 178.75189,258.5 L 178.75189,261.5 L 178.75189,263 L 178.75189,264.5 C 179.02799,264.5 179.25189,264.7239 179.25189,265 C 179.25189,265.2761 179.02799,265.5 178.75189,265.5 C 178.47579,265.5 178.25189,265.2761 178.25189,265 L 173.75189,265 L 173.75189,275 L 178.25189,275 C 178.25189,274.7239 178.47579,274.5 178.75189,274.5 C 179.02799,274.5 179.25189,274.7239 179.25189,275 C 179.25189,275.2761 179.02799,275.5 178.75189,275.5 L 178.75189,277 L 178.75189,278 L 178.75189,287 L 185.75169,287 L 188.25169,287 C 188.25169,286.7239 188.47559,286.5 188.75169,286.5 C 189.02779,286.5 189.25169,286.7239 189.25169,287 C 189.25169,287.2761 189.02779,287.5 188.75169,287.5 L 188.75169,292 L 198.75169,292 L 198.75169,287.5 C 198.47559,287.5 198.25169,287.2761 198.25169,287 C 198.25169,286.7239 198.47559,286.5 198.75169,286.5 C 199.02779,286.5 199.25169,286.7239 199.25169,287 L 202.25169,287 L 202.25169,283.0553 L 201.284,283.0553 L 200.71956,279.7085 L 202.25169,279.7085 L 202.25169,276 L 205.25169,276 L 205.25169,279.7085 L 206.78395,279.7085 L 206.21951,283.0553 L 205.25169,283.0553 L 205.25169,287 L 206.75209,287 L 208.22529,287 L 208.25169,287 C 208.25169,286.7284 208.46839,286.5073 208.73819,286.5002 L 208.73879,286.5002 C 209.00869,286.5072 209.22529,286.7284 209.22529,287 C 209.22529,287.2761 209.00139,287.5 208.72529,287.5 L 208.72529,292 L 208.75169,292 L 218.72529,292 L 218.75169,292 L 218.75169,287.5 C 218.47559,287.5 218.25169,287.2761 218.25169,287 C 218.25169,286.7284 218.46839,286.5073 218.73819,286.5002 L 218.73879,286.5002 C 219.00869,286.5072 219.22529,286.7284 219.22529,287 L 219.25169,287 L 219.75169,287 L 220.75189,287 L 222.22529,287 L 225.22529,287 L 225.75189,287 L 228.22529,287 L 229.22529,287 L 238.22529,287 L 239.22529,287 L 240.72529,287 L 241.22529,287 L 241.72529,287 L 242.75189,287 L 248.75189,287 C 248.75189,284.72977 248.7518,276.56906 248.7518,283.96673 C 248.4757,283.96673 248.2518,283.74283 248.2518,283.46673 C 248.2518,283.19063 248.4757,282.96673 248.7518,282.96673 C 249.0279,282.96673 249.2518,283.19063 249.2518,283.46673 L 253.7518,283.46673 L 253.7518,273.46673 L 249.2518,273.46673 C 249.2518,273.74283 249.0279,273.96673 248.7518,273.96673 C 248.4757,273.96673 248.2518,273.74283 248.2518,273.46673 C 248.2518,273.19063 248.4757,272.96673 248.7518,272.96673 z"
   id="path92-4-5"
   inkscape:connector-curvature="0"
   style="fill:none;stroke:#1f1a17;stroke-width:0.0762"
   sodipodi:nodetypes="cssccccssccssccccssccccccccccccccccsccccccsccccccccccccccccccssccccssccccccssccccssccccccssccccssccccccssccccssccccccccccccccccccsccccccscccccccccccccccccccssccccsscc" /><path
   id="_55054072-1"
   d="m 316.25217,239.00007 c 0,0.2761 0.2239,0.5 0.5,0.5 0.2761,0 0.5,-0.2239 0.5,-0.5 l 4,0 c 0,0.2761 0.2239,0.5 0.5,0.5 0.2761,0 0.5,-0.2239 0.5,-0.5 0,-0.2761 -0.2239,-0.5 -0.5,-0.5 l 0,-9 c 0.2761,0 0.5,-0.2239 0.5,-0.5 0,-0.2761 -0.2239,-0.5 -0.5,-0.5 -0.2761,0 -0.5,0.2239 -0.5,0.5 l -4,0 c 0,-0.2761 -0.2239,-0.5 -0.5,-0.5 -0.2761,0 -0.5,0.2239 -0.5,0.5 0,0.2761 0.2239,0.5 0.5,0.5 l 0,9 c -0.2761,0 -0.5,0.2239 -0.5,0.5 z"
   inkscape:connector-curvature="0"
   style="fill:none;stroke:#1f1a17;stroke-width:0.0762"
   sodipodi:nodetypes="ssccssccssccssccs" /><rect
   style="fill:none;stroke:#000000;stroke-width:0.16086668;stroke-miterlimit:4;stroke-opacity:1;stroke-dasharray:none;stroke-dashoffset:0"
   id="rect3008"
   width="2.1794388"
   height="1.8161988"
   x="-3.2217722"
   y="1.2352909"
   transform="scale(-1,1)" /><path
   inkscape:connector-curvature="0"
   d="m 401.49908,52.288181 32.80834,0 0,-32.455557 -32.80834,0 0,32.455557 z"
   style="fill:#231f20;fill-opacity:1;fill-rule:nonzero;stroke:none"
   id="path190" /><g
   id="g206"
   transform="matrix(0.3527778,0,0,-0.3527778,405.73235,23.713284)"><path
     inkscape:connector-curvature="0"
     d="m 0,0 11,0 0,-12 23,0 0,-12 -23,0 0,-11 12,0 0,-12 -12,0 0,-11 12,0 0,11 35,0 0,-11 -12,0 0,-12 -46,0 0,70 z"
     style="fill:#ffffff;fill-opacity:1;fill-rule:nonzero;stroke:none"
     id="path208" /></g><g
   id="g210"
   transform="matrix(0.3527778,0,0,-0.3527778,426.19346,23.713284)"><path
     inkscape:connector-curvature="0"
     d="m 0,0 11,0 0,-35 -23,0 0,11 12,0 0,24 z"
     style="fill:#ffffff;fill-opacity:1;fill-rule:nonzero;stroke:none"
     id="path212" /></g><path
   inkscape:connector-curvature="0"
   d="m 491.01915,52.034454 32.80834,0 0,-32.455557 -32.80834,0 0,32.455557 z"
   style="fill:#231f20;fill-opacity:1;fill-rule:nonzero;stroke:none"
   id="path192" /><g
   id="g214"
   transform="matrix(0.3527778,0,0,-0.3527778,495.25242,23.459557)"><path
     inkscape:connector-curvature="0"
     d="m 0,0 11,0 0,-12 23,0 0,-12 12,0 0,12 12,0 0,-23 -12,0 0,-23 -12,0 0,23 -11,0 0,11 -23,0 0,24 z"
     style="fill:#ffffff;fill-opacity:1;fill-rule:nonzero;stroke:none"
     id="path216" /></g><path
   inkscape:connector-curvature="0"
   d="m 515.7136,23.459453 3.88056,0 0,4.233333 -3.88056,0 0,-4.233333 z"
   style="fill:#ffffff;fill-opacity:1;fill-rule:nonzero;stroke:none"
   id="path218" /><path
   inkscape:connector-curvature="0"
   d="m 499.13304,35.806676 4.23334,0 0,12.347223 -4.23334,0 0,-12.347223 z"
   style="fill:#ffffff;fill-opacity:1;fill-rule:nonzero;stroke:none"
   id="path250" /><path
   inkscape:connector-curvature="0"
   d="m 515.7136,40.040009 3.88056,0 0,3.880556 -3.88056,0 0,-3.880556 z"
   style="fill:#ffffff;fill-opacity:1;fill-rule:nonzero;stroke:none"
   id="path256" /><path
   inkscape:connector-curvature="0"
   d="m 511.48027,43.920565 4.23333,0 0,4.233334 -4.23333,0 0,-4.233334 z"
   style="fill:#ffffff;fill-opacity:1;fill-rule:nonzero;stroke:none"
   id="path268" /></g>
<path
   inkscape:connector-curvature="0"
   d="m 305.64499,27.93121 19.00037,0 0,-18.7960007 -19.00037,0 0,18.7960007 z"
   style="fill:#231f20;fill-opacity:1;fill-rule:nonzero;stroke:none"
   id="path104" /><g
   id="g124"
   transform="matrix(0.19632853,0,0,-0.19632853,309.12979,12.028653)"><path
     inkscape:connector-curvature="0"
     d="m 0,0 11,0 0,-12 23,0 0,-35 -11,0 0,23 -12,0 0,-11 -11,0 0,35 z"
     style="fill:#ffffff;fill-opacity:1;fill-rule:nonzero;stroke:none"
     id="path126" /></g><path
   inkscape:connector-curvature="0"
   d="m 318.16098,12.028599 2.35598,0 0,4.71189 -2.35598,0 0,-4.71189 z"
   style="fill:#ffffff;fill-opacity:1;fill-rule:nonzero;stroke:none"
   id="path128" /><path
   inkscape:connector-curvature="0"
   d="m 320.51696,16.740489 2.15951,0 0,2.159609 -2.15951,0 0,-2.159609 z"
   style="fill:#ffffff;fill-opacity:1;fill-rule:nonzero;stroke:none"
   id="path156" /><g
   id="g164"
   transform="matrix(0.19632853,0,0,-0.19632853,318.16091,18.900147)"><path
     inkscape:connector-curvature="0"
     d="m 0,0 12,0 0,-23 11,0 0,-12 -69,0 0,23 11,0 0,-11 35,0 0,23 z"
     style="fill:#ffffff;fill-opacity:1;fill-rule:nonzero;stroke:none"
     id="path166" /></g><path
   inkscape:connector-curvature="0"
   d="m 282.10678,222.73884 15.25415,0 0,-15.08996 -15.25415,0 0,15.08996 z"
   style="fill:#231f20;fill-opacity:1;fill-rule:nonzero;stroke:none"
   id="path110" /><g
   id="g140"
   transform="matrix(0.16402184,0,0,-0.16402184,284.07508,209.45306)"><path
     inkscape:connector-curvature="0"
     d="m 0,0 11,0 0,-12 35,0 0,-12 -23,0 0,-11 -23,0 0,35 z"
     style="fill:#ffffff;fill-opacity:1;fill-rule:nonzero;stroke:none"
     id="path142" /></g><path
   inkscape:connector-curvature="0"
   d="m 291.62011,209.45299 1.96827,0 0,1.96839 -1.96827,0 0,-1.96839 z"
   style="fill:#ffffff;fill-opacity:1;fill-rule:nonzero;stroke:none"
   id="path144" /><path
   inkscape:connector-curvature="0"
   d="m 293.58838,211.42138 1.80425,0 0,1.96816 -1.80425,0 0,-1.96816 z"
   style="fill:#ffffff;fill-opacity:1;fill-rule:nonzero;stroke:none"
   id="path148" /><g
   id="g158"
   transform="matrix(0.16402184,0,0,-0.16402184,291.6201,213.38957)"><path
     inkscape:connector-curvature="0"
     d="m 0,0 12,0 0,-11 11,0 0,-35 -23,0 0,12 12,0 0,11 -12,0 0,23 z"
     style="fill:#ffffff;fill-opacity:1;fill-rule:nonzero;stroke:none"
     id="path160" /></g><path
   inkscape:connector-curvature="0"
   d="m 285.87913,217.16222 1.96846,0 0,1.80427 -1.96846,0 0,-1.80427 z"
   style="fill:#ffffff;fill-opacity:1;fill-rule:nonzero;stroke:none"
   id="path176" /><path
   inkscape:connector-curvature="0"
   d="m 289.6517,217.16222 1.96841,0 0,1.80427 -1.96841,0 0,-1.80427 z"
   style="fill:#ffffff;fill-opacity:1;fill-rule:nonzero;stroke:none"
   id="path178" /><path
   inkscape:connector-curvature="0"
   d="m 284.07513,218.96649 1.804,0 0,1.96817 -1.804,0 0,-1.96817 z"
   style="fill:#ffffff;fill-opacity:1;fill-rule:nonzero;stroke:none"
   id="path186" /><path
   inkscape:connector-curvature="0"
   d="m 277.35983,48.239701 24.70856,0 0,-24.442864 -24.70856,0 0,24.442864 z"
   style="fill:#231f20;fill-opacity:1;fill-rule:nonzero;stroke:none"
   id="path196" /><g
   id="g228"
   transform="matrix(0.26568325,0,0,-0.26568325,280.54797,26.719444)"><path
     inkscape:connector-curvature="0"
     d="m 0,0 11,0 0,-12 35,0 0,-12 -35,0 0,-23 12,0 0,12 23,0 0,11 23,0 0,-46 -11,0 0,12 -24,0 0,-12 -34,0 0,70 z"
     style="fill:#ffffff;fill-opacity:1;fill-rule:nonzero;stroke:none"
     id="path230" /></g><path
   inkscape:connector-curvature="0"
   d="m 295.95762,26.719358 2.92268,0 0,3.188187 -2.92268,0 0,-3.188187 z"
   style="fill:#ffffff;fill-opacity:1;fill-rule:nonzero;stroke:none"
   id="path232" /></svg>